<?xml version="1.0" encoding="UTF-8"?> <svg xmlns="http://www.w3.org/2000/svg" width="18" height="12" viewBox="0 0 18 12" fill="none"> <path d="M9.01904 5.26929H18V6.7898H9.01904V5.26929Z" fill="black"></path> <path d="M0 0.656386V6.56223H7.96413V0.128906H0.527481C0.236206 0.128906 0 0.365106 0 0.656386ZM2.09097 5.31981C1.80574 5.31981 1.57448 5.08855 1.57448 4.80331C1.57448 4.51808 1.80574 4.28682 2.09097 4.28682C2.37621 4.28682 2.60747 4.51808 2.60747 4.80331C2.60747 5.08855 2.37621 5.31981 2.09097 5.31981ZM2.09097 3.87099C1.80574 3.87099 1.57448 3.63972 1.57448 3.35449C1.57448 3.06912 1.80574 2.838 2.09097 2.838C2.37621 2.838 2.60747 3.06912 2.60747 3.35449C2.60747 3.63972 2.37621 3.87099 2.09097 3.87099ZM2.09097 2.42203C1.80574 2.42203 1.57448 2.19077 1.57448 1.90553C1.57448 1.62016 1.80574 1.38904 2.09097 1.38904C2.37621 1.38904 2.60747 1.62016 2.60747 1.90553C2.60747 2.19077 2.37621 2.42203 2.09097 2.42203ZM3.87447 5.31981C3.5891 5.31981 3.35797 5.08855 3.35797 4.80331C3.35797 4.51808 3.5891 4.28682 3.87447 4.28682C4.1597 4.28682 4.39096 4.51808 4.39096 4.80331C4.39096 5.08855 4.1597 5.31981 3.87447 5.31981ZM3.87447 3.87099C3.5891 3.87099 3.35797 3.63972 3.35797 3.35449C3.35797 3.06912 3.5891 2.838 3.87447 2.838C4.1597 2.838 4.39096 3.06912 4.39096 3.35449C4.39096 3.63972 4.1597 3.87099 3.87447 3.87099ZM3.87447 2.42203C3.5891 2.42203 3.35797 2.19077 3.35797 1.90553C3.35797 1.62016 3.5891 1.38904 3.87447 1.38904C4.1597 1.38904 4.39096 1.62016 4.39096 1.90553C4.39096 2.19077 4.1597 2.42203 3.87447 2.42203ZM5.65782 5.31981C5.37259 5.31981 5.14133 5.08855 5.14133 4.80331C5.14133 4.51808 5.37259 4.28682 5.65782 4.28682C5.94319 4.28682 6.17432 4.51808 6.17432 4.80331C6.17432 5.08855 5.94319 5.31981 5.65782 5.31981ZM5.65782 3.87099C5.37259 3.87099 5.14133 3.63972 5.14133 3.35449C5.14133 3.06912 5.37259 2.838 5.65782 2.838C5.94319 2.838 6.17432 3.06912 6.17432 3.35449C6.17432 3.63972 5.94319 3.87099 5.65782 3.87099ZM5.65782 2.42203C5.37259 2.42203 5.14133 2.19077 5.14133 1.90553C5.14133 1.62016 5.37259 1.38904 5.65782 1.38904C5.94319 1.38904 6.17432 1.62016 6.17432 1.90553C6.17432 2.19077 5.94319 2.42203 5.65782 2.42203Z" fill="black"></path> <path d="M0 10.4201V11.3677C0 11.659 0.236206 11.8952 0.527481 11.8952H17.4725C17.7638 11.8952 18 11.659 18 11.3677V10.4201H0Z" fill="black"></path> <path d="M9.01904 1.63898H18V0.656386C18 0.365106 17.7637 0.128906 17.4725 0.128906H9.01904V1.63898Z" fill="black"></path> <path d="M9.01904 2.69379H18V4.21429H9.01904V2.69379Z" fill="black"></path> <path d="M0 7.84473H18V9.36513H0V7.84473Z" fill="black"></path> </svg> 