<?xml version="1.0" encoding="UTF-8"?> <svg xmlns="http://www.w3.org/2000/svg" height="512px" viewBox="0 0 512 512" width="512px"> <path d="m48 72h16v16h-16zm0 0" fill="#FF760C"></path> <path d="m104 72h16v16h-16zm0 0" fill="#FF760C"></path> <path d="m376 96h16v16h-16zm0 0" fill="#FF760C"></path> <path d="m432 96h16v16h-16zm0 0" fill="#FF760C"></path> <path d="m128 384h40v16h-40zm0 0" fill="#FF760C"></path> <path d="m32 384h48v16h-48zm0 0" fill="#FF760C"></path> <path d="m96 440h16v16h-16zm0 0" fill="#FF760C"></path> <path d="m400 408h-16v-16c0-4.417969-3.582031-8-8-8s-8 3.582031-8 8v16h-16v-16c0-13.253906 10.746094-24 24-24s24 10.746094 24 24zm0 0" fill="#FF760C"></path> <path d="m472 408h-16v-16c0-4.417969-3.582031-8-8-8s-8 3.582031-8 8v16h-16v-16c0-13.253906 10.746094-24 24-24s24 10.746094 24 24zm0 0" fill="#FF760C"></path> <path d="m80 104c-13.253906 0-24 10.746094-24 24v24c0 13.253906 10.746094 24 24 24s24-10.746094 24-24v-24c0-13.253906-10.746094-24-24-24zm8 48c0 4.417969-3.582031 8-8 8s-8-3.582031-8-8v-24c0-4.417969 3.582031-8 8-8s8 3.582031 8 8zm0 0" fill="#FF760C"></path> <path d="m347.199219 81.597656 32.003906-23.996094 9.589844 12.796876-32.003907 23.992187zm0 0" fill="#FF760C"></path> <path d="m435.199219 70.402344 9.597656-12.796875 32 24-9.597656 12.796875zm0 0" fill="#FF760C"></path> <path d="m384 168h16v-4c0-6.628906 5.371094-12 12-12s12 5.371094 12 12v4h16v-4c0-15.464844-12.535156-28-28-28s-28 12.535156-28 28zm0 0" fill="#FF760C"></path> <path d="m46.054688 352.242188 31.996093-8.007813 3.882813 15.511719-31.996094 8.007812zm0 0" fill="#FF760C"></path> <path d="m408 456c-13.253906 0-24-10.746094-24-24h-16c0 22.089844 17.910156 40 40 40s40-17.910156 40-40h-16c0 13.253906-10.746094 24-24 24zm0 0" fill="#FF760C"></path> <path d="m400 288c-1.207031 0-2.503906.097656-3.742188.144531 4.992188-21.140625 4.992188-43.148437 0-64.289062 1.238282.046875 2.535157.144531 3.742188.144531 61.855469 0 112-50.144531 112-112s-50.144531-112-112-112-112 50.144531-112 112c0 1.207031.097656 2.503906.144531 3.742188-21.140625-4.992188-43.148437-4.992188-64.289062 0 .046875-1.238282.144531-2.535157.144531-3.742188 0-61.855469-50.144531-112-112-112s-112 50.144531-112 112 50.144531 112 112 112c1.214844 0 2.503906-.097656 3.742188-.144531-4.992188 21.140625-4.992188 43.148437 0 64.289062-1.238282-.046875-2.527344-.144531-3.742188-.144531-61.855469 0-112 50.144531-112 112s50.144531 112 112 112 112-50.144531 112-112c0-1.207031-.097656-2.503906-.144531-3.742188 21.140625 4.992188 43.148437 4.992188 64.289062 0-.046875 1.238282-.144531 2.535157-.144531 3.742188 0 61.855469 50.144531 112 112 112s112-50.144531 112-112-50.144531-112-112-112zm0-272c53.019531 0 96 42.980469 96 96s-42.980469 96-96 96c-2.664062 0-5.542969-.207031-8.59375-.511719-14.585938-40.453125-46.441406-72.308593-86.894531-86.894531-.304688-3.050781-.511719-5.929688-.511719-8.59375.058594-52.996094 43.003906-95.941406 96-96zm-288 192c-53.019531 0-96-42.980469-96-96s42.980469-96 96-96 96 42.980469 96 96c0 2.664062-.207031 5.542969-.511719 8.59375-40.453125 14.585938-72.308593 46.441406-86.894531 86.894531-3.050781.304688-5.929688.511719-8.59375.511719zm64 263.351562v-55.351562h-16v67.015625c-5.09375 2.949219-10.449219 5.421875-16 7.382813v-74.398438h-16v78.550781c-16.085938 2.882813-32.648438 1.449219-48-4.152343v-74.398438h-16v67.007812c-5.71875-3.324218-11.082031-7.230468-16-11.65625v-55.351562h-16v36.953125c-19.550781-29.457031-21.3125-67.277344-4.585938-98.421875 16.730469-31.144531 49.234376-50.5625 84.585938-50.53125 2.664062 0 5.542969.207031 8.59375.511719 14.585938 40.453125 46.441406 72.308593 86.894531 86.894531.304688 3.050781.511719 5.929688.511719 8.59375-.019531 27.257812-11.65625 53.210938-32 71.351562zm80-87.351562c-70.691406 0-128-57.308594-128-128s57.308594-128 128-128 128 57.308594 128 128c-.082031 70.65625-57.34375 127.917969-128 128zm144 112c-52.996094-.058594-95.941406-43.003906-96-96 0-2.664062.207031-5.542969.511719-8.59375 40.453125-14.585938 72.308593-46.441406 86.894531-86.894531 3.050781-.304688 5.929688-.511719 8.59375-.511719 53.019531 0 96 42.980469 96 96s-42.980469 96-96 96zm0 0" fill="#FF760C"></path> <path d="m200 312c0 30.929688 25.070312 56 56 56s56-25.070312 56-56v-24h-112zm56 40c-10.574219.003906-20.71875-4.195312-28.199219-11.671875 18.351563-5.800781 38.046875-5.800781 56.398438 0-7.480469 7.476563-17.625 11.675781-28.199219 11.671875zm-40-48h80v8c-.019531 4.984375-.980469 9.917969-2.832031 14.542969-24.046875-8.527344-50.289063-8.527344-74.335938 0-1.851562-4.625-2.8125-9.558594-2.832031-14.542969zm0 0" fill="#FF760C"></path> <path d="m197 185.753906-10 12.492188 32.191406 25.753906-32.191406 25.753906 10 12.492188 47.808594-38.246094zm0 0" fill="#FF760C"></path> <path d="m315 185.753906-47.808594 38.246094 47.808594 38.246094 10-12.492188-32.191406-25.753906 32.191406-25.753906zm0 0" fill="#FF760C"></path> <path d="m248 0h16v64h-16zm0 0" fill="#FF760C"></path> <path d="m280 0h16v32h-16zm0 0" fill="#FF760C"></path> <path d="m216 0h16v32h-16zm0 0" fill="#FF760C"></path> <path d="m248 448h16v64h-16zm0 0" fill="#FF760C"></path> <path d="m280 480h16v32h-16zm0 0" fill="#FF760C"></path> <path d="m216 480h16v32h-16zm0 0" fill="#FF760C"></path> </svg> 