<?xml version="1.0" encoding="UTF-8"?> <svg xmlns="http://www.w3.org/2000/svg" width="200" height="201" viewBox="0 0 200 201" fill="none"> <g clip-path="url(#clip0)"> <path d="M66.3271 161.251L66.3242 162.751H66.3271V161.251ZM107.442 108.204L105.942 108.202L105.942 108.202L107.442 108.204ZM25.212 108.204L26.712 108.208L26.712 108.206L25.212 108.204ZM47.1367 108.204L45.6367 108.201L45.6367 108.201L47.1367 108.204ZM85.4677 108.204L83.9677 108.204L83.9677 108.207L85.4677 108.204ZM66.3271 162.751C79.5492 162.751 90.2689 157.697 97.6501 148.234C104.994 138.819 108.917 125.192 108.942 108.206L105.942 108.202C105.918 124.774 102.085 137.67 95.2846 146.389C88.5215 155.06 78.7087 159.751 66.3271 159.751V162.751ZM108.942 108.206C108.967 91.3375 105.017 77.866 97.642 68.5795C90.232 59.2489 79.489 54.3032 66.3271 54.3032V57.3032C78.6694 57.3032 88.5087 61.9029 95.2927 70.4452C102.112 79.0316 105.967 91.7603 105.942 108.202L108.942 108.206ZM66.3271 54.3032C53.1414 54.3032 42.4221 59.2358 35.0299 68.562C27.6741 77.8422 23.7372 91.3127 23.712 108.202L26.712 108.206C26.7365 91.7355 30.5801 79.0056 37.381 70.4255C44.1454 61.8912 53.9587 57.3032 66.3271 57.3032V54.3032ZM23.712 108.199C23.6617 125.14 27.5729 138.757 34.9299 148.179C42.3231 157.647 53.0788 162.725 66.3242 162.751L66.33 159.751C53.922 159.727 44.0704 155.01 37.2945 146.332C30.4825 137.608 26.6629 124.727 26.712 108.208L23.712 108.199ZM66.3271 141.903C61.0951 141.903 56.7488 139.323 53.6352 133.86C50.4756 128.316 48.6121 119.816 48.6367 108.207L45.6367 108.201C45.6116 120.058 47.5017 129.157 51.0288 135.346C54.6021 141.615 59.8758 144.903 66.3271 144.903V141.903ZM48.6367 108.207C48.6613 96.7729 50.5358 88.3839 53.688 82.9071C56.7941 77.5104 61.1165 74.9523 66.3271 74.9523V71.9523C59.9041 71.9523 54.6562 75.211 51.0879 81.4106C47.5658 87.53 45.6618 96.5168 45.6367 108.201L48.6367 108.207ZM66.3271 74.9523C71.5115 74.9523 75.8344 77.5092 78.9413 82.9071C82.0932 88.3834 83.9677 96.7717 83.9677 108.204H86.9677C86.9677 96.5179 85.0637 87.5305 81.5413 81.4106C77.9738 75.2123 72.7265 71.9523 66.3271 71.9523V74.9523ZM83.9677 108.207C83.9923 119.815 82.1289 128.317 78.9748 133.861C75.8662 139.326 71.5317 141.903 66.3271 141.903V144.903C72.7559 144.903 78.0166 141.613 81.5824 135.345C85.1027 129.156 86.9928 120.058 86.9677 108.201L83.9677 108.207ZM164.951 57.1952H166.451V55.6952H164.951V57.1952ZM143.871 57.1952V55.6952H142.43L142.373 57.1353L143.871 57.1952ZM121.798 73.9992V72.4992H120.298V73.9992H121.798ZM121.798 91.1015H120.298V92.6015H121.798V91.1015ZM142.529 83.5447V82.0447H141.713L141.27 82.7298L142.529 83.5447ZM143.474 83.5447H144.974V82.0447H143.474V83.5447ZM143.474 159.013H141.974V160.513H143.474V159.013ZM164.951 159.013V160.513H166.451V159.013H164.951ZM164.951 55.6952H143.871V58.6952H164.951V55.6952ZM142.373 57.1353C142.271 59.6884 140.327 63.5368 136.648 66.8065C133.028 70.0236 127.916 72.4992 121.798 72.4992V75.4992C128.755 75.4992 134.555 72.6801 138.641 69.0489C142.668 65.4702 145.224 60.9166 145.37 57.2552L142.373 57.1353ZM120.298 73.9992V91.1015H123.298V73.9992H120.298ZM121.798 92.6015C127.599 92.6015 132.434 91.5236 136.135 89.9746C139.797 88.4425 142.471 86.3961 143.788 84.3596L141.27 82.7298C140.4 84.0739 138.326 85.8059 134.977 87.2071C131.669 88.5914 127.232 89.6015 121.798 89.6015V92.6015ZM142.529 85.0447H143.474V82.0447H142.529V85.0447ZM141.974 83.5447V159.013H144.974V83.5447H141.974ZM143.474 160.513H164.951V157.513H143.474V160.513ZM166.451 159.013V57.1952H163.451V159.013H166.451Z" fill="#FF760C"></path> </g> <defs> <clipPath id="clip0"> <rect width="200" height="200" fill="white" transform="translate(0 0.556885)"></rect> </clipPath> </defs> </svg> 