<?xml version="1.0" encoding="UTF-8"?> <svg xmlns="http://www.w3.org/2000/svg" height="512px" viewBox="0 0 64 64" width="512px"> <g id="Handshake-Deal-Smartphone-Agreement-Mobile_Phone" data-name="Handshake-Deal-Smartphone-Agreement-Mobile Phone"> <path d="m57 6h-21.1a5.009 5.009 0 0 0 -4.9-4h-24a5.006 5.006 0 0 0 -5 5v46a5.006 5.006 0 0 0 5 5h21.1a5.009 5.009 0 0 0 4.9 4h24a5.006 5.006 0 0 0 5-5v-46a5.006 5.006 0 0 0 -5-5zm-18 2h12v2h-12zm-26-4h12v2h-12zm47 53a3 3 0 0 1 -3 3h-24a3 3 0 0 1 -3-3v-5h-2v4h-21a3 3 0 0 1 -3-3v-46a3 3 0 0 1 3-3h4v2a2 2 0 0 0 2 2h12a2 2 0 0 0 2-2v-2h4a3 3 0 0 1 2.816 2h-.816a5.006 5.006 0 0 0 -5 5v8h2v-8a3 3 0 0 1 3-3h4v2a2 2 0 0 0 2 2h12a2 2 0 0 0 2-2v-2h4a3 3 0 0 1 3 3z" fill="#FF760C"></path> <path d="m45.652 42.309a2.972 2.972 0 0 0 1.965-.864 3 3 0 0 0 0-4.242l-1.058-1.058.708-.707c.006-.006.008-.015.014-.021l2.811-2.811a1 1 0 0 0 0-1.414l-9.9-9.9a1 1 0 0 0 -1.414 0l-2.617 2.618-1.532.3-2.922-2.922a1 1 0 0 0 -.707-.288h-3.829l-2.535-2.535a1 1 0 0 0 -1.414 0l-9.9 9.9a1 1 0 0 0 0 1.414l7.2 7.2a2.974 2.974 0 0 0 2.545 4.269 2.955 2.955 0 0 0 2.828 2.83 2.952 2.952 0 0 0 2.829 2.822 2.994 2.994 0 0 0 5.1 1.964l1.063 1.063a2.988 2.988 0 0 0 5.106-1.966 2.953 2.953 0 0 0 2.828-2.829 2.955 2.955 0 0 0 2.829-2.827zm.55-2.278a1.02 1.02 0 0 1 -1.413 0l-1.414-1.414a1 1 0 1 1 1.414-1.417l1.411 1.417a1 1 0 0 1 0 1.414zm-6.717-16.617 8.486 8.486-1.414 1.414-8.485-8.486zm-15.556-2.828 1.414 1.414-8.485 8.485-1.415-1.414zm3.242 2.414h3.415l7.838 7.839a1 1 0 1 1 -1.414 1.414l-4.242-4.242a1 1 0 0 0 -1.414 0 3 3 0 0 1 -4.243 0l-1.411 1.414a4.972 4.972 0 0 0 1.231.886l-5.121 5.124-3.538-3.535zm4.529 24.74a.993.993 0 0 1 -.714-1.687l.014-.011 2.826-2.824-1.412-1.418-2.835 2.828-.009.011a1 1 0 0 1 -1.4-1.425l2.83-2.829-1.414-1.414-2.829 2.829a1.021 1.021 0 0 1 -1.414 0 1 1 0 0 1 0-1.414l2.828-2.828-1.414-1.414-2.828 2.828a1 1 0 0 1 -1.707-.707.991.991 0 0 1 .293-.707l6.685-6.689a4.982 4.982 0 0 0 2.793-.808l3.607 3.606a3 3 0 1 0 4.243-4.242l-3.51-3.51 8.815 8.816-.311.311a3.052 3.052 0 0 0 -2.873.746 2.968 2.968 0 0 0 -.864 1.967 2.954 2.954 0 0 0 -2.828 2.827 2.957 2.957 0 0 0 -2.831 2.857 2.923 2.923 0 0 0 -2.731 3.72l-.293.293a.993.993 0 0 1 -.717.288zm6.018.777a1 1 0 0 1 -1.415 0l-1.414-1.417a1 1 0 0 1 1.411-1.412l1.418 1.412a1 1 0 0 1 0 1.414zm2.828-2.829a1 1 0 0 1 -1.414 0l-1.414-1.414a1 1 0 1 1 1.414-1.415l1.414 1.414a1 1 0 0 1 0 1.415zm2.829-2.829a1 1 0 0 1 -1.415 0l-1.414-1.414a1 1 0 0 1 1.414-1.414l1.414 1.414a1 1 0 0 1 0 1.414z" fill="#FF760C"></path> <path d="m47.293 20.293 1.414 1.414 3-3a1 1 0 0 0 0-1.414l-3-3-1.414 1.414 1.293 1.293h-12.586v2h12.586z" fill="#FF760C"></path> <path d="m16.707 47.707-1.414-1.414-3 3a1 1 0 0 0 0 1.414l3 3 1.414-1.414-1.293-1.293h10.586v-2h-10.586z" fill="#FF760C"></path> <path d="m50 46h6v2h-6z" fill="#FF760C"></path> <path d="m46 46h2v2h-2z" fill="#FF760C"></path> <path d="m46 50h10v2h-10z" fill="#FF760C"></path> <path d="m46 54h10v2h-10z" fill="#FF760C"></path> <path d="m12 12h6v2h-6z" fill="#FF760C"></path> <path d="m8 12h2v2h-2z" fill="#FF760C"></path> <path d="m8 16h10v2h-10z" fill="#FF760C"></path> </g> </svg> 