<?xml version="1.0" encoding="UTF-8"?> <svg xmlns="http://www.w3.org/2000/svg" height="512px" viewBox="0 0 512.00139 512" width="512px"> <path d="m53.96875 384.074219c-3.546875.710937-6.433594 3.277343-7.550781 6.71875-1.117188 3.4375-.292969 7.210937 2.160156 9.871093l16.289063 17.648438-2.804688 23.851562c-.421875 3.59375 1.128906 7.132813 4.054688 9.257813 2.925781 2.125 6.773437 2.503906 10.058593.996094l21.816407-10.039063 21.820312 10.039063c1.332031.613281 2.757812.914062 4.175781.914062 2.078125 0 4.140625-.648437 5.878907-1.910156 2.925781-2.125 4.476562-5.664063 4.054687-9.257813l-2.804687-23.851562 16.289062-17.648438c2.453125-2.660156 3.277344-6.433593 2.164062-9.875-1.121093-3.4375-4.007812-6.007812-7.554687-6.714843l-23.550781-4.707031-11.753906-20.945313c-1.769532-3.152344-5.101563-5.105469-8.71875-5.105469-3.617188 0-6.953126 1.953125-8.722657 5.105469l-11.75 20.945313zm38.742188 9.09375 5.28125-9.410157 5.285156 9.414063c1.425781 2.542969 3.894531 4.339844 6.761718 4.910156l10.582032 2.117188-7.320313 7.929687c-1.976562 2.148438-2.921875 5.050782-2.582031 7.953125l1.261719 10.71875-9.808594-4.511719c-2.652344-1.21875-5.703125-1.21875-8.355469 0l-9.808594 4.511719 1.261719-10.71875c.339844-2.902343-.605469-5.804687-2.585937-7.949219l-7.320313-7.933593 10.585938-2.117188c2.863281-.570312 5.332031-2.367187 6.761719-4.914062zm0 0" fill="#FF760C"></path> <path d="m465.582031 96.136719c-1.117187-3.441407-4.003906-6.007813-7.550781-6.714844l-23.550781-4.707031-11.753907-20.945313c-1.769531-3.152343-5.101562-5.105469-8.71875-5.105469-3.617187 0-6.953124 1.953126-8.722656 5.105469l-11.75 20.945313-23.554687 4.707031c-3.546875.707031-6.433594 3.273437-7.550781 6.714844-1.117188 3.4375-.292969 7.214843 2.160156 9.875l16.289062 17.648437-2.804687 23.851563c-.421875 3.59375 1.128906 7.132812 4.054687 9.257812 2.925782 2.125 6.769532 2.503907 10.058594.996094l21.816406-10.039063 21.820313 10.039063c1.332031.613281 2.757812.914063 4.175781.914063 2.078125 0 4.144531-.644532 5.878906-1.910157 2.929688-2.125 4.476563-5.664062 4.054688-9.253906l-2.800782-23.855469 16.285157-17.648437c2.457031-2.660157 3.28125-6.4375 2.164062-9.875zm-36.265625 17.339843c-1.980468 2.144532-2.925781 5.046876-2.582031 7.949219l1.257813 10.71875-9.804688-4.511719c-1.328125-.609374-2.753906-.914062-4.179688-.914062-1.429687 0-2.855468.304688-4.179687.914062l-9.808594 4.511719 1.261719-10.722656c.339844-2.898437-.605469-5.804687-2.585938-7.949219l-7.316406-7.929687 10.585938-2.117188c2.859375-.570312 5.332031-2.367187 6.761718-4.914062l5.28125-9.414063 5.28125 9.414063c1.429688 2.546875 3.898438 4.34375 6.761719 4.914062l10.585938 2.117188zm0 0" fill="#FF760C"></path> <path d="m8.359375 301.300781 38.628906 6.433594c.558594.089844 1.109375.136719 1.652344.136719 4.800781 0 9.039063-3.46875 9.855469-8.359375.90625-5.449219-2.773438-10.601563-8.222656-11.507813l-38.628907-6.433594c-5.453125-.910156-10.601562 2.777344-11.507812 8.222657-.90625 5.449219 2.773437 10.601562 8.222656 11.507812zm0 0" fill="#FF760C"></path> <path d="m440.101562 369.09375c2.660157-4.351562 4.195313-9.46875 4.195313-14.933594 0-15.832031-12.878906-28.714844-28.714844-28.714844h-34.144531c-.074219 0-.148438.003907-.222656.003907h-19.414063c-2.996093 0-5.765625-1.359375-7.597656-3.730469-1.832031-2.367188-2.449219-5.386719-1.695313-8.28125l8.800782-33.847656c2.652344-10.195313.480468-20.824219-5.964844-29.160156-6.445312-8.339844-16.183594-13.121094-26.722656-13.121094h-2.601563c-3.75 0-7.183593 2.097656-8.894531 5.4375l-30.523438 59.480468c-4.117187 8.03125-10.027343 15.0625-17.140624 20.546876v-1.203126c0-5.523437-4.480469-10-10-10h-67.667969l-62.003907-10.324218c-5.453124-.910156-10.597656 2.773437-11.507812 8.222656-.90625 5.445312 2.773438 10.597656 8.222656 11.503906l54.460938 9.070313v161.953125h-170.960938c-5.523437 0-9.99999975 4.480468-9.99999975 10 0 5.523437 4.47656275 10 9.99999975 10h249.457032c5.523437 0 10-4.476563 10-10v-6.847656h96.28125c.105468.003906.210937.003906.316406.003906h34.144531c15.832031 0 28.714844-12.878906 28.714844-28.710938 0-4.582031-1.078125-8.914062-2.996094-12.761718 8.398437-5.015626 14.027344-14.195313 14.027344-24.664063 0-4.582031-1.078125-8.917969-2.992188-12.761719 8.394531-5.015625 14.027344-14.195312 14.027344-24.667968 0-9.101563-4.257813-17.226563-10.882813-22.492188zm-190.640624 122.902344h-48.496094v-160.425782h48.496094zm172.8125-91.695313h-11.035157c-5.523437 0-10 4.476563-10 10 0 5.523438 4.476563 10 10 10 4.804688 0 8.714844 3.910157 8.714844 8.714844s-3.910156 8.710937-8.714844 8.710937h-11.035156c-5.519531 0-10 4.476563-10 10 0 5.523438 4.480469 10 10 10 4.808594 0 8.714844 3.910157 8.714844 8.714844 0 4.800782-3.90625 8.710938-8.714844 8.710938h-33.828125c-.105469-.003906-.210938-.003906-.316406-.003906h-96.597656v-128.742188c14.914062-7.714844 27.265624-20.085938 34.9375-35.050781l27.527343-53.648438c2.992188.730469 5.660157 2.449219 7.597657 4.953125 2.625 3.398438 3.515624 7.734375 2.429687 11.894532l-8.796875 33.847656c-2.328125 8.933594-.421875 18.246094 5.226562 25.550781 5.648438 7.304687 14.183594 11.496094 23.421876 11.496094h19.636718.222656 33.921876c4.804687 0 8.714843 3.90625 8.714843 8.710937 0 4.804688-3.910156 8.714844-8.714843 8.714844-5.519532 0-10 4.476562-10 10 0 5.519531 4.480468 10 10 10h6.6875c4.804687 0 8.714843 3.90625 8.714843 8.710938 0 4.804687-3.910156 8.714843-8.714843 8.714843zm0 0" fill="#FF760C"></path> <path d="m503.640625 210.695312-172.605469-28.742187v-161.953125h170.964844c5.519531 0 10-4.476562 10-10s-4.480469-10-10-10h-249.460938c-5.519531 0-10 4.476562-10 10v6.847656h-96.28125c-.101562 0-.207031-.003906-.3125-.003906h-34.148437c-15.832031 0-28.710937 12.882812-28.710937 28.714844 0 4.578125 1.078124 8.914062 2.992187 12.757812-8.394531 5.019532-14.027344 14.195313-14.027344 24.667969 0 4.582031 1.078125 8.914063 2.992188 12.757813-8.394531 5.019531-14.027344 14.199218-14.027344 24.667968 0 9.101563 4.257813 17.230469 10.886719 22.492188-2.664063 4.355468-4.199219 9.46875-4.199219 14.933594 0 15.835937 12.882813 28.714843 28.714844 28.714843h34.144531c.074219 0 .148438 0 .222656-.003906h19.414063c2.996093 0 5.765625 1.359375 7.597656 3.730469 1.832031 2.367187 2.449219 5.386718 1.695313 8.285156l-8.800782 33.847656c-2.652344 10.195313-.480468 20.820313 5.964844 29.15625 6.445312 8.339844 16.1875 13.121094 26.722656 13.121094h2.601563c3.75 0 7.183593-2.097656 8.898437-5.433594l30.519532-59.484375c4.117187-8.03125 10.027343-15.058593 17.140624-20.546875v1.203125c0 5.523438 4.480469 10 10 10h67.667969l180.148438 30c.558593.09375 1.109375.136719 1.65625.136719 4.800781 0 9.039062-3.46875 9.851562-8.359375.90625-5.449219-2.773437-10.597656-8.222656-11.507813zm-261.101563-45.105468c-14.914062 7.71875-27.265624 20.085937-34.9375 35.050781l-27.527343 53.652344c-2.988281-.730469-5.65625-2.449219-7.597657-4.957031-2.625-3.398438-3.511718-7.734376-2.429687-11.894532l8.800781-33.847656c2.324219-8.933594.417969-18.246094-5.226562-25.550781-5.648438-7.304688-14.1875-11.496094-23.421875-11.496094h-19.636719c-.074219 0-.148438 0-.226562.003906h-33.917969c-4.804688 0-8.714844-3.910156-8.714844-8.714843 0-4.804688 3.910156-8.710938 8.714844-8.710938 5.519531 0 10-4.476562 10-10s-4.480469-10-10-10h-6.6875c-4.804688 0-8.714844-3.910156-8.714844-8.714844 0-4.804687 3.910156-8.710937 8.714844-8.710937h11.03125c5.523437 0 10-4.476563 10-10 0-5.523438-4.476563-10-10-10-4.804688 0-8.714844-3.910157-8.714844-8.714844s3.910156-8.714844 8.714844-8.714844h11.035156c5.519531 0 10-4.476562 10-10 0-5.519531-4.480469-10-10-10-4.804687 0-8.714844-3.90625-8.714844-8.710937 0-4.804688 3.910157-8.714844 8.714844-8.714844h33.832031c.101563.003906.207032.007812.3125.007812h96.597656zm20-145.589844h48.496094v160.425781h-48.496094zm0 0" fill="#FF760C"></path> <path d="m79.941406 310.828125c2.316406 3.539063 6.835938 5.207031 10.90625 4.109375 3.925782-1.058594 6.859375-4.480469 7.34375-8.511719.496094-4.148437-1.785156-8.269531-5.519531-10.109375-3.742187-1.84375-8.371094-1.121094-11.375 1.777344-3.425781 3.3125-3.992187 8.777344-1.355469 12.734375zm0 0" fill="#FF760C"></path> </svg> 