<?xml version="1.0" encoding="UTF-8"?> <svg xmlns="http://www.w3.org/2000/svg" id="Capa_1" height="512px" viewBox="0 0 512 512" width="512px"> <g> <g> <path d="m235.04 448.979c-4.172 0-7.988-2.699-9.402-6.615-1.383-3.83-.251-8.214 2.809-10.901 3.271-2.873 8.17-3.279 11.87-.98 3.512 2.182 5.36 6.476 4.51 10.524-.961 4.576-5.098 7.972-9.787 7.972z" fill="#FF760C"></path> <path d="m486.127 28.381h-291.585c-14.267 0-25.873 11.606-25.873 25.873v111.592h-142.796c-14.267 0-25.873 11.606-25.873 25.873v231.559c0 14.266 11.606 25.872 25.873 25.872h68.306l8.039 27.295c.922 3.13 3.313 5.613 6.406 6.653 1.041.35 2.116.521 3.186.521 2.11 0 4.195-.668 5.938-1.953l44.101-32.534 27.856-.153c5.522-.03 9.975-4.532 9.945-10.055-.03-5.505-4.501-9.945-9.999-9.945h-.056l-31.115.171c-2.118.012-4.178.695-5.882 1.953l-35.229 25.99-6.117-20.769c-1.253-4.254-5.158-7.175-9.593-7.175h-75.786c-3.238 0-5.873-2.634-5.873-5.872v-231.558c0-3.238 2.635-5.873 5.873-5.873h291.586c3.238 0 5.872 2.635 5.872 5.873v231.559c0 3.238-2.634 5.872-5.826 5.872l-37.397-.171h-.047c-5.501 0-9.974 4.447-9.999 9.954-.025 5.523 4.432 10.021 9.954 10.046l37.443.171c14.266 0 25.872-11.606 25.872-25.872v-111.593h6.846l44.076 32.517c1.742 1.285 3.827 1.953 5.938 1.953 1.069 0 2.146-.172 3.187-.521 3.093-1.04 5.483-3.523 6.405-6.653l8.039-27.295h68.306c14.267 0 25.873-11.606 25.873-25.873v-231.559c-.001-14.267-11.607-25.873-25.874-25.873zm5.873 257.431c0 3.238-2.635 5.873-5.873 5.873h-75.785c-4.435 0-8.34 2.921-9.593 7.175l-6.117 20.769-35.229-25.99c-1.719-1.269-3.8-1.953-5.937-1.953h-10.136v-62.899h100.713c5.522 0 10-4.478 10-10s-4.478-10-10-10h-100.712v-17.066c0-2.019-.233-3.986-.672-5.873h101.385c5.522 0 10-4.478 10-10s-4.478-10-10-10h-255.376v-111.594c0-3.238 2.635-5.873 5.873-5.873h291.585c3.238 0 5.873 2.635 5.873 5.873v231.558z" fill="#FF760C"></path> <path d="m444.044 83.995h-207.42c-5.523 0-10 4.478-10 10s4.477 10 10 10h207.42c5.522 0 10-4.478 10-10s-4.478-10-10-10z" fill="#FF760C"></path> <path d="m444.044 124.92h-207.42c-5.523 0-10 4.478-10 10s4.477 10 10 10h207.42c5.522 0 10-4.478 10-10s-4.478-10-10-10z" fill="#FF760C"></path> <path d="m294.313 395.086c1.672-3.446 1.229-7.546-1.144-10.555l-78.507-99.61c-1.896-2.405-4.791-3.81-7.854-3.81s-5.958 1.404-7.854 3.81l-37.904 48.092-25.902-34.054c-1.86-2.446-4.742-3.901-7.815-3.945-3.064-.052-5.996 1.326-7.926 3.719l-69.175 85.709c-2.419 2.997-2.902 7.117-1.241 10.593s5.17 5.688 9.022 5.688h227.301c3.833-.001 7.328-2.19 8.999-5.637zm-167.356-73.862 21.307 28.013-24.815 31.485h-44.512zm21.958 59.498 57.894-73.455 57.894 73.455z" fill="#FF760C"></path> <path d="m149.308 274.131c-19.241 0-34.894-15.653-34.894-34.894s15.653-34.895 34.894-34.895 34.895 15.653 34.895 34.895c-.001 19.241-15.655 34.894-34.895 34.894zm0-49.788c-8.212 0-14.894 6.682-14.894 14.895 0 8.212 6.682 14.894 14.894 14.894 8.213 0 14.895-6.682 14.895-14.894-.001-8.214-6.682-14.895-14.895-14.895z" fill="#FF760C"></path> </g> </g> </svg> 