<?xml version="1.0" encoding="UTF-8"?> <svg xmlns="http://www.w3.org/2000/svg" width="94" height="94" viewBox="0 0 94 94" fill="none"> <g filter="url(#filter0_d)"> <path d="M69 22C69 9.84974 59.1503 0 47 0C34.8497 0 25 9.84974 25 22C25 34.1503 34.8497 44 47 44C59.1503 44 69 34.1503 69 22Z" fill="white"></path> </g> <path d="M40 22.55C41.9766 20.9037 44.4676 20.0021 47.04 20.0021C49.6124 20.0021 52.1034 20.9037 54.08 22.55" stroke="#DFDFDF" stroke-width="2" stroke-linecap="round" stroke-linejoin="round"></path> <path d="M36.42 19C39.3424 16.424 43.1043 15.0027 47 15.0027C50.8957 15.0027 54.6576 16.424 57.58 19" stroke="#DFDFDF" stroke-width="2" stroke-linecap="round" stroke-linejoin="round"></path> <path d="M43.53 26.11C44.5452 25.3887 45.7597 25.0013 47.005 25.0013C48.2503 25.0013 49.4648 25.3887 50.48 26.11" stroke="#DFDFDF" stroke-width="2" stroke-linecap="round" stroke-linejoin="round"></path> <path d="M47 30H47.01" stroke="#DFDFDF" stroke-width="2" stroke-linecap="round" stroke-linejoin="round"></path> <defs> <filter id="filter0_d" x="0" y="0" width="94" height="94" filterUnits="userSpaceOnUse" color-interpolation-filters="sRGB"> <feFlood flood-opacity="0" result="BackgroundImageFix"></feFlood> <feColorMatrix in="SourceAlpha" type="matrix" values="0 0 0 0 0 0 0 0 0 0 0 0 0 0 0 0 0 0 127 0"></feColorMatrix> <feOffset dy="25"></feOffset> <feGaussianBlur stdDeviation="12.5"></feGaussianBlur> <feColorMatrix type="matrix" values="0 0 0 0 0.458333 0 0 0 0 0.458333 0 0 0 0 0.458333 0 0 0 0.1 0"></feColorMatrix> <feBlend mode="normal" in2="BackgroundImageFix" result="effect1_dropShadow"></feBlend> <feBlend mode="normal" in="SourceGraphic" in2="effect1_dropShadow" result="shape"></feBlend> </filter> </defs> </svg> 