<?xml version="1.0" encoding="UTF-8"?> <svg xmlns="http://www.w3.org/2000/svg" width="154" height="154" viewBox="0 0 154 154" fill="none"> <g filter="url(#filter0_d)"> <rect x="25" width="104" height="104" rx="52" fill="white"></rect> </g> <path d="M95.2477 59.6006C93.7097 57.3944 92.9412 54.9088 92.9412 52.146C92.9412 49.6276 93.6665 47.3204 95.1139 45.2258C95.894 44.0892 97.1646 42.7746 98.9253 41.2811C97.7666 39.8552 96.6078 38.7409 95.4481 37.9383C93.3533 36.4899 90.9795 35.7657 88.3277 35.7657C86.7457 35.7657 84.8174 36.1444 82.5447 36.9027C80.3606 37.6604 78.7668 38.0396 77.7644 38.0396C77.0063 38.0396 75.4688 37.7056 73.151 37.0366C70.811 36.3679 68.8385 36.0339 67.2339 36.0339C63.4006 36.0339 60.2359 37.6387 57.7399 40.8477C55.2216 44.1016 53.9622 48.269 53.9622 53.3505C53.9622 58.7438 55.6006 64.3484 58.8765 70.1653C62.1969 75.9375 65.5512 78.824 68.9387 78.824C70.0753 78.824 71.5463 78.445 73.3512 77.6873C75.1567 76.9524 76.739 76.5842 78.0986 76.5842C79.5468 76.5842 81.2297 76.9407 83.1462 77.6535C85.1741 78.366 86.7345 78.7227 87.8264 78.7227C90.6789 78.7227 93.5432 76.5385 96.4177 72.1705C98.2894 69.3848 99.6602 66.5991 100.529 63.8131C98.5458 63.2109 96.7855 61.8069 95.2477 59.6006Z" fill="#FF760C"></path> <path d="M83.8809 33.76C85.2853 32.356 86.3215 30.818 86.9903 29.1468C87.6363 27.4753 87.9588 25.9596 87.9588 24.6C87.9588 24.5111 87.954 24.3995 87.9419 24.2657C87.9318 24.132 87.9259 24.0208 87.9259 23.9316C87.9034 23.8646 87.8757 23.742 87.8425 23.5639C87.8092 23.3859 87.7815 23.2633 87.7587 23.1963C83.8363 24.1105 81.0506 25.7596 79.4013 28.1444C77.7303 30.5514 76.8607 33.4149 76.7937 36.7356C78.2869 36.6017 79.4453 36.4126 80.2703 36.1673C81.4747 35.7661 82.6767 34.9634 83.8809 33.76Z" fill="#FF760C"></path> <defs> <filter id="filter0_d" x="0" y="0" width="154" height="154" filterUnits="userSpaceOnUse" color-interpolation-filters="sRGB"> <feFlood flood-opacity="0" result="BackgroundImageFix"></feFlood> <feColorMatrix in="SourceAlpha" type="matrix" values="0 0 0 0 0 0 0 0 0 0 0 0 0 0 0 0 0 0 127 0"></feColorMatrix> <feOffset dy="25"></feOffset> <feGaussianBlur stdDeviation="12.5"></feGaussianBlur> <feColorMatrix type="matrix" values="0 0 0 0 0.458333 0 0 0 0 0.458333 0 0 0 0 0.458333 0 0 0 0.1 0"></feColorMatrix> <feBlend mode="normal" in2="BackgroundImageFix" result="effect1_dropShadow"></feBlend> <feBlend mode="normal" in="SourceGraphic" in2="effect1_dropShadow" result="shape"></feBlend> </filter> </defs> </svg> 