<?xml version="1.0" encoding="UTF-8"?> <svg xmlns="http://www.w3.org/2000/svg" width="227" height="227" viewBox="0 0 227 227" fill="none"> <circle cx="113.358" cy="113.673" r="112.753" fill="#FF760C"></circle> <g clip-path="url(#clip0)"> <path d="M104.251 122.78C94.1334 112.662 91.8489 102.545 91.3335 98.4909C91.1895 97.3701 91.5752 96.2461 92.3771 95.4498L100.565 87.2659C101.769 86.0622 101.983 84.1864 101.08 82.7426L88.0439 62.5003C87.0451 60.9016 84.9944 60.3246 83.3086 61.168L62.3809 71.0241C61.0176 71.6954 60.2158 73.1439 60.3706 74.6555C61.4671 85.0728 66.0087 110.681 91.1745 135.849C116.34 161.016 141.945 165.556 152.368 166.653C153.879 166.807 155.328 166.006 155.999 164.642L165.855 143.715C166.695 142.032 166.122 139.987 164.53 138.987L144.288 125.954C142.845 125.05 140.969 125.263 139.765 126.466L131.581 134.653C130.784 135.455 129.66 135.841 128.54 135.697C124.486 135.182 114.368 132.897 104.251 122.78V122.78Z" fill="white"></path> <path d="M144.427 117.328C142.408 117.328 140.772 115.691 140.772 113.673C140.754 98.5396 128.491 86.2761 113.358 86.259C111.339 86.259 109.703 84.6225 109.703 82.6038C109.703 80.5851 111.339 78.9486 113.358 78.9486C132.527 78.9698 148.061 94.5039 148.082 113.673C148.082 115.691 146.445 117.328 144.427 117.328Z" fill="white"></path> <path d="M162.703 117.328C160.684 117.328 159.047 115.691 159.047 113.673C159.019 88.4507 138.58 68.0113 113.358 67.9831C111.339 67.9831 109.703 66.3466 109.703 64.3279C109.703 62.3092 111.339 60.6727 113.358 60.6727C142.616 60.705 166.326 84.415 166.358 113.673C166.358 114.642 165.973 115.572 165.287 116.257C164.602 116.943 163.672 117.328 162.703 117.328Z" fill="white"></path> </g> <defs> <clipPath id="clip0"> <rect width="106" height="106" fill="white" transform="translate(60.3579 60.6727)"></rect> </clipPath> </defs> </svg> 