<?xml version="1.0" encoding="UTF-8"?> <svg xmlns="http://www.w3.org/2000/svg" width="1090" height="824" viewBox="0 0 1090 824" fill="none"> <g clip-path="url(#clip0)"> <path d="M933.737 446.067C933.737 572.577 859.567 684.497 745.867 752.627C672.967 796.317 583.807 822.007 487.537 822.007C359.287 822.007 261.457 773.537 187.867 699.287C120.037 630.867 72.8066 540.537 41.3366 446.067C-99.1534 24.2768 135.537 -90.7931 487.537 70.1269C711.657 172.597 933.737 238.447 933.737 446.067Z" fill="#FF760C"></path> <path d="M745.867 225.257V753.627C672.967 797.317 583.807 823.007 487.537 823.007C359.287 823.007 261.457 774.537 187.867 700.287V225.257H745.867Z" fill="#F2F2F2"></path> <path d="M241.537 482.709C270.753 473.416 301.066 468.011 331.693 466.636C347.04 465.983 362.415 466.584 377.664 468.434C392.765 470.431 407.684 473.626 422.28 477.986C436.7 482.161 450.922 486.985 465.294 491.32C479.894 495.778 494.736 499.4 509.749 502.168C524.684 504.87 539.768 506.668 554.919 507.551C569.922 508.423 585.072 508.594 600.033 506.995C614.008 505.65 627.695 502.18 640.623 496.706C652.68 491.444 663.823 484.297 673.634 475.533C676.082 473.347 678.437 471.066 680.7 468.687C682.035 467.292 679.916 465.168 678.579 466.566C659.454 486.558 634.317 498.954 607.052 503.094C592.199 505.349 577.062 505.48 562.078 504.898C546.759 504.307 531.491 502.764 516.363 500.279C501.418 497.801 486.634 494.435 472.088 490.201C457.8 486.062 443.707 481.29 429.469 476.987C415.106 472.476 400.444 468.983 385.59 466.532C370.695 464.264 355.638 463.218 340.572 463.408C310.466 463.889 280.553 468.319 251.599 476.583C247.963 477.604 244.343 478.682 240.74 479.816C238.904 480.392 239.688 483.289 241.537 482.709H241.537Z" fill="#3F3D56"></path> <path d="M241.537 558.708C270.753 549.415 301.066 544.011 331.693 542.635C347.04 541.983 362.415 542.584 377.664 544.434C392.765 546.431 407.684 549.625 422.28 553.986C436.7 558.161 450.922 562.985 465.294 567.319C479.894 571.778 494.736 575.4 509.749 578.167C524.684 580.87 539.768 582.668 554.919 583.551C569.922 584.423 585.072 584.593 600.033 582.995C614.008 581.649 627.695 578.18 640.623 572.706C652.68 567.444 663.823 560.297 673.634 551.532C676.082 549.347 678.437 547.065 680.7 544.687C682.035 543.292 679.916 541.167 678.579 542.566C659.454 562.558 634.317 574.954 607.052 579.094C592.199 581.349 577.062 581.479 562.078 580.898C546.759 580.307 531.491 578.764 516.363 576.279C501.418 573.8 486.634 570.435 472.088 566.201C457.8 562.062 443.707 557.289 429.469 552.986C415.106 548.476 400.444 544.983 385.59 542.532C370.695 540.263 355.638 539.218 340.572 539.408C310.466 539.889 280.553 544.319 251.599 552.583C247.963 553.604 244.343 554.682 240.74 555.816C238.904 556.391 239.688 559.288 241.537 558.708H241.537Z" fill="#3F3D56"></path> <path d="M241.537 413.709C270.753 404.416 301.066 399.011 331.693 397.636C347.04 396.983 362.415 397.584 377.664 399.434C392.765 401.431 407.684 404.626 422.28 408.986C436.7 413.161 450.922 417.985 465.294 422.32C479.894 426.778 494.736 430.4 509.749 433.168C524.684 435.87 539.768 437.668 554.919 438.551C569.922 439.423 585.072 439.594 600.033 437.995C614.008 436.65 627.695 433.18 640.623 427.706C652.68 422.444 663.823 415.297 673.634 406.533C676.082 404.347 678.437 402.066 680.7 399.687C682.035 398.292 679.916 396.168 678.579 397.566C659.454 417.558 634.317 429.954 607.052 434.094C592.199 436.349 577.062 436.48 562.078 435.898C546.759 435.307 531.491 433.764 516.363 431.279C501.418 428.801 486.634 425.436 472.088 421.201C457.8 417.062 443.707 412.29 429.469 407.987C415.106 403.476 400.444 399.983 385.59 397.532C370.695 395.264 355.638 394.218 340.572 394.408C310.466 394.889 280.553 399.319 251.599 407.583C247.963 408.604 244.343 409.682 240.74 410.816C238.904 411.392 239.688 414.289 241.537 413.709H241.537Z" fill="#3F3D56"></path> <path d="M237.963 283.25C245.221 280.034 253.536 280.595 261.069 282.459C269.191 284.47 276.84 287.966 284.836 290.383C299.148 294.648 314.35 294.936 328.813 291.217C336.956 289.14 344.726 285.81 351.845 281.346C353.476 280.321 351.972 277.724 350.331 278.755C337.641 286.679 322.972 290.861 308.012 290.82C300.508 290.809 293.046 289.71 285.858 287.558C277.921 285.178 270.333 281.723 262.293 279.673C253.773 277.502 244.638 277.031 236.449 280.659C234.687 281.44 236.212 284.025 237.963 283.25V283.25Z" fill="#3F3D56"></path> <path d="M460.867 743.257C486.272 743.257 506.867 722.662 506.867 697.257C506.867 671.852 486.272 651.257 460.867 651.257C435.462 651.257 414.867 671.852 414.867 697.257C414.867 722.662 435.462 743.257 460.867 743.257Z" fill="#3F3D56"></path> <path d="M212.867 131.257C226.674 131.257 237.867 120.064 237.867 106.257C237.867 92.4497 226.674 81.2568 212.867 81.2568C199.059 81.2568 187.867 92.4497 187.867 106.257C187.867 120.064 199.059 131.257 212.867 131.257Z" fill="#F2F2F2"></path> <path d="M431.867 194.257C441.256 194.257 448.867 186.646 448.867 177.257C448.867 167.868 441.256 160.257 431.867 160.257C422.478 160.257 414.867 167.868 414.867 177.257C414.867 186.646 422.478 194.257 431.867 194.257Z" fill="#F2F2F2"></path> <path d="M155.867 357.257C165.255 357.257 172.867 349.646 172.867 340.257C172.867 330.868 165.255 323.257 155.867 323.257C146.478 323.257 138.867 330.868 138.867 340.257C138.867 349.646 146.478 357.257 155.867 357.257Z" fill="#F2F2F2"></path> <path d="M87.4217 213.964H85.547V549.209H87.4217V213.964Z" fill="#3F3D56"></path> <path d="M86.8459 520.479C107.036 520.479 123.403 483.128 123.403 437.054C123.403 390.98 107.036 353.63 86.8459 353.63C66.6562 353.63 50.2892 390.98 50.2892 437.054C50.2892 483.128 66.6562 520.479 86.8459 520.479Z" fill="#3F3D56"></path> <path d="M86.8459 330.196C107.036 330.196 123.403 292.846 123.403 246.772C123.403 200.698 107.036 163.347 86.8459 163.347C66.6562 163.347 50.2892 200.698 50.2892 246.772C50.2892 292.846 66.6562 330.196 86.8459 330.196Z" fill="#3F3D56"></path> <path d="M87.7439 178.614L85.9479 178.076C86.0614 177.697 97.0826 139.929 78.9859 115.615C68.7648 101.884 51.2256 94.9209 26.8553 94.9209V93.0461C51.8544 93.0461 69.9012 100.265 80.4949 114.503C99.1519 139.579 87.8602 178.227 87.7439 178.614Z" fill="#3F3D56"></path> <path d="M26.8554 117.417C39.7976 117.417 50.2892 106.925 50.2892 93.9834C50.2892 81.0412 39.7976 70.5496 26.8554 70.5496C13.9133 70.5496 3.42163 81.0412 3.42163 93.9834C3.42163 106.925 13.9133 117.417 26.8554 117.417Z" fill="#3F3D56"></path> <path d="M770.74 625.177L753.207 786.477H874.182L879.441 774.204L886.454 786.477H1000.42C1000.42 786.477 991.649 619.918 975.87 614.658C960.091 609.398 770.74 625.177 770.74 625.177Z" fill="#2F2E41"></path> <path d="M874.182 271.021C908.072 271.021 935.545 243.547 935.545 209.657C935.545 175.767 908.072 148.293 874.182 148.293C840.291 148.293 812.818 175.767 812.818 209.657C812.818 243.547 840.291 271.021 874.182 271.021Z" fill="#FFB8B8"></path> <path d="M839.117 248.229C839.117 248.229 844.376 304.333 839.117 307.839C833.857 311.346 923.273 309.592 923.273 309.592C923.273 309.592 911 258.748 923.273 234.203L839.117 248.229Z" fill="#FFB8B8"></path> <path d="M870.675 295.566C870.675 295.566 915.788 302.593 919.531 288.56L942.558 320.112L944.312 635.697C944.312 635.697 756.714 658.489 749.701 621.671C742.688 584.853 821.584 293.813 821.584 293.813L841.446 292.527C841.446 292.527 867.169 295.566 870.675 295.566Z" fill="#D0CDE1"></path> <path d="M841.148 278.129L811.065 288.553L725.155 309.592L728.662 519.982C728.662 519.982 655.025 730.373 688.337 746.152C721.649 761.931 768.987 725.113 783.013 698.814C797.039 672.515 846.13 307.839 846.13 300.826C846.13 293.813 841.148 278.129 841.148 278.129Z" fill="#3F3D56"></path> <path d="M918.404 278.129L930.286 288.553L1014.44 327.125L972.364 539.268C972.364 539.268 1028.47 732.126 1007.43 742.645C986.39 753.165 954.831 782.97 947.818 765.438C940.805 747.905 899.509 297.51 918.404 278.129Z" fill="#3F3D56"></path> <path d="M967.104 558.554C967.104 558.554 888.208 525.242 886.454 555.047C884.701 584.853 975.87 605.892 975.87 597.125C975.87 588.359 967.104 558.554 967.104 558.554Z" fill="#FFB8B8"></path> <path d="M774.246 546.281C774.246 546.281 865.415 614.658 830.35 632.191C795.285 649.723 749.701 570.827 749.701 570.827L774.246 546.281Z" fill="#FFB8B8"></path> <path d="M901.425 119.769C901.713 119.158 902.177 118.648 902.757 118.304C903.338 117.96 904.008 117.797 904.681 117.836C876.588 116.155 846.997 119.43 823.494 134.911C816.911 139.247 810.765 144.549 803.271 146.992L809.354 151.762L802.086 153.978L812.781 160.89C811.701 162.118 810.316 163.039 808.765 163.558C807.215 164.077 805.554 164.178 803.953 163.848C808.601 165.206 812.023 169.342 813.761 173.862C815.5 178.382 815.812 183.304 816.106 188.138C817.902 181.164 825.514 177.058 832.703 176.641C839.893 176.224 846.905 178.596 853.903 180.302C869.143 184.005 884.971 184.614 900.451 182.092C895.194 192.641 899.628 205.223 904.09 216.132L912.999 237.913C917.946 238.411 921.442 233.492 925.168 230.202C928.565 227.203 915.043 253.578 917.136 252.612C919.856 251.356 948.558 219.668 949.902 216.991C956.034 204.777 959.713 191.153 959.16 177.497C958.606 163.841 953.61 150.179 944.197 140.27C937.806 133.543 928.965 132.364 922.451 126.773C919.887 124.573 919.877 122.854 916.354 121.571C915.183 121.144 901.618 119.339 901.425 119.769Z" fill="#2F2E41"></path> <path d="M737.428 314.852L725.155 309.592L626.973 470.891C626.973 470.891 609.441 512.969 640.999 532.255C672.558 551.541 746.194 609.398 746.194 609.398L788.272 544.528C788.272 544.528 702.363 504.203 707.623 488.424C712.883 472.645 740.935 430.567 740.935 430.567L737.428 314.852Z" fill="#3F3D56"></path> <path d="M991.649 323.618L1014.44 327.125C1014.44 327.125 1109.12 512.969 1086.32 548.034C1063.53 583.099 970.61 632.19 970.61 632.19C970.61 632.19 968.857 574.333 953.078 553.294L1007.43 532.255L977.623 416.541L991.649 323.618Z" fill="#3F3D56"></path> </g> <defs> <clipPath id="clip0"> <rect width="1089.87" height="822.507" fill="white" transform="translate(0 0.500244)"></rect> </clipPath> </defs> </svg> 