<?xml version="1.0" encoding="UTF-8"?> <svg xmlns="http://www.w3.org/2000/svg" width="998" height="512" viewBox="0 0 998 512" fill="none"> <g clip-path="url(#clip0)"> <path d="M497.17 126.528L497.144 126.702L497.073 127.205L489.746 179.783L444.882 196.244L444.179 195.908L419.061 183.979L406.073 134.145L405.183 130.724L405.454 130.62L461.02 109.744L497.137 126.508L497.17 126.528Z" fill="#FF760C"></path> <path d="M444.179 195.908L419.061 183.979L405.183 130.724L405.454 130.62L441.655 145.893L444.179 195.908Z" fill="#FF760C"></path> <path opacity="0.2" d="M444.809 195.3L425.703 158.686L428.157 148.306L416.6 134.697L415.616 135.533L426.75 148.644L418.433 183.83L419.69 184.128L425.249 160.607L443.664 195.897L444.809 195.3Z" fill="black"></path> <path d="M497.17 127.173L497.073 127.205L441.655 146.539L406.073 134.145L405.183 130.724L405.454 130.62L461.02 109.744L497.137 126.508L497.144 126.702L497.17 127.173Z" fill="#3F3D56"></path> <path d="M442.623 147.507L431.326 138.793L433.908 129.11L466.184 117.49L488.132 118.781L496.847 126.205L497.492 128.141L442.623 147.507Z" fill="#FF760C"></path> <path d="M405.828 130.724L431.326 129.755L445.139 125.067L466.675 117.49L470.703 111.681L460.653 109.882L405.828 130.724Z" fill="#FF760C"></path> <path d="M456.629 120.337L443.334 125.002L443.761 126.22L457.056 121.554L456.629 120.337Z" fill="#CCCCCC"></path> <path d="M281.512 44.8442L275.279 76.0072L304.365 97.8222L317.87 57.3092L281.512 44.8442Z" fill="#9F616A"></path> <path d="M304.885 73.4107C320.375 73.4107 332.932 60.8535 332.932 45.3635C332.932 29.8734 320.375 17.3162 304.885 17.3162C289.395 17.3162 276.837 29.8734 276.837 45.3635C276.837 60.8535 289.395 73.4107 304.885 73.4107Z" fill="#9F616A"></path> <path d="M244.116 257.873C244.244 266.922 283.655 367.631 278.183 380.744C269.557 389.562 251.003 436.492 243.076 449.011C242.038 449.01 236.844 464.592 236.844 464.592C236.844 464.592 249.31 484.329 262.814 476.019C279.794 436.082 322.32 413.808 323.071 361.756C325.124 378.199 331.183 483.744 331.183 483.744C331.183 483.744 330.02 484.238 356.183 486.744C360.244 425.487 376.843 321.269 339.683 255.795C328.258 250.602 244.116 257.873 244.116 257.873Z" fill="#2F2E41"></path> <path d="M331.181 481.69C329.966 484.025 321.257 505.583 329.183 507.744C338.323 510.237 347.183 506.744 347.183 506.744C347.183 506.744 363.183 511.744 372.974 505.39C377.544 500.82 376.506 496.665 374.325 493.653C373.217 492.169 371.798 490.945 370.168 490.066C368.537 489.188 366.735 488.675 364.886 488.566C359.917 488.211 358.339 487.29 357.77 485.014C356.939 481.69 331.181 481.69 331.181 481.69Z" fill="#2F2E41"></path> <path d="M245.708 462.865C245.708 462.865 223.381 469.915 228.082 478.141C231.134 483.239 235.592 487.349 240.92 489.98C240.92 489.98 245.576 509.176 258.502 509.176C264.965 509.176 267.168 505.504 267.756 501.832C268.022 499.999 267.884 498.13 267.352 496.356C266.821 494.582 265.909 492.945 264.679 491.56C261.416 487.796 260.952 486.029 262.159 484.016C263.922 481.079 245.708 462.865 245.708 462.865Z" fill="#2F2E41"></path> <path d="M344.883 260.914C344.883 260.914 340.723 269.224 324.103 266.104C307.483 262.994 242.043 266.104 242.043 266.104C242.043 266.104 245.673 191.834 237.363 147.164C229.053 102.494 261.773 77.0443 261.773 77.0443L272.163 66.6543C282.553 65.6243 304.493 97.8643 304.493 97.8643C311.713 99.0743 318.453 129.764 324.203 158.804C324.543 160.464 324.863 162.104 325.183 163.744C327.833 177.284 331.523 192.354 333.733 205.884C333.893 206.844 334.043 207.794 334.183 208.744C336.81 226.314 340.382 243.729 344.883 260.914V260.914Z" fill="#E6E6E6"></path> <path d="M272.073 27.8995C272.073 27.8995 266.829 16.363 280.463 11.1191C280.463 11.1191 292 -7.75889 315.073 4.82646C315.073 4.82646 330.805 11.1191 330.805 27.8995C330.805 44.68 336.048 47.8263 336.048 47.8263C336.048 47.8263 328.239 39.8149 326.142 33.5223C324.044 27.2297 307.731 25.802 301.439 32.0947C295.146 38.3873 279.415 37.3385 279.415 37.3385L280.463 60.4116C280.463 60.4116 275.219 46.7775 273.122 46.7775C271.024 46.7775 268.927 27.8995 272.073 27.8995Z" fill="#2F2E41"></path> <path opacity="0.2" d="M333.733 205.884C308.953 192.414 268.813 162.874 255.863 146.894C238.793 125.844 257.413 109.844 257.413 109.844C278.523 96.5243 303.763 142.224 303.763 142.224L324.203 158.804C324.543 160.464 324.863 162.104 325.183 163.744C327.833 177.284 331.523 192.354 333.733 205.884Z" fill="black"></path> <path d="M407.706 190.362C407.706 190.362 444.546 205.317 450.61 188.505C456.673 171.693 421.524 171.982 421.524 171.982L407.725 173.937L407.706 190.362Z" fill="#9F616A"></path> <path d="M252.691 103.003C252.691 103.003 234.08 119.012 251.137 140.055C268.195 161.098 346.588 206.06 346.588 206.06L397.652 192.255L412.103 194.9L414.827 167.769L393.539 169.848L339.497 158.341L305.037 130.38C305.037 130.38 273.795 89.6902 252.691 103.003Z" fill="#E6E6E6"></path> <path opacity="0.2" d="M320.49 295.862L323.746 371.943L315.49 295.862H320.49Z" fill="black"></path> <path d="M672.026 241.439L642.467 248.288C640.181 248.818 637.778 248.435 635.769 247.221C633.76 246.008 632.303 244.058 631.709 241.788V241.788C631.364 240.471 631.322 239.093 631.585 237.758C631.849 236.422 632.411 235.164 633.23 234.077C634.049 232.99 635.104 232.102 636.315 231.481C637.526 230.859 638.862 230.52 640.222 230.488L668.773 229.824L672.026 241.439Z" fill="#FFB9B9"></path> <path d="M668.887 245.777L662.323 226.083L701.678 212.64L691.233 120.654C710.039 124.074 718.989 138.862 718.151 157.958L723.243 220.727L668.887 245.777Z" fill="#3F3D56"></path> <path d="M696.079 100.374H760.377V68.3985C760.4 59.7628 757.016 51.4664 750.96 45.31C748.002 42.277 744.467 39.8677 740.562 38.2247C736.657 36.5818 732.462 35.7384 728.226 35.7444C719.766 35.76 711.651 39.1048 705.638 45.0555C699.624 51.0062 696.194 59.0848 696.089 67.5444C696.084 67.8372 696.079 68.1154 696.079 68.3985L696.079 100.374Z" fill="#2F2E41"></path> <path d="M787.262 476.13L766.708 473.772L742.111 307.658L691.233 474.446L668.995 475.12L694.265 269.921L690.559 223.085L753.568 203.206C798.194 234.359 797.271 344.393 787.262 476.13Z" fill="#2F2E41"></path> <path d="M722.569 94.0356C735.967 94.0356 746.829 83.174 746.829 69.7756C746.829 56.3772 735.967 45.5156 722.569 45.5156C709.17 45.5156 698.309 56.3772 698.309 69.7756C698.309 83.174 709.17 94.0356 722.569 94.0356Z" fill="#FFB9B9"></path> <path d="M746.829 113.578L705.721 124.361C712.647 111.042 714.864 98.6081 711.113 87.2968L740.09 82.5796C738.227 93.3955 740.644 104.512 746.829 113.578V113.578Z" fill="#FFB9B9"></path> <path d="M760.643 212.303C737.587 226.966 710.73 243.81 690.896 227.466L681.462 181.641C673.963 174.962 677.288 154.353 687.425 124.977C688.069 123.112 689.129 121.419 690.525 120.025C691.92 118.63 693.615 117.572 695.48 116.93L711.113 111.557C718.041 117.383 729.397 113.908 742.785 106.166L758.285 110.209L765.024 160.751C755.296 175.325 756.995 194.732 760.643 212.303Z" fill="#3F3D56"></path> <path d="M741.436 232.004L711.878 238.853C709.591 239.383 707.188 239 705.179 237.787C703.171 236.573 701.714 234.624 701.119 232.353C700.774 231.036 700.732 229.659 700.996 228.323C701.259 226.988 701.821 225.729 702.64 224.642C703.46 223.555 704.514 222.668 705.725 222.046C706.936 221.425 708.272 221.085 709.633 221.054L738.184 220.39L741.436 232.004Z" fill="#FFB9B9"></path> <path d="M783.689 507.889C780.237 509.464 777.346 499.7 774.434 502.562C766.289 510.566 746.751 508.771 746.751 508.771C746.095 508.56 745.488 508.219 744.968 507.767C744.448 507.314 744.025 506.761 743.725 506.141C743.425 505.521 743.254 504.846 743.223 504.158C743.191 503.469 743.3 502.782 743.542 502.137V502.137C743.831 501.364 744.304 500.674 744.919 500.125C745.534 499.576 746.274 499.185 747.074 498.985L755.736 496.819L769.336 472.901L784.158 471.025L784.533 471.638C787.398 476.256 789.246 481.432 789.952 486.821C790.658 492.21 790.207 497.687 788.628 502.888C787.396 506.837 785.718 506.963 783.689 507.889Z" fill="#2F2E41"></path> <path d="M685.976 507.889C682.524 509.464 679.632 499.7 676.72 502.562C668.576 510.566 649.037 508.771 649.037 508.771C648.381 508.56 647.774 508.219 647.254 507.767C646.734 507.314 646.312 506.761 646.012 506.141C645.712 505.521 645.541 504.846 645.509 504.158C645.477 503.469 645.586 502.782 645.828 502.137V502.137C646.117 501.364 646.59 500.674 647.205 500.125C647.821 499.576 648.56 499.185 649.36 498.985L658.022 496.819L671.623 472.901L686.445 471.025L686.819 471.638C689.684 476.256 691.532 481.432 692.238 486.821C692.944 492.21 692.493 497.687 690.914 502.888C689.682 506.837 688.004 506.963 685.976 507.889Z" fill="#2F2E41"></path> <path d="M751.009 49.5407L744.899 68.9804L692.073 68.0415C692.253 61.2401 694.554 54.6649 698.653 49.2344C702.752 43.804 708.445 39.7895 714.936 37.7517C721.428 35.7139 728.394 35.7547 734.861 37.8683C741.328 39.9819 746.974 44.0627 751.009 49.5407H751.009Z" fill="#2F2E41"></path> <path d="M738.298 236.342L731.733 216.648L771.089 203.206L756.202 109.227C765.296 110.88 773.483 115.772 779.248 122.996C785.014 130.221 787.967 139.29 787.562 148.524L792.653 211.292L738.298 236.342Z" fill="#3F3D56"></path> <path d="M644.299 183.248L603.366 192.051L595.003 151.778L610.408 131.091L624.272 128.45L639.677 144.075L644.299 183.248Z" fill="#CCCCCC"></path> <path d="M625.373 185.004H600.723L597.363 168.414L593.683 150.234L599.183 142.314L609.753 145.614L621.193 161.464L624.063 177.614L624.263 178.764L625.373 185.004Z" fill="#E6E6E6"></path> <path d="M666.746 175.325L638.357 178.626L643.419 142.535L654.862 132.191L664.765 134.612L671.368 149.797L666.746 175.325Z" fill="#CCCCCC"></path> <path d="M670.483 153.974L667.843 168.504L659.263 218.014L626.253 228.584L625.113 227.964L607.323 218.234L597.313 168.394L597.363 168.414L623.833 179.064L624.063 177.614L624.223 176.564L626.253 163.664L635.273 153.974L665.423 146.714L670.483 153.974Z" fill="#E6E6E6"></path> <path d="M649.581 152.438C653.47 152.438 656.623 149.285 656.623 145.396C656.623 141.506 653.47 138.354 649.581 138.354C645.691 138.354 642.538 141.506 642.538 145.396C642.538 149.285 645.691 152.438 649.581 152.438Z" fill="#E6E6E6"></path> <path d="M632.266 149.03L616.201 151.891L616.279 152.324L632.344 149.464L632.266 149.03Z" fill="white"></path> <path d="M625.113 227.964L607.323 218.234L597.313 168.394L597.363 168.414L593.683 150.234L599.183 142.314L609.753 145.614L621.193 161.464L624.063 177.614L624.223 176.564L624.263 178.764L624.373 185.004L625.113 227.964Z" fill="#F2F2F2"></path> <path d="M607.54 218.296L607.114 218.182L615.889 185.276L605.841 172.029L606.192 171.763L616.37 185.181L607.54 218.296Z" fill="#CCCCCC"></path> <path d="M612.494 199.51L612.098 199.701L626.055 228.678L626.451 228.487L612.494 199.51Z" fill="#CCCCCC"></path> <path opacity="0.2" d="M668.751 165.489L667.098 174.619L667.015 174.628L659.616 217.313L626.605 227.877L626.407 227.971L626.275 227.696L607.679 217.533L607.466 217.476L607.58 217.045L597.666 167.687L597.717 167.707L596.618 162.289L597.439 161.107L599.977 157.454L610.54 160.755L621.984 176.6L622.151 177.542L623.353 184.303L623.835 187.018L624.854 192.755L625.822 186.591L626.17 184.373L627.046 178.801L636.068 169.118L640.08 168.152L642.873 167.478L646.715 166.554C645.524 165.83 644.574 164.768 643.986 163.503C643.399 162.238 643.2 160.828 643.415 159.45C643.63 158.072 644.249 156.789 645.194 155.763C646.139 154.738 647.368 154.016 648.723 153.689C650.079 153.363 651.501 153.446 652.81 153.928C654.118 154.411 655.254 155.271 656.073 156.4C656.892 157.529 657.357 158.875 657.41 160.269C657.463 161.662 657.101 163.04 656.37 164.228L666.218 161.855L668.645 165.339L668.751 165.489Z" fill="black"></path> <path d="M626.165 202.348H601.517L594.475 167.577L599.977 159.654L610.54 162.955L621.984 178.8L626.165 202.348Z" fill="#E6E6E6"></path> <path d="M660.056 235.359L627.045 245.922L608.119 235.579L598.106 185.733L624.625 196.406L627.045 181.001L636.068 171.318L666.218 164.056L671.28 171.318L668.639 185.843L660.056 235.359Z" fill="#E6E6E6"></path> <path d="M650.373 169.778C654.262 169.778 657.415 166.625 657.415 162.736C657.415 158.846 654.262 155.693 650.373 155.693C646.484 155.693 643.331 158.846 643.331 162.736C643.331 166.625 646.484 169.778 650.373 169.778Z" fill="#E6E6E6"></path> <path d="M625.923 244.964L608.133 235.234L598.123 185.394L598.173 185.414L594.493 167.234L599.993 159.314L610.563 162.614L622.003 178.464L624.873 194.614L625.033 193.564L625.073 195.764L625.183 202.004L625.923 244.964Z" fill="#F2F2F2"></path> <path d="M608.332 235.635L607.907 235.522L616.682 202.615L606.633 189.368L606.984 189.102L617.163 202.521L608.332 235.635Z" fill="#CCCCCC"></path> <path d="M613.287 216.85L612.89 217.041L626.847 246.018L627.244 245.827L613.287 216.85Z" fill="#CCCCCC"></path> <path d="M902.299 465.594L861.366 474.397L853.003 434.124L868.408 413.437L882.272 410.796L897.677 426.421L902.299 465.594Z" fill="#CCCCCC"></path> <path d="M883.373 467.35H858.723L855.363 450.76L851.683 432.58L857.183 424.66L867.753 427.96L879.193 443.81L882.063 459.96L882.263 461.11L883.373 467.35Z" fill="#E6E6E6"></path> <path d="M924.746 457.671L896.357 460.973L901.419 424.881L912.862 414.538L922.765 416.958L929.368 432.143L924.746 457.671Z" fill="#CCCCCC"></path> <path d="M928.483 436.32L925.843 450.85L917.263 500.36L884.253 510.93L883.113 510.31L865.323 500.58L855.313 450.74L855.363 450.76L881.833 461.41L882.063 459.96L882.223 458.91L884.253 446.01L893.273 436.32L923.423 429.06L928.483 436.32Z" fill="#E6E6E6"></path> <path d="M907.581 434.784C911.47 434.784 914.623 431.631 914.623 427.742C914.623 423.853 911.47 420.7 907.581 420.7C903.691 420.7 900.538 423.853 900.538 427.742C900.538 431.631 903.691 434.784 907.581 434.784Z" fill="#E6E6E6"></path> <path d="M890.266 431.377L874.201 434.238L874.279 434.671L890.344 431.81L890.266 431.377Z" fill="white"></path> <path d="M883.113 510.31L865.323 500.58L855.313 450.74L855.363 450.76L851.683 432.58L857.183 424.66L867.753 427.96L879.193 443.81L882.063 459.96L882.223 458.91L882.263 461.11L882.373 467.35L883.113 510.31Z" fill="#F2F2F2"></path> <path d="M865.54 500.642L865.114 500.529L873.889 467.622L863.841 454.375L864.192 454.109L874.37 467.527L865.54 500.642Z" fill="#CCCCCC"></path> <path d="M870.494 481.857L870.098 482.048L884.055 511.024L884.451 510.833L870.494 481.857Z" fill="#CCCCCC"></path> <path d="M983.183 507.09H956.183L952.183 455.09H987.183L983.183 507.09Z" fill="#E6E6E6"></path> <path d="M987.683 476.091H951.683V484.091H987.683V476.091Z" fill="#F2F2F2"></path> <path d="M996.933 458.823L991.177 457.128L991.103 455.021L965.523 447.486L964.318 449.216L958.563 447.521L954.949 452.711L997.156 465.144L996.933 458.823Z" fill="#CCCCCC"></path> <path d="M150.17 441.459L150.144 441.633L150.073 442.137L142.746 494.715L97.8821 511.176L97.1791 510.84L72.0611 498.911L59.0731 449.076L58.1831 445.655L58.4541 445.552L114.02 424.676L150.137 441.44L150.17 441.459Z" fill="#FF760C"></path> <path d="M97.1791 510.84L72.0611 498.911L58.1831 445.655L58.4541 445.552L94.6551 460.825L97.1791 510.84Z" fill="#FF760C"></path> <path opacity="0.2" d="M97.8091 510.231L78.7031 473.617L81.1571 463.238L69.6001 449.628L68.6161 450.464L79.7501 463.576L71.4331 498.762L72.6901 499.059L78.2491 475.539L96.6641 510.829L97.8091 510.231Z" fill="black"></path> <path d="M150.17 442.105L150.073 442.137L94.6551 461.47L59.0731 449.076L58.1831 445.655L58.4541 445.552L114.02 424.676L150.137 441.44L150.144 441.633L150.17 442.105Z" fill="#3F3D56"></path> <path d="M95.6231 462.439L84.3261 453.724L86.9081 444.041L119.184 432.422L141.132 433.713L149.847 441.136L150.492 443.073L95.6231 462.439Z" fill="#FF760C"></path> <path d="M58.8281 445.655L84.3261 444.687L98.1391 439.998L119.675 432.422L123.703 426.612L113.653 424.814L58.8281 445.655Z" fill="#FF760C"></path> <path d="M109.629 435.268L96.334 439.934L96.7614 441.152L110.056 436.486L109.629 435.268Z" fill="#CCCCCC"></path> <path d="M36.8441 508.286H9.84406L5.84406 456.286H40.8441L36.8441 508.286Z" fill="#FF760C"></path> <path d="M41.3441 477.286H5.34406V485.286H41.3441V477.286Z" fill="#E6E6E6"></path> <path d="M42.8441 453.286H36.8441L36.1771 451.286H9.51105L8.84406 453.286H2.84406L0.844055 459.286H44.8441L42.8441 453.286Z" fill="#3F3D56"></path> <path d="M809.183 507.673H203.087V509.673H809.183V507.673Z" fill="#3F3D56"></path> </g> <defs> <clipPath id="clip0"> <rect width="996.312" height="510.676" fill="white" transform="translate(0.844055 0.500244)"></rect> </clipPath> </defs> </svg> 