<?xml version="1.0" encoding="UTF-8"?> <svg xmlns="http://www.w3.org/2000/svg" width="129" height="129" viewBox="0 0 129 129" fill="none"> <g filter="url(#filter0_d)"> <rect x="25" width="79" height="79" rx="39.5" fill="white"></rect> </g> <path d="M46.9156 31.291H46.7955C45.2556 31.291 44 32.5506 44 34.0865V46.2577C44 47.7997 45.2556 49.0552 46.7955 49.0552H46.9177C48.4576 49.0552 49.7132 47.7956 49.7132 46.2577V34.0864C49.7111 32.5506 48.4536 31.291 46.9156 31.291Z" fill="#FF760C"></path> <path d="M51.0508 50.9556C51.0508 52.3693 52.2062 53.5208 53.62 53.5208H56.3654V60.095C56.3654 61.6389 57.625 62.8945 59.1609 62.8945H59.2811C60.823 62.8945 62.0806 61.637 62.0806 60.095V53.5208H65.9174V60.095C65.9174 61.6389 67.181 62.8945 68.7169 62.8945H68.8351C70.377 62.8945 71.6325 61.637 71.6325 60.095V53.5208H74.38C75.7917 53.5208 76.9472 52.3693 76.9472 50.9556V31.7375H51.0508V50.9556Z" fill="#FF760C"></path> <path d="M70.4492 20.0831L72.63 16.7169C72.7702 16.5046 72.7081 16.2143 72.4938 16.0761C72.2816 15.9359 71.9912 15.994 71.853 16.2123L69.5922 19.6947C67.8961 18.9998 66.0017 18.6094 64.0012 18.6094C61.9986 18.6094 60.1083 18.9998 58.4082 19.6947L56.1514 16.2123C56.0133 15.994 55.7208 15.9359 55.5066 16.0761C55.2923 16.2142 55.2302 16.5046 55.3704 16.7169L57.5531 20.0831C53.6181 22.0115 50.9648 25.6461 50.9648 29.8153C50.9648 30.0716 50.9809 30.3239 51.0029 30.5742H77.0014C77.0234 30.3239 77.0374 30.0716 77.0374 29.8153C77.0375 25.6461 74.3821 22.0115 70.4492 20.0831ZM57.9736 26.1106C57.2828 26.1106 56.722 25.5539 56.722 24.8611C56.722 24.1683 57.2828 23.6135 57.9736 23.6135C58.6685 23.6135 59.2252 24.1682 59.2252 24.8611C59.2252 25.554 58.6645 26.1106 57.9736 26.1106ZM70.0267 26.1106C69.3359 26.1106 68.7751 25.5539 68.7751 24.8611C68.7751 24.1683 69.3359 23.6135 70.0267 23.6135C70.7195 23.6135 71.2763 24.1682 71.2763 24.8611C71.2763 25.5539 70.7195 26.1106 70.0267 26.1106Z" fill="#FF760C"></path> <path d="M81.2025 31.291H81.0864C79.5464 31.291 78.2869 32.5506 78.2869 34.0865V46.2577C78.2869 47.7997 79.5485 49.0552 81.0864 49.0552H81.2045C82.7464 49.0552 84.0001 47.7956 84.0001 46.2577V34.0864C84.0001 32.5506 82.7424 31.291 81.2025 31.291Z" fill="#FF760C"></path> <defs> <filter id="filter0_d" x="0" y="0" width="129" height="129" filterUnits="userSpaceOnUse" color-interpolation-filters="sRGB"> <feFlood flood-opacity="0" result="BackgroundImageFix"></feFlood> <feColorMatrix in="SourceAlpha" type="matrix" values="0 0 0 0 0 0 0 0 0 0 0 0 0 0 0 0 0 0 127 0"></feColorMatrix> <feOffset dy="25"></feOffset> <feGaussianBlur stdDeviation="12.5"></feGaussianBlur> <feColorMatrix type="matrix" values="0 0 0 0 0.458333 0 0 0 0 0.458333 0 0 0 0 0.458333 0 0 0 0.1 0"></feColorMatrix> <feBlend mode="normal" in2="BackgroundImageFix" result="effect1_dropShadow"></feBlend> <feBlend mode="normal" in="SourceGraphic" in2="effect1_dropShadow" result="shape"></feBlend> </filter> </defs> </svg> 