<?xml version="1.0" encoding="UTF-8"?> <svg xmlns="http://www.w3.org/2000/svg" width="94" height="95" viewBox="0 0 94 95" fill="none"> <g clip-path="url(#clip0)"> <g filter="url(#filter0_d)"> <path d="M69 22.528C69 10.3777 59.1503 0.528 47 0.528C34.8497 0.528 25 10.3777 25 22.528C25 34.6783 34.8497 44.528 47 44.528C59.1503 44.528 69 34.6783 69 22.528Z" fill="white"></path> </g> <path d="M52.6781 31.7234C49.7613 33.371 45.7506 33.5403 41.7156 31.8493C38.4486 30.4902 35.7378 28.1112 34 25.3929C34.8341 26.0725 35.8073 26.6164 36.8499 27.0918C41.0169 29.0015 45.183 28.8708 48.1149 27.0967C48.113 27.0949 48.1117 27.0937 48.1105 27.0918C43.9399 23.9654 40.3949 19.8874 37.7536 16.5575C37.1973 16.0137 36.7803 15.334 36.3632 14.7224C39.5606 17.5769 44.6351 21.1788 46.4419 22.1987C42.6194 18.2564 39.2132 13.3633 39.3519 13.4989C45.3994 19.4799 51.0301 22.8783 51.0301 22.8783C51.2163 22.9809 51.3601 23.0665 51.4757 23.1429C51.5976 22.8398 51.7044 22.5251 51.7944 22.1987C52.7676 18.7325 51.6557 14.7902 49.2226 11.5281C54.8526 14.8584 58.1894 21.1109 56.7988 26.3445C56.7626 26.4857 56.7232 26.625 56.6807 26.7619C56.6969 26.7808 56.7132 26.8004 56.7294 26.8206C59.5094 30.2189 58.7451 33.8208 58.3976 33.1413C56.8894 30.2556 54.0976 31.1381 52.6782 31.7235L52.6781 31.7234Z" fill="#FF760C"></path> </g> <defs> <filter id="filter0_d" x="0" y="0.528" width="94" height="94" filterUnits="userSpaceOnUse" color-interpolation-filters="sRGB"> <feFlood flood-opacity="0" result="BackgroundImageFix"></feFlood> <feColorMatrix in="SourceAlpha" type="matrix" values="0 0 0 0 0 0 0 0 0 0 0 0 0 0 0 0 0 0 127 0"></feColorMatrix> <feOffset dy="25"></feOffset> <feGaussianBlur stdDeviation="12.5"></feGaussianBlur> <feColorMatrix type="matrix" values="0 0 0 0 0.458333 0 0 0 0 0.458333 0 0 0 0 0.458333 0 0 0 0.1 0"></feColorMatrix> <feBlend mode="normal" in2="BackgroundImageFix" result="effect1_dropShadow"></feBlend> <feBlend mode="normal" in="SourceGraphic" in2="effect1_dropShadow" result="shape"></feBlend> </filter> <clipPath id="clip0"> <rect width="94" height="94" fill="white" transform="translate(0 0.528)"></rect> </clipPath> </defs> </svg> 