<?xml version="1.0" encoding="UTF-8"?> <svg xmlns="http://www.w3.org/2000/svg" width="200" height="200" viewBox="0 0 200 200" fill="none"> <g clip-path="url(#clip0)"> <path d="M54.3642 160.694L54.3613 162.194H54.3642V160.694ZM95.4792 107.647L93.9792 107.645L93.9792 107.645L95.4792 107.647ZM13.2491 107.647L14.7491 107.651L14.7491 107.649L13.2491 107.647ZM35.1738 107.647L33.6738 107.644L33.6738 107.644L35.1738 107.647ZM73.5048 107.647L72.0048 107.647L72.0048 107.65L73.5048 107.647ZM54.3642 162.194C67.5863 162.194 78.3061 157.14 85.6872 147.677C93.0308 138.262 96.9541 124.635 96.9792 107.649L93.9792 107.645C93.9547 124.217 90.1222 137.113 83.3217 145.832C76.5586 154.503 66.7458 159.194 54.3642 159.194V162.194ZM96.9792 107.649C97.0044 90.7807 93.0541 77.3091 85.6791 68.0226C78.2691 58.6921 67.5261 53.7463 54.3642 53.7463V56.7463C66.7065 56.7463 76.5459 61.346 83.3298 69.8883C90.1487 78.4747 94.0038 91.2034 93.9792 107.645L96.9792 107.649ZM54.3642 53.7463C41.1785 53.7463 30.4592 58.6789 23.067 68.0051C15.7113 77.2854 11.7743 90.7558 11.7491 107.645L14.7491 107.649C14.7737 91.1786 18.6172 78.4487 25.4181 69.8686C32.1825 61.3343 41.9958 56.7463 54.3642 56.7463V53.7463ZM11.7491 107.642C11.6988 124.583 15.61 138.2 22.967 147.622C30.3602 157.09 41.1159 162.168 54.3613 162.194L54.3671 159.194C41.9591 159.17 32.1075 154.453 25.3316 145.776C18.5196 137.051 14.7 124.17 14.7491 107.651L11.7491 107.642ZM54.3642 141.346C49.1322 141.346 44.7859 138.766 41.6724 133.303C38.5127 127.759 36.6492 119.259 36.6738 107.65L33.6738 107.644C33.6487 119.501 35.5388 128.6 39.0659 134.789C42.6392 141.059 47.9129 144.346 54.3642 144.346V141.346ZM36.6738 107.65C36.6984 96.216 38.5729 87.827 41.7251 82.3502C44.8312 76.9536 49.1536 74.3955 54.3642 74.3955V71.3955C47.9412 71.3955 42.6933 74.6541 39.125 80.8537C35.6029 86.9731 33.699 95.9599 33.6738 107.644L36.6738 107.65ZM54.3642 74.3955C59.5486 74.3955 63.8715 76.9523 66.9784 82.3502C70.1303 87.8265 72.0048 96.2149 72.0048 107.647H75.0048C75.0048 95.961 73.1009 86.9736 69.5785 80.8537C66.0109 74.6554 60.7636 71.3955 54.3642 71.3955V74.3955ZM72.0048 107.65C72.0294 119.259 70.166 127.76 67.0119 133.304C63.9033 138.769 59.5688 141.346 54.3642 141.346V144.346C60.7931 144.346 66.0537 141.056 69.6195 134.788C73.1398 128.599 75.0299 119.501 75.0048 107.644L72.0048 107.65ZM186.049 124.501L184.549 124.497L184.549 124.504L186.049 124.501ZM133.897 99.7421V101.242H134.67L135.119 100.613L133.897 99.7421ZM133.301 99.7421L131.809 99.5879L131.638 101.242H133.301V99.7421ZM135.936 74.2378V72.7378H134.583L134.443 74.0836L135.936 74.2378ZM180.431 74.2378V75.7378H181.931V74.2378H180.431ZM180.431 56.6384H181.931V55.1384H180.431V56.6384ZM118.187 56.6384V55.1384H116.816L116.693 56.5042L118.187 56.6384ZM113.365 110.332L111.871 110.197L111.748 111.566L113.1 111.808L113.365 110.332ZM132.505 113.762L132.241 115.238L133.156 115.403L133.71 114.655L132.505 113.762ZM147.718 106.901L147.725 105.401H147.718V106.901ZM132.058 129.671L133.555 129.577L133.466 128.171H132.058V129.671ZM111.177 129.671V128.171H109.643L109.677 129.705L111.177 129.671ZM148.017 161.349C159.68 161.349 169.584 157.546 176.579 150.987C183.58 144.422 187.575 135.18 187.549 124.497L184.549 124.504C184.573 134.404 180.887 142.835 174.527 148.799C168.161 154.768 159.023 158.349 148.017 158.349V161.349ZM187.549 124.504C187.601 104.243 173.363 89.4921 154.132 89.4921V92.4921C171.591 92.4921 184.597 105.781 184.549 124.497L187.549 124.504ZM154.132 89.4921C144.83 89.4921 136.606 93.3587 132.676 98.8713L135.119 100.613C138.348 96.0828 145.536 92.4921 154.132 92.4921V89.4921ZM133.897 98.2421H133.301V101.242H133.897V98.2421ZM134.793 99.8962L137.428 74.3919L134.443 74.0836L131.809 99.5879L134.793 99.8962ZM135.936 75.7378H180.431V72.7378H135.936V75.7378ZM181.931 74.2378V56.6384H178.931V74.2378H181.931ZM180.431 55.1384H118.187V58.1384H180.431V55.1384ZM116.693 56.5042L111.871 110.197L114.859 110.466L119.681 56.7725L116.693 56.5042ZM113.1 111.808L132.241 115.238L132.77 112.285L113.629 108.855L113.1 111.808ZM133.71 114.655C136.5 110.891 142.068 108.401 147.718 108.401V105.401C141.337 105.401 134.774 108.181 131.3 112.869L133.71 114.655ZM147.711 108.401C152.461 108.424 156.467 110.147 159.285 113.033C162.105 115.92 163.818 120.055 163.818 125.047H166.818C166.818 119.351 164.851 114.438 161.432 110.937C158.011 107.434 153.217 105.428 147.725 105.401L147.711 108.401ZM163.818 125.047C163.818 129.995 162.139 134.081 159.376 136.922C156.616 139.761 152.689 141.445 148.017 141.445V144.445C153.437 144.445 158.16 142.476 161.527 139.013C164.892 135.553 166.818 130.689 166.818 125.047H163.818ZM148.017 141.445C140.058 141.445 133.991 136.507 133.555 129.577L130.561 129.765C131.119 138.645 138.873 144.445 148.017 144.445V141.445ZM132.058 128.171H111.177V131.171H132.058V128.171ZM109.677 129.705C110.099 148.354 126.378 161.349 148.017 161.349V158.349C127.496 158.349 113.051 146.187 112.677 129.637L109.677 129.705Z" fill="#FF760C"></path> </g> <defs> <clipPath id="clip0"> <rect width="200" height="200" fill="white"></rect> </clipPath> </defs> </svg> 