<?xml version="1.0" encoding="UTF-8"?> <svg xmlns="http://www.w3.org/2000/svg" width="888" height="593" viewBox="0 0 888 593" fill="none"> <g clip-path="url(#clip0)"> <path d="M581.456 498.527L423.119 442.132V441.335H420.882H159.252H159.185L0 498.527H0.458V513.778H581.914V498.527H581.456Z" fill="#E6E6E6"></path> <path d="M692.31 592.354C800.387 592.354 888 585.212 888 576.401C888 567.59 800.387 560.448 692.31 560.448C584.234 560.448 496.621 567.59 496.621 576.401C496.621 585.212 584.234 592.354 692.31 592.354Z" fill="#E6E6E6"></path> <path d="M592.042 288.95L582.235 298.148C582.235 298.148 555.662 319.817 567.997 327.766C580.331 335.715 594.083 303.843 594.083 303.843L599.382 295.62L592.042 288.95Z" fill="#FFB8B8"></path> <path d="M648.884 130.844L635.025 134.105C635.025 134.105 631.764 147.964 632.579 161.008C633.395 174.052 629.389 198.26 629.389 198.26L619.99 220.118L580.64 294.565L605.101 305.201L648.884 219.704L652.96 165.084L648.884 130.844Z" fill="#E6E6E6"></path> <path d="M669.489 92.1209C693.453 92.1209 712.879 71.499 712.879 46.0605C712.879 20.622 693.453 0 669.489 0C645.525 0 626.099 20.622 626.099 46.0605C626.099 71.499 645.525 92.1209 669.489 92.1209Z" fill="#2F2E41"></path> <path d="M707.988 115.763C720.595 115.763 730.814 105.543 730.814 92.9362C730.814 80.3295 720.595 70.1097 707.988 70.1097C695.381 70.1097 685.162 80.3295 685.162 92.9362C685.162 105.543 695.381 115.763 707.988 115.763Z" fill="#2F2E41"></path> <path d="M692.091 62.365L704.319 94.159L673.341 107.203L670.621 101.038L661.112 79.485L692.091 62.365Z" fill="#FFB8B8"></path> <path d="M733.668 236.824L745.081 290.629L760.57 411.283L749.157 521.339C749.157 521.339 714.917 532.753 701.874 511.557L717.363 421.066L686.384 314.271L681.493 419.436L689.645 510.741C689.645 510.741 664.373 525.415 643.993 510.741L630.134 329.76C630.134 329.76 619.536 250.683 643.993 224.596L733.668 236.824Z" fill="#2F2E41"></path> <path d="M667.634 83.1535C682.717 83.1535 694.944 70.9263 694.944 55.8433C694.944 40.7603 682.717 28.5331 667.634 28.5331C652.551 28.5331 640.324 40.7603 640.324 55.8433C640.324 70.9263 652.551 83.1535 667.634 83.1535Z" fill="#FFB8B8"></path> <path d="M667.634 108.833L670.305 100.321C670.305 100.321 694.909 96.268 702.06 88.2841L714.917 101.496C714.917 101.496 749.972 112.909 754.864 117.801C759.755 122.692 735.298 198.508 735.298 198.508C735.298 198.508 741.005 211.552 731.222 217.259C731.222 217.259 745.896 239.27 734.483 241.716C723.07 244.161 640.731 227.041 640.731 227.041C640.731 227.041 635.025 217.259 648.068 213.183C648.068 213.183 643.177 201.769 648.884 197.693C654.59 193.617 649.699 170.791 649.699 170.791C649.699 170.791 632.579 136.551 635.025 134.105C637.47 131.66 667.634 108.833 667.634 108.833Z" fill="#E6E6E6"></path> <path d="M747.527 308.564L746.711 315.086C746.711 315.086 747.527 354.217 732.852 352.587C718.178 350.956 727.146 312.641 727.146 312.641L729.591 303.673L747.527 308.564Z" fill="#FFB8B8"></path> <path d="M729.591 514.002C729.591 514.002 726.33 546.611 732.037 549.057C737.744 551.503 776.059 571.884 764.646 580.851C753.233 589.819 714.917 566.177 710.841 570.253C706.765 574.329 693.721 571.068 692.906 563.731C692.091 556.394 693.721 543.351 700.243 535.198C706.765 527.046 706.765 510.741 706.765 510.741L729.591 514.002Z" fill="#2F2E41"></path> <path d="M683.123 501.774L688.83 528.676C688.83 528.676 701.058 555.579 690.46 561.286C679.862 566.992 678.232 567.807 677.417 571.068C676.602 574.329 654.59 591.449 648.069 578.405C641.547 565.362 665.188 546.611 665.188 546.611L669.264 537.644L665.188 505.85L683.123 501.774Z" fill="#2F2E41"></path> <path d="M645.312 52.8478C662.477 41.3936 667.608 38.6554 687.284 43.0799L688.464 14.3757L637.62 25.0416L645.312 52.8478Z" fill="#2F2E41"></path> <path d="M747.527 118.616L755.679 117.801C755.679 117.801 763.831 138.997 763.831 149.595V219.704L750.787 311.825L725.515 307.749L739.374 225.411L735.298 175.682L747.527 118.616Z" fill="#E6E6E6"></path> <path d="M836.95 248.833H823.125V573.21H836.95V248.833Z" fill="#3F3D56"></path> <path d="M868.325 158.433H791.75V260.532H868.325V158.433Z" fill="#3F3D56"></path> <path d="M856.626 221.182C856.131 221.192 855.651 221.354 855.25 221.645L850.893 186.057C850.714 184.598 850.007 183.254 848.906 182.28C847.805 181.305 846.386 180.767 844.915 180.767H815.16C813.69 180.767 812.27 181.305 811.169 182.28C810.068 183.254 809.362 184.598 809.183 186.057L804.825 221.645C804.425 221.354 803.945 221.192 803.449 221.182C801.1 221.182 799.195 224.991 799.195 229.69C799.195 234.389 801.1 238.198 803.449 238.198C805.234 238.198 806.76 235.997 807.391 232.88H852.684C853.315 235.997 854.841 238.198 856.626 238.198C858.976 238.198 860.88 234.389 860.88 229.69C860.88 224.991 858.976 221.182 856.626 221.182ZM816.212 223.309C815.16 223.309 814.132 222.997 813.257 222.413C812.383 221.828 811.701 220.998 811.299 220.026C810.896 219.054 810.791 217.985 810.996 216.954C811.201 215.922 811.708 214.975 812.452 214.231C813.195 213.487 814.143 212.981 815.174 212.776C816.206 212.57 817.275 212.676 818.247 213.078C819.218 213.481 820.049 214.162 820.633 215.037C821.218 215.911 821.529 216.939 821.529 217.991C821.529 218.689 821.392 219.381 821.125 220.026C820.857 220.671 820.466 221.257 819.972 221.751C819.478 222.245 818.892 222.637 818.247 222.904C817.602 223.171 816.91 223.309 816.212 223.309V223.309ZM842.8 223.309C841.748 223.309 840.72 222.997 839.846 222.413C838.971 221.828 838.29 220.998 837.887 220.026C837.485 219.054 837.379 217.985 837.585 216.954C837.79 215.922 838.296 214.975 839.04 214.231C839.784 213.487 840.731 212.981 841.763 212.776C842.794 212.57 843.863 212.676 844.835 213.078C845.807 213.481 846.637 214.162 847.222 215.037C847.806 215.911 848.118 216.939 848.118 217.991C848.118 218.689 847.98 219.381 847.713 220.026C847.446 220.671 847.054 221.257 846.56 221.751C846.066 222.245 845.48 222.637 844.835 222.904C844.19 223.171 843.498 223.309 842.8 223.309V223.309ZM849.181 202.993C849.181 203.426 849.096 203.855 848.93 204.255C848.764 204.656 848.521 205.019 848.215 205.326C847.909 205.632 847.545 205.875 847.144 206.041C846.744 206.207 846.315 206.292 845.882 206.292H814.194C813.76 206.292 813.331 206.207 812.931 206.041C812.531 205.875 812.167 205.632 811.86 205.326C811.554 205.019 811.311 204.656 811.145 204.255C810.979 203.855 810.894 203.426 810.894 202.993V192.575C810.894 192.142 810.979 191.713 811.145 191.312C811.311 190.912 811.554 190.548 811.86 190.242C812.167 189.936 812.531 189.693 812.931 189.527C813.331 189.361 813.76 189.276 814.194 189.276H845.882C846.315 189.276 846.744 189.361 847.144 189.527C847.545 189.693 847.909 189.936 848.215 190.242C848.521 190.548 848.764 190.912 848.93 191.312C849.096 191.713 849.181 192.142 849.181 192.575V202.993Z" fill="#FF760C"></path> <path d="M569.068 284.756L572.171 290.786C572.2 290.841 572.205 290.906 572.186 290.966C572.167 291.026 572.125 291.075 572.069 291.104L571.92 291.181L588.086 322.593C588.533 323.462 588.617 324.474 588.319 325.404C588.02 326.335 587.364 327.11 586.495 327.557L566.868 337.659C566.437 337.88 565.968 338.015 565.485 338.054C565.003 338.094 564.517 338.039 564.056 337.891C563.596 337.743 563.168 337.506 562.799 337.193C562.43 336.88 562.126 336.498 561.904 336.067L546.305 305.757L546.197 305.813C546.157 305.833 546.112 305.837 546.07 305.824C546.027 305.811 545.992 305.781 545.972 305.742L544.206 302.31C544.196 302.291 544.19 302.269 544.188 302.247C544.186 302.225 544.188 302.203 544.195 302.182C544.202 302.162 544.213 302.142 544.227 302.125C544.241 302.109 544.258 302.095 544.278 302.085L544.386 302.029L543.721 300.736L543.612 300.793C543.57 300.814 543.522 300.818 543.478 300.803C543.434 300.789 543.397 300.758 543.376 300.716L541.634 297.331C541.613 297.29 541.609 297.242 541.623 297.198C541.637 297.154 541.668 297.118 541.709 297.096L541.819 297.04L540.911 295.276L540.799 295.333C540.781 295.342 540.762 295.348 540.741 295.35C540.721 295.351 540.701 295.349 540.681 295.343C540.662 295.337 540.644 295.327 540.628 295.313C540.613 295.3 540.6 295.284 540.591 295.266L539.64 293.419C539.621 293.382 539.618 293.34 539.63 293.3C539.643 293.261 539.67 293.228 539.707 293.209L539.818 293.152L537.893 289.412C537.446 288.543 537.362 287.532 537.66 286.601C537.958 285.67 538.614 284.896 539.483 284.449L559.11 274.348C559.98 273.9 560.991 273.817 561.922 274.115C562.852 274.413 563.627 275.069 564.074 275.937L568.6 284.731L568.75 284.654C568.805 284.625 568.87 284.62 568.93 284.639C568.989 284.658 569.039 284.7 569.068 284.756V284.756Z" fill="#3F3D56"></path> <path d="M562.838 277.393L586.656 323.672C586.94 324.224 586.992 324.865 586.803 325.456C586.614 326.046 586.198 326.537 585.646 326.821L566.858 336.491C566.585 336.632 566.287 336.717 565.981 336.743C565.675 336.769 565.367 336.734 565.074 336.64C564.782 336.546 564.51 336.396 564.276 336.197C564.042 335.998 563.849 335.755 563.709 335.482L539.891 289.203C539.751 288.93 539.665 288.632 539.64 288.326C539.614 288.02 539.65 287.712 539.743 287.419C539.837 287.127 539.988 286.856 540.186 286.621C540.385 286.387 540.627 286.194 540.9 286.054L543.712 284.606L543.898 284.967C544.132 285.421 544.536 285.764 545.023 285.92C545.509 286.076 546.037 286.032 546.491 285.798L556.047 280.88C556.501 280.647 556.843 280.242 556.999 279.756C557.155 279.269 557.111 278.741 556.878 278.287L556.692 277.926L559.689 276.384C559.962 276.243 560.26 276.158 560.566 276.133C560.872 276.107 561.18 276.142 561.473 276.236C561.765 276.33 562.036 276.48 562.271 276.679C562.505 276.877 562.698 277.12 562.838 277.393V277.393Z" fill="#E6E6E6"></path> <path d="M391.864 392.505C389.989 392.545 388.171 393.157 386.654 394.26L370.154 259.505C369.477 253.979 366.802 248.891 362.633 245.201C358.464 241.511 353.088 239.474 347.521 239.474H234.851C229.283 239.474 223.908 241.511 219.739 245.201C215.569 248.891 212.894 253.979 212.217 259.505L195.717 394.26C194.2 393.157 192.383 392.545 190.508 392.505C181.611 392.505 174.399 406.929 174.399 424.722C174.399 442.515 181.611 456.939 190.508 456.939C197.266 456.939 203.043 448.605 205.434 436.803H376.937C379.328 448.605 385.105 456.939 391.864 456.939C400.761 456.939 407.972 442.515 407.972 424.722C407.972 406.929 400.761 392.505 391.864 392.505ZM238.833 400.559C234.851 400.559 230.958 399.378 227.646 397.166C224.335 394.953 221.754 391.808 220.23 388.129C218.706 384.45 218.308 380.401 219.084 376.495C219.861 372.589 221.779 369.001 224.595 366.185C227.411 363.369 230.999 361.452 234.905 360.675C238.811 359.898 242.859 360.297 246.539 361.821C250.218 363.345 253.363 365.925 255.575 369.237C257.788 372.548 258.969 376.441 258.969 380.423C258.969 383.068 258.448 385.686 257.436 388.129C256.424 390.572 254.941 392.792 253.071 394.661C251.201 396.531 248.982 398.014 246.539 399.026C244.096 400.038 241.477 400.559 238.833 400.559V400.559ZM339.511 400.559C335.529 400.559 331.636 399.378 328.324 397.166C325.013 394.953 322.432 391.808 320.908 388.129C319.384 384.45 318.986 380.401 319.763 376.495C320.539 372.589 322.457 369.001 325.273 366.185C328.089 363.369 331.677 361.452 335.583 360.675C339.489 359.898 343.537 360.297 347.217 361.821C350.896 363.345 354.041 365.925 356.253 369.237C358.466 372.548 359.647 376.441 359.647 380.423C359.647 383.068 359.126 385.686 358.114 388.129C357.102 390.572 355.619 392.792 353.749 394.661C351.88 396.531 349.66 398.014 347.217 399.026C344.774 400.038 342.155 400.559 339.511 400.559V400.559ZM363.674 323.632C363.674 325.272 363.351 326.897 362.723 328.413C362.095 329.928 361.175 331.306 360.015 332.466C358.855 333.626 357.477 334.546 355.962 335.174C354.446 335.802 352.821 336.125 351.181 336.125H231.191C229.55 336.125 227.926 335.802 226.41 335.174C224.894 334.546 223.517 333.626 222.357 332.466C221.197 331.306 220.276 329.928 219.649 328.413C219.021 326.897 218.698 325.272 218.698 323.632V284.185C218.698 282.544 219.021 280.919 219.649 279.404C220.276 277.888 221.197 276.511 222.357 275.35C223.517 274.19 224.894 273.27 226.41 272.642C227.926 272.014 229.55 271.691 231.191 271.691H351.181C352.821 271.691 354.446 272.014 355.962 272.642C357.477 273.27 358.855 274.19 360.015 275.35C361.175 276.511 362.095 277.888 362.723 279.404C363.351 280.919 363.674 282.544 363.674 284.185V323.632Z" fill="#3F3D56"></path> <path d="M312.277 245.849H270.094L279.134 232.29H303.238L312.277 245.849Z" fill="#FF760C"></path> <path d="M286.071 212.778C312.189 212.778 333.361 191.605 333.361 165.488C333.361 139.37 312.189 118.198 286.071 118.198C259.954 118.198 238.781 139.37 238.781 165.488C238.781 191.605 259.954 212.778 286.071 212.778Z" fill="#FF760C"></path> <path d="M281.565 185.45L267.411 167.251L275.642 160.849L282.344 169.466L304.984 145.566L312.555 152.739L281.565 185.45Z" fill="white"></path> <path d="M295.494 442.686H285.962V448.406H295.494V442.686Z" fill="white"></path> <path d="M295.494 497.653H285.962V485.341H295.494V497.653ZM295.494 473.029H285.962V460.717H295.494V473.029Z" fill="white"></path> <path d="M295.494 509.966H285.962V515.685H295.494V509.966Z" fill="white"></path> </g> <defs> <clipPath id="clip0"> <rect width="888" height="592.354" fill="white"></rect> </clipPath> </defs> </svg> 