<?xml version="1.0" encoding="UTF-8"?> <svg xmlns="http://www.w3.org/2000/svg" width="200" height="201" viewBox="0 0 200 201" fill="none"> <g clip-path="url(#clip0)"> <path d="M55.3896 161.251L55.3867 162.751H55.3896V161.251ZM96.5046 108.204L95.0046 108.202L95.0046 108.202L96.5046 108.204ZM14.2745 108.204L15.7745 108.208L15.7745 108.206L14.2745 108.204ZM36.1992 108.204L34.6992 108.201L34.6992 108.201L36.1992 108.204ZM74.5302 108.204L73.0302 108.204L73.0302 108.207L74.5302 108.204ZM55.3896 162.751C68.6117 162.751 79.3314 157.697 86.7126 148.234C94.0562 138.819 97.9795 125.192 98.0046 108.206L95.0046 108.202C94.9801 124.774 91.1476 137.67 84.3471 146.389C77.584 155.06 67.7712 159.751 55.3896 159.751V162.751ZM98.0046 108.206C98.0298 91.3375 94.0794 77.866 86.7045 68.5795C79.2945 59.2489 68.5515 54.3032 55.3896 54.3032V57.3032C67.7319 57.3032 77.5712 61.9029 84.3552 70.4452C91.1741 79.0316 95.0292 91.7603 95.0046 108.202L98.0046 108.206ZM55.3896 54.3032C42.2039 54.3032 31.4846 59.2358 24.0924 68.562C16.7366 77.8422 12.7997 91.3127 12.7745 108.202L15.7745 108.206C15.799 91.7355 19.6426 79.0056 26.4435 70.4255C33.2079 61.8912 43.0212 57.3032 55.3896 57.3032V54.3032ZM12.7745 108.199C12.7242 125.14 16.6354 138.757 23.9924 148.179C31.3856 157.647 42.1413 162.725 55.3867 162.751L55.3925 159.751C42.9845 159.727 33.1329 155.01 26.357 146.332C19.545 137.608 15.7254 124.727 15.7745 108.208L12.7745 108.199ZM55.3896 141.903C50.1576 141.903 45.8113 139.323 42.6977 133.86C39.5381 128.316 37.6746 119.816 37.6992 108.207L34.6992 108.201C34.6741 120.058 36.5642 129.157 40.0913 135.346C43.6646 141.615 48.9383 144.903 55.3896 144.903V141.903ZM37.6992 108.207C37.7238 96.7729 39.5983 88.3839 42.7505 82.9071C45.8566 77.5104 50.179 74.9523 55.3896 74.9523V71.9523C48.9666 71.9523 43.7187 75.211 40.1504 81.4106C36.6283 87.53 34.7243 96.5168 34.6992 108.201L37.6992 108.207ZM55.3896 74.9523C60.574 74.9523 64.8969 77.5092 68.0038 82.9071C71.1557 88.3834 73.0302 96.7717 73.0302 108.204H76.0302C76.0302 96.5179 74.1262 87.5305 70.6038 81.4106C67.0363 75.2123 61.789 71.9523 55.3896 71.9523V74.9523ZM73.0302 108.207C73.0548 119.815 71.1914 128.317 68.0373 133.861C64.9287 139.326 60.5942 141.903 55.3896 141.903V144.903C61.8184 144.903 67.0791 141.613 70.6449 135.345C74.1652 129.156 76.0553 120.058 76.0302 108.201L73.0302 108.207ZM111.854 159.013H110.354V160.513H111.854V159.013ZM184.44 159.013V160.513H185.94V159.013H184.44ZM184.44 141.414H185.94V139.914H184.44V141.414ZM141.684 141.414H140.184V142.914H141.684V141.414ZM141.684 140.718L140.634 139.647L140.184 140.088V140.718H141.684ZM156.549 126.151L155.538 125.043L155.518 125.061L155.499 125.08L156.549 126.151ZM110.86 88.566L109.36 88.5697L109.364 90.066H110.86V88.566ZM131.293 88.566V90.066H132.801L132.793 88.5583L131.293 88.566ZM148.097 109.944L149.116 111.044L149.127 111.035L149.137 111.025L148.097 109.944ZM111.854 143.502L110.835 142.401L110.354 142.847V143.502H111.854ZM111.854 160.513H184.44V157.513H111.854V160.513ZM185.94 159.013V141.414H182.94V159.013H185.94ZM184.44 139.914H141.684V142.914H184.44V139.914ZM143.184 141.414V140.718H140.184V141.414H143.184ZM142.734 141.789L157.599 127.223L155.499 125.08L140.634 139.647L142.734 141.789ZM157.56 127.259C178.502 108.158 184.597 98.2191 184.597 85.931H181.597C181.597 96.8106 176.457 105.963 155.538 125.043L157.56 127.259ZM184.597 85.931C184.597 76.6675 180.8 68.714 174.126 63.1007C167.471 57.5036 158.046 54.3032 146.854 54.3032V57.3032C157.489 57.3032 166.185 60.3421 172.195 65.3967C178.186 70.435 181.597 77.5454 181.597 85.931H184.597ZM146.854 54.3032C135.872 54.3032 126.479 57.5877 119.819 63.5744C113.143 69.5759 109.334 78.1868 109.36 88.5697L112.36 88.5622C112.336 78.9594 115.836 71.1888 121.825 65.8055C127.83 60.4072 136.459 57.3032 146.854 57.3032V54.3032ZM110.86 90.066H131.293V87.066H110.86V90.066ZM132.793 88.5583C132.77 84.0098 134.191 80.492 136.557 78.115C138.925 75.7366 142.382 74.3558 146.705 74.3558V71.3558C141.732 71.3558 137.458 72.9578 134.431 75.9985C131.403 79.0405 129.767 83.3779 129.793 88.5736L132.793 88.5583ZM146.705 74.3558C150.873 74.3558 154.398 75.6502 156.862 77.8724C159.31 80.0799 160.816 83.2943 160.816 87.3728H163.816C163.816 82.5025 161.991 78.4583 158.871 75.6445C155.767 72.8454 151.487 71.3558 146.705 71.3558V74.3558ZM160.816 87.3728C160.816 94.7429 156.387 99.8848 147.057 108.863L149.137 111.025C158.302 102.205 163.816 96.2101 163.816 87.3728H160.816ZM147.078 108.843L110.835 142.401L112.874 144.603L149.116 111.044L147.078 108.843ZM110.354 143.502V159.013H113.354V143.502H110.354Z" fill="#FF760C"></path> </g> <defs> <clipPath id="clip0"> <rect width="200" height="200" fill="white" transform="translate(0 0.556885)"></rect> </clipPath> </defs> </svg> 