<?xml version="1.0" encoding="UTF-8"?> <svg xmlns="http://www.w3.org/2000/svg" width="18" height="18" viewBox="0 0 18 18" fill="none"> <g clip-path="url(#clip0)"> <path d="M9.01904 8.26929H18V9.7898H9.01904V8.26929Z" fill="white"></path> <path d="M0 3.65639V9.56223H7.96413V3.12891H0.527481C0.236206 3.12891 0 3.36511 0 3.65639ZM2.09097 8.31981C1.80574 8.31981 1.57448 8.08855 1.57448 7.80331C1.57448 7.51808 1.80574 7.28682 2.09097 7.28682C2.37621 7.28682 2.60747 7.51808 2.60747 7.80331C2.60747 8.08855 2.37621 8.31981 2.09097 8.31981ZM2.09097 6.87099C1.80574 6.87099 1.57448 6.63972 1.57448 6.35449C1.57448 6.06912 1.80574 5.838 2.09097 5.838C2.37621 5.838 2.60747 6.06912 2.60747 6.35449C2.60747 6.63972 2.37621 6.87099 2.09097 6.87099ZM2.09097 5.42203C1.80574 5.42203 1.57448 5.19077 1.57448 4.90553C1.57448 4.62016 1.80574 4.38904 2.09097 4.38904C2.37621 4.38904 2.60747 4.62016 2.60747 4.90553C2.60747 5.19077 2.37621 5.42203 2.09097 5.42203ZM3.87447 8.31981C3.5891 8.31981 3.35797 8.08855 3.35797 7.80331C3.35797 7.51808 3.5891 7.28682 3.87447 7.28682C4.1597 7.28682 4.39096 7.51808 4.39096 7.80331C4.39096 8.08855 4.1597 8.31981 3.87447 8.31981ZM3.87447 6.87099C3.5891 6.87099 3.35797 6.63972 3.35797 6.35449C3.35797 6.06912 3.5891 5.838 3.87447 5.838C4.1597 5.838 4.39096 6.06912 4.39096 6.35449C4.39096 6.63972 4.1597 6.87099 3.87447 6.87099ZM3.87447 5.42203C3.5891 5.42203 3.35797 5.19077 3.35797 4.90553C3.35797 4.62016 3.5891 4.38904 3.87447 4.38904C4.1597 4.38904 4.39096 4.62016 4.39096 4.90553C4.39096 5.19077 4.1597 5.42203 3.87447 5.42203ZM5.65782 8.31981C5.37259 8.31981 5.14133 8.08855 5.14133 7.80331C5.14133 7.51808 5.37259 7.28682 5.65782 7.28682C5.94319 7.28682 6.17432 7.51808 6.17432 7.80331C6.17432 8.08855 5.94319 8.31981 5.65782 8.31981ZM5.65782 6.87099C5.37259 6.87099 5.14133 6.63972 5.14133 6.35449C5.14133 6.06912 5.37259 5.838 5.65782 5.838C5.94319 5.838 6.17432 6.06912 6.17432 6.35449C6.17432 6.63972 5.94319 6.87099 5.65782 6.87099ZM5.65782 5.42203C5.37259 5.42203 5.14133 5.19077 5.14133 4.90553C5.14133 4.62016 5.37259 4.38904 5.65782 4.38904C5.94319 4.38904 6.17432 4.62016 6.17432 4.90553C6.17432 5.19077 5.94319 5.42203 5.65782 5.42203Z" fill="white"></path> <path d="M0 13.4201V14.3677C0 14.659 0.236206 14.8952 0.527481 14.8952H17.4725C17.7638 14.8952 18 14.659 18 14.3677V13.4201H0Z" fill="white"></path> <path d="M9.01904 4.63898H18V3.65639C18 3.36511 17.7637 3.12891 17.4725 3.12891H9.01904V4.63898Z" fill="white"></path> <path d="M9.01904 5.69379H18V7.21429H9.01904V5.69379Z" fill="white"></path> <path d="M0 10.8447H18V12.3651H0V10.8447Z" fill="white"></path> </g> <defs> <clipPath id="clip0"> <rect width="18" height="18" fill="white"></rect> </clipPath> </defs> </svg> 