<?xml version="1.0" encoding="UTF-8"?> <svg xmlns="http://www.w3.org/2000/svg" width="94" height="95" viewBox="0 0 94 95" fill="none"> <g clip-path="url(#clip0)"> <g filter="url(#filter0_d)"> <path d="M69 22.528C69 10.3777 59.1503 0.528 47 0.528C34.8497 0.528 25 10.3777 25 22.528C25 34.6783 34.8497 44.528 47 44.528C59.1503 44.528 69 34.6783 69 22.528Z" fill="white"></path> </g> <path fill-rule="evenodd" clip-rule="evenodd" d="M48.2642 34.093L42.0247 27.7678L45.4732 24.1875L55.1997 34.093H48.2642Z" fill="#FF760C"></path> <path fill-rule="evenodd" clip-rule="evenodd" d="M41.9476 27.7727L48.1318 21.4623H55.0841L45.4636 31.2794L41.9476 27.7727Z" fill="#FF760C"></path> <path fill-rule="evenodd" clip-rule="evenodd" d="M36.5943 22.2686L40.1054 25.849L55.0841 10.5643H48.0957L36.5943 22.2686Z" fill="#FF760C"></path> </g> <defs> <filter id="filter0_d" x="0" y="0.528" width="94" height="94" filterUnits="userSpaceOnUse" color-interpolation-filters="sRGB"> <feFlood flood-opacity="0" result="BackgroundImageFix"></feFlood> <feColorMatrix in="SourceAlpha" type="matrix" values="0 0 0 0 0 0 0 0 0 0 0 0 0 0 0 0 0 0 127 0"></feColorMatrix> <feOffset dy="25"></feOffset> <feGaussianBlur stdDeviation="12.5"></feGaussianBlur> <feColorMatrix type="matrix" values="0 0 0 0 0.458333 0 0 0 0 0.458333 0 0 0 0 0.458333 0 0 0 0.1 0"></feColorMatrix> <feBlend mode="normal" in2="BackgroundImageFix" result="effect1_dropShadow"></feBlend> <feBlend mode="normal" in="SourceGraphic" in2="effect1_dropShadow" result="shape"></feBlend> </filter> <clipPath id="clip0"> <rect width="94" height="94" fill="white" transform="translate(0 0.528)"></rect> </clipPath> </defs> </svg> 