<?xml version="1.0" encoding="UTF-8"?> <svg xmlns="http://www.w3.org/2000/svg" width="1010" height="840" viewBox="0 0 1010 840" fill="none"> <g clip-path="url(#clip0)"> <path opacity="0.1" d="M586.55 111.757C521.83 109.507 460.19 88.617 401.33 65.757C342.47 42.8969 284.17 17.5669 221 5.45695C180.37 -2.33305 133.9 -3.43305 101.17 18.3469C69.6602 39.3469 59.4802 75.4969 54.0102 109.077C49.8902 134.337 47.4702 160.927 58.7502 184.567C66.5902 200.987 80.4902 214.787 90.1102 230.517C123.58 285.237 99.9202 352.717 63.6602 406.147C46.6602 431.217 26.9102 455.147 13.7802 481.807C0.650203 508.467 -5.4198 539.057 6.0702 566.277C17.4502 593.277 44.5802 613.517 73.9702 627.767C133.66 656.717 203.97 664.997 272.58 669.687C424.41 680.077 577.04 675.577 729.27 671.077C785.61 669.407 842.19 667.717 897.61 659.007C928.39 654.167 960.16 646.497 982.51 627.957C1010.87 604.427 1017.9 564.587 998.89 535.077C967.01 485.587 878.89 473.297 856.58 420.187C844.32 390.947 856.91 358.387 874.74 331.267C912.98 273.107 977.07 222.077 980.44 155.597C982.76 109.937 951.95 64.2069 904.31 42.5969C854.38 19.9569 785.13 22.7969 748.31 60.2869C710.36 98.8869 643.7 113.737 586.55 111.757Z" fill="#FF760C"></path> <path opacity="0.1" d="M483.49 822.467C651.368 822.467 787.46 804.057 787.46 781.347C787.46 758.637 651.368 740.227 483.49 740.227C315.612 740.227 179.52 758.637 179.52 781.347C179.52 804.057 315.612 822.467 483.49 822.467Z" fill="#FF760C"></path> <path d="M333.01 658.927C333.01 658.927 354.01 655.567 366.61 670.407C366.61 670.407 357.37 677.687 337.49 667.607L333.01 658.927Z" fill="#FF760C"></path> <path d="M330.77 658.597C330.77 658.597 317.37 675.177 323.94 693.447C323.94 693.447 334.86 689.077 336.05 666.817L330.77 658.597Z" fill="#FF760C"></path> <path d="M318.77 631.487C318.77 631.487 327.17 616.087 360.77 637.647C360.77 637.647 356.29 648.007 341.45 647.167C326.61 646.327 322.64 639.607 318.77 631.487Z" fill="#FF760C"></path> <path d="M316.56 630.377C316.56 630.377 299.13 628.377 297.44 668.277C297.44 668.277 308.49 670.577 316.34 657.947C324.19 645.317 320.94 638.257 316.56 630.377Z" fill="#FF760C"></path> <path d="M306.4 598.557C306.4 598.557 316.2 571.387 351.77 590.707C351.77 590.707 343.65 615.637 310.04 607.797L306.4 598.557Z" fill="#FF760C"></path> <path d="M295.48 557.947C295.48 557.947 313.96 530.507 346.73 555.947C346.73 555.947 335.25 581.707 298.28 567.707L295.48 557.947Z" fill="#FF760C"></path> <path d="M291.56 519.307C291.56 519.307 313.12 494.107 345.56 519.307C345.56 519.307 325.11 541.427 291.56 525.747V519.307Z" fill="#FF760C"></path> <path d="M288.2 481.787C288.2 481.787 310.04 455.457 341.13 480.387C341.13 480.387 316.48 503.627 288.2 487.947V481.787Z" fill="#FF760C"></path> <path d="M290.16 448.457C290.16 448.457 313.16 414.577 342.25 437.537C342.25 437.537 317.6 466.667 290.16 454.897V448.457Z" fill="#FF760C"></path> <path d="M295.48 409.537C295.48 409.537 319.84 375.937 348.13 401.697C348.13 401.697 319.28 430.817 295.48 415.697V409.537Z" fill="#FF760C"></path> <path d="M303.61 374.747C303.61 374.747 332.44 343.177 357.61 355.747C357.61 355.747 327.55 389.277 302.35 383.117L303.61 374.747Z" fill="#FF760C"></path> <path d="M313.68 341.777C313.68 341.777 347.01 303.127 366.33 316.007C366.33 316.007 341.81 346.007 311.33 349.057L313.68 341.777Z" fill="#FF760C"></path> <path d="M328.23 303.517C328.23 303.517 357.37 271.937 378.65 279.777C378.65 279.777 353.73 312.547 324.32 313.387L328.23 303.517Z" fill="#FF760C"></path> <path d="M341.41 267.737C341.41 267.737 373.61 237.497 387.61 242.817C387.61 242.817 364.37 276.417 340.01 274.457L341.41 267.737Z" fill="#FF760C"></path> <path d="M354.29 234.697C354.29 234.697 382.01 198.577 397.13 201.377C397.13 201.377 380.33 233.577 354.29 238.377V234.697Z" fill="#FF760C"></path> <path d="M368.26 190.177C368.26 190.177 392.77 162.477 406 162.547C406 162.547 386.66 199.547 367.26 199.207L368.26 190.177Z" fill="#FF760C"></path> <path d="M376.55 160.487L400.21 102.807C400.21 102.807 401.4 154.947 373.53 171.187L376.55 160.487Z" fill="#FF760C"></path> <path d="M386.15 96.8769C386.15 96.8769 390.07 48.7169 387.55 44.7969C387.55 44.7969 404.48 84.7969 385.99 118.157L386.15 96.8769Z" fill="#FF760C"></path> <path d="M305.49 597.907C305.49 597.907 280.94 582.697 265.06 619.907C265.06 619.907 286.9 634.407 308.37 607.397L305.49 597.907Z" fill="#FF760C"></path> <path d="M294.7 556.397C294.7 556.397 264.6 542.667 249.99 581.517C249.99 581.517 273.25 597.517 297.44 566.217L294.7 556.397Z" fill="#FF760C"></path> <path d="M290.16 521.617C290.16 521.617 268.6 496.417 236.16 521.617C236.16 521.617 256.6 543.737 290.16 528.057V521.617Z" fill="#FF760C"></path> <path d="M287.47 481.787C287.47 481.787 265.62 455.457 234.54 480.387C234.54 480.387 259.18 503.627 287.47 487.947V481.787Z" fill="#FF760C"></path> <path d="M290.16 449.417C290.16 449.417 274.84 411.467 241.54 427.787C241.54 427.787 259.54 461.447 288.81 455.717L290.16 449.417Z" fill="#FF760C"></path> <path d="M297.41 409.347C297.41 409.347 282.19 370.737 248.41 388.637C248.41 388.637 269.09 424.027 295.91 415.317L297.41 409.347Z" fill="#FF760C"></path> <path d="M306.85 374.947C306.85 374.947 300.85 332.607 272.9 328.817C272.9 328.817 278.83 373.457 303.12 382.567L306.85 374.947Z" fill="#FF760C"></path> <path d="M314.4 341.847C314.4 341.847 312.05 290.847 288.9 289.077C288.9 289.077 289.68 327.777 311.79 349.077L314.4 341.847Z" fill="#FF760C"></path> <path d="M330.64 302.057C330.64 302.057 323.73 259.657 301.64 254.467C301.64 254.467 304.38 295.537 328.45 312.467L330.64 302.057Z" fill="#FF760C"></path> <path d="M344.03 268.047C344.03 268.047 343.79 223.867 330.29 217.377C330.29 217.377 321.92 257.377 340.12 273.687L344.03 268.047Z" fill="#FF760C"></path> <path d="M355.32 234.177C355.32 234.177 353.42 188.677 339.45 182.267C339.45 182.267 334.66 218.267 353.22 237.147L355.32 234.177Z" fill="#FF760C"></path> <path d="M370.22 193.777C370.22 193.777 370.13 156.777 360.15 148.097C360.15 148.097 350.23 188.637 365.01 201.217L370.22 193.777Z" fill="#FF760C"></path> <path d="M375.37 158.667L365.67 97.0769C365.67 97.0769 352.47 147.547 375.83 169.777L375.37 158.667Z" fill="#FF760C"></path> <path d="M377.27 97.4569C377.27 97.4569 352.34 56.0669 352.86 51.4569C352.86 51.4569 355.5 94.8569 386.86 116.457L377.27 97.4569Z" fill="#FF760C"></path> <path d="M380.19 85.237C380.19 85.237 356.67 26.427 346.03 21.667C346.03 21.667 379.63 38.747 382.15 83.557L380.19 85.237Z" fill="#FF760C"></path> <path d="M367.13 199.527L365.52 199.037C385.37 134.307 390.33 93.0369 379.47 82.6969L380.63 81.4769C392.13 92.3869 387.47 133.177 367.13 199.527Z" fill="#444053"></path> <path d="M312.47 351.047L310.1 350.207C312.2 344.277 314.47 338.257 316.85 332.317C337.57 280.677 355.21 232.647 366.52 195.767L368.59 194.767C357.26 231.717 339.94 281.597 319.19 333.297C316.82 339.177 314.56 345.177 312.47 351.047Z" fill="#444053"></path> <path d="M362.56 707.377C362.24 707.017 330.06 670.797 307.64 608.937C294.494 572.733 287.169 534.674 285.94 496.177C284.4 448.047 294.5 394.307 311.8 345.497L313.68 347.697C274.85 457.257 290.28 551.147 310.74 607.697C332.94 668.987 364.74 704.827 365.06 705.177L362.56 707.377Z" fill="#444053"></path> <path d="M649.37 290.177H645.09C643.825 290.177 642.8 291.202 642.8 292.467V360.907C642.8 362.172 643.825 363.197 645.09 363.197H649.37C650.635 363.197 651.66 362.172 651.66 360.907V292.467C651.66 291.202 650.635 290.177 649.37 290.177Z" fill="#3A3768"></path> <path d="M351.05 232.967H350.66C349.395 232.967 348.37 233.992 348.37 235.257V254.717C348.37 255.982 349.395 257.007 350.66 257.007H351.05C352.315 257.007 353.34 255.982 353.34 254.717V235.257C353.34 233.992 352.315 232.967 351.05 232.967Z" fill="#3A3768"></path> <path d="M351.5 276.987H350.48C349.215 276.987 348.19 278.012 348.19 279.277V316.537C348.19 317.802 349.215 318.827 350.48 318.827H351.5C352.765 318.827 353.79 317.802 353.79 316.537V279.277C353.79 278.012 352.765 276.987 351.5 276.987Z" fill="#3A3768"></path> <path d="M351.32 333.467H350.57C349.305 333.467 348.28 334.492 348.28 335.757V373.377C348.28 374.642 349.305 375.667 350.57 375.667H351.32C352.585 375.667 353.61 374.642 353.61 373.377V335.757C353.61 334.492 352.585 333.467 351.32 333.467Z" fill="#3A3768"></path> <path d="M608.59 153.527H390.17C368.637 153.527 351.18 170.983 351.18 192.517V716.927C351.18 738.461 368.637 755.917 390.17 755.917H608.59C630.124 755.917 647.58 738.461 647.58 716.927V192.517C647.58 170.983 630.124 153.527 608.59 153.527Z" fill="#3A3768"></path> <path d="M605.77 169.177H571.77V173.267C571.77 175.813 571.269 178.334 570.294 180.686C569.319 183.038 567.891 185.175 566.09 186.974C564.29 188.774 562.152 190.201 559.8 191.175C557.447 192.148 554.926 192.648 552.38 192.647H444.25C441.704 192.648 439.183 192.148 436.831 191.175C434.478 190.201 432.341 188.774 430.54 186.974C428.739 185.175 427.311 183.038 426.336 180.686C425.362 178.334 424.86 175.813 424.86 173.267V169.177H393.03C386.787 169.177 380.8 171.657 376.385 176.072C371.97 180.486 369.49 186.474 369.49 192.717V716.687C369.49 722.93 371.97 728.918 376.385 733.332C380.8 737.747 386.787 740.227 393.03 740.227H605.77C612.013 740.227 618.001 737.747 622.415 733.332C626.83 728.918 629.31 722.93 629.31 716.687V192.757C629.315 189.662 628.711 186.597 627.53 183.736C626.349 180.876 624.616 178.276 622.43 176.086C620.243 173.896 617.646 172.158 614.788 170.973C611.929 169.787 608.865 169.177 605.77 169.177V169.177Z" fill="#FF760C"></path> <path d="M508.31 171.517H474.66C472.523 171.517 470.79 173.25 470.79 175.387V176.047C470.79 178.184 472.523 179.917 474.66 179.917H508.31C510.447 179.917 512.18 178.184 512.18 176.047V175.387C512.18 173.25 510.447 171.517 508.31 171.517Z" fill="#E6E8EC"></path> <path d="M523.21 180.487C525.844 180.487 527.98 178.351 527.98 175.717C527.98 173.083 525.844 170.947 523.21 170.947C520.576 170.947 518.44 173.083 518.44 175.717C518.44 178.351 520.576 180.487 523.21 180.487Z" fill="#E6E8EC"></path> <path d="M750.2 127.107C750.2 127.107 666 122.027 675.92 181.027C675.92 181.027 673.92 191.457 683.4 196.187C683.4 196.187 683.55 191.817 692.04 193.307C695.062 193.808 698.133 193.956 701.19 193.747C705.313 193.476 709.237 191.872 712.37 189.177V189.177C712.37 189.177 736.04 179.397 745.24 140.717C745.24 140.717 752.05 132.277 751.78 130.107L737.57 136.177C737.57 136.177 742.43 146.427 738.57 154.947C738.57 154.947 738.11 136.547 735.38 136.947C734.83 137.027 728 140.497 728 140.497C728 140.497 736.35 158.347 730.05 171.327C730.05 171.327 732.44 149.327 725.39 141.787L715.39 147.627C715.39 147.627 725.15 166.067 718.53 181.117C718.53 181.117 720.23 158.037 713.28 149.047L704.22 156.117C704.22 156.117 713.39 174.287 707.8 186.767C707.8 186.767 707.07 159.907 702.26 157.877C702.26 157.877 694.33 164.877 693.12 167.737C693.12 167.737 699.4 180.937 695.5 187.897C695.5 187.897 693.11 169.997 691.15 169.897C691.15 169.897 683.25 181.757 682.43 189.897C682.43 189.897 682.77 177.807 689.24 168.777C689.24 168.777 681.6 170.087 677.14 175.037C677.14 175.037 678.37 166.657 691.19 165.917C691.19 165.917 697.72 156.917 699.46 156.377C699.46 156.377 686.72 155.307 678.99 158.737C678.99 158.737 685.79 150.827 701.8 154.427L710.75 147.117C710.75 147.117 693.97 144.827 686.85 147.357C686.85 147.357 695.04 140.357 713.16 145.457L722.9 139.637C722.9 139.637 708.59 136.557 700.07 137.637C700.07 137.637 709.07 132.787 725.76 138.047L732.76 134.917C732.76 134.917 722.28 132.857 719.21 132.527C716.14 132.197 715.98 131.357 715.98 131.357C722.619 130.25 729.436 131.008 735.67 133.547C735.67 133.547 750.45 128.037 750.2 127.107Z" fill="#FF760C"></path> <path d="M663.83 100.867C663.83 100.867 625.83 98.577 630.27 125.237C630.27 125.237 629.38 129.947 633.65 132.087C633.65 132.087 633.72 130.087 637.56 130.777C638.924 131.007 640.31 131.074 641.69 130.977C643.555 130.854 645.329 130.123 646.74 128.897V128.897C646.74 128.897 657.44 124.477 661.6 106.997C661.6 106.997 664.67 103.187 664.55 102.207L658.13 104.947C658.13 104.947 660.32 109.577 658.6 113.427C658.6 113.427 658.39 105.117 657.16 105.307C656.91 105.307 653.82 106.917 653.82 106.917C653.82 106.917 657.6 114.987 654.75 120.847C654.75 120.847 655.83 110.907 652.64 107.497L648.12 110.177C648.12 110.177 652.53 118.507 649.54 125.307C649.54 125.307 650.31 114.877 647.17 110.817L643.08 114.017C643.08 114.017 647.22 122.227 644.7 127.867C644.7 127.867 644.36 115.727 642.19 114.807C642.19 114.807 638.61 117.967 638.06 119.267C638.06 119.267 640.9 125.267 639.14 128.377C639.14 128.377 638.06 120.287 637.14 120.247C637.14 120.247 633.57 125.607 633.2 129.247C633.379 125.853 634.44 122.565 636.28 119.707C634.22 120.097 632.319 121.081 630.81 122.537C630.81 122.537 631.37 118.747 637.16 118.417C637.16 118.417 640.16 114.347 640.9 114.097C640.9 114.097 635.14 113.617 631.65 115.167C631.65 115.167 634.72 111.597 641.95 113.217L645.95 109.917C645.95 109.917 638.36 108.917 635.15 110.027C635.15 110.027 638.85 106.867 647.04 109.167L651.44 106.537C651.44 106.537 644.97 105.147 641.12 105.647C641.12 105.647 645.19 103.457 652.73 105.827L655.88 104.417C655.88 104.417 651.14 103.487 649.75 103.337C648.36 103.187 648.29 102.807 648.29 102.807C651.292 102.308 654.374 102.654 657.19 103.807C657.19 103.807 663.95 101.287 663.83 100.867Z" fill="#FF760C"></path> <path opacity="0.1" d="M602.86 226.537H395.91V665.777H602.86V226.537Z" fill="#C42525"></path> <path d="M596.52 788.397C596.52 788.397 591.64 777.037 589.46 771.797C588.23 768.797 586.15 768.297 584.56 768.367L584.65 767.367L585.04 762.637L585.12 761.637C588.89 760.847 592.12 760.227 592.12 760.227L589.77 638.907C589.77 638.907 588.77 637.627 586.35 629.907C585.15 626.057 579.35 621.327 573.93 617.557C573.08 616.967 572.25 616.407 571.43 615.867C573.404 614.214 575.478 612.684 577.64 611.287C580.72 609.497 581.74 599.287 581.74 599.287L581.23 600.287C581.74 599.287 581.23 573.217 581.23 573.217L579.43 546.157C579.43 546.157 578.15 513.987 568.15 505.557C558.15 497.127 545.52 494.177 545.52 494.177L538.52 492.377L525.62 489.067C525.26 488.477 524.91 487.857 524.62 487.207C524.49 486.957 524.37 486.697 524.25 486.437C528.191 483.647 531.406 479.952 533.624 475.663C535.843 471.374 537 466.616 537 461.787C537.002 460.166 536.872 458.547 536.61 456.947C536.61 456.647 536.5 456.337 536.44 456.037C537.5 455.311 538.503 454.506 539.44 453.627C540.968 452.41 542.216 450.879 543.1 449.137C543.239 448.796 543.353 448.445 543.44 448.087C543.44 447.987 543.44 447.887 543.5 447.777C543.56 447.667 543.59 447.247 543.62 446.977C543.62 446.877 543.62 446.777 543.62 446.677C543.62 446.387 543.62 446.087 543.62 445.797C543.62 445.727 543.62 445.657 543.62 445.577C543.62 445.247 543.57 444.917 543.52 444.577C543.525 444.557 543.525 444.537 543.52 444.517V444.517C543.337 443.356 543.036 442.217 542.62 441.117C541.62 438.537 540.32 436.117 539.85 433.367C539.27 430.117 539.94 426.567 538.39 423.647C537.747 422.543 536.867 421.595 535.814 420.87C534.761 420.146 533.561 419.663 532.3 419.457C529.762 419.065 527.165 419.362 524.78 420.317C523.614 420.871 522.357 421.21 521.07 421.317C520.134 421.263 519.216 421.039 518.36 420.657C515.391 419.492 512.571 417.978 509.96 416.147C508.081 414.664 506.073 413.352 503.96 412.227C502.899 411.673 501.728 411.361 500.532 411.312C499.335 411.264 498.143 411.481 497.04 411.947C493.34 413.827 492.64 419.067 489.2 421.377C486.83 422.977 483.74 422.817 480.88 422.917C478.02 423.017 474.78 423.727 473.37 426.207C472.37 427.927 472.61 429.977 472.8 431.987L472.86 432.667C472.86 432.907 472.86 433.157 472.92 433.397C473.078 435.968 472.693 438.544 471.79 440.957C470.41 444.617 467.79 448.227 467.88 451.957C467.888 452.551 467.966 453.141 468.11 453.717C468.188 454.005 468.282 454.289 468.39 454.567V454.567C468.941 455.803 469.558 457.008 470.24 458.177L470.33 458.337C470.4 458.477 470.47 458.617 470.53 458.757C470.59 458.897 470.71 459.137 470.78 459.327C470.85 459.517 470.86 459.517 470.89 459.607C470.92 459.697 471.02 459.977 471.07 460.167C471.235 460.731 471.306 461.319 471.28 461.907C471.163 462.665 471.099 463.43 471.09 464.197C471.094 464.581 471.229 464.952 471.472 465.249C471.716 465.545 472.054 465.749 472.43 465.827C472.843 465.817 473.244 465.692 473.59 465.467C474.487 464.956 475.34 464.37 476.14 463.717C476.14 464.037 476.14 464.357 476.2 464.717C476.897 471.874 480.119 478.55 485.29 483.547C485.29 483.857 485.29 484.177 485.22 484.547C485.15 484.917 485.17 485.267 485.15 485.637L473.95 489.157C473.95 489.157 474.01 489.357 474.13 489.697L472.95 490.167C467.14 492.517 460.67 495.437 457.05 498.087C455.45 499.247 453.99 500.197 452.68 500.987C447.924 503.898 444.277 508.315 442.32 513.537L442.17 513.917C441.17 516.207 436.27 531.787 436.27 531.787C436.27 531.787 432.68 540.467 432.16 546.087C432.16 546.087 426.26 564.717 427.8 576.977C427.8 576.977 423.18 594.597 424.98 597.397C424.98 597.397 423.14 604.977 431.22 612.607C430.63 612.967 429.99 613.357 429.32 613.787C423.06 617.727 414.03 624.117 412.49 629.047C410.1 636.717 409.07 638.047 409.07 638.047L406.65 759.177C406.65 759.177 409.88 759.797 413.65 760.577L413.73 761.577L414.12 766.297L414.21 767.297C412.62 767.227 410.54 767.777 409.31 770.737C407.12 775.967 402.31 787.317 402.31 787.317C402.31 787.317 391.54 797.317 398.07 806.597C398.358 807.021 398.693 807.41 399.07 807.757C403.76 812.017 413.76 809.287 420.87 806.507C424.483 804.965 427.599 802.452 429.87 799.247C430.157 798.872 430.518 798.56 430.931 798.331C431.344 798.102 431.8 797.961 432.27 797.917C433.901 797.654 435.438 796.983 436.74 795.967C437.524 795.395 438.157 794.641 438.586 793.77C439.014 792.899 439.225 791.937 439.2 790.967C439.195 790.917 439.195 790.867 439.2 790.817L438.57 776.587C438.57 776.587 437.8 766.647 435.35 767.287L434.72 767.437L434.55 766.437L434.22 764.507L434.05 763.507H435.41C435.41 763.507 435.75 752.267 439.86 743.427C443.97 734.587 446.67 663.177 446.67 663.177C446.67 663.177 497.54 664.007 499.24 659.237C500.24 659.237 501.33 659.237 502.37 659.167C504.08 663.937 552.09 664.167 552.09 664.167C552.09 664.167 554.82 735.657 558.92 744.507C559.785 746.403 560.504 748.362 561.07 750.367V750.367C562.361 755.004 563.135 759.77 563.38 764.577H564.74L564.56 765.577L564.23 767.497L564.06 768.497L563.41 768.347C560.98 767.717 560.21 777.657 560.21 777.657L559.56 791.977C559.509 792.943 559.701 793.906 560.116 794.779C560.532 795.652 561.159 796.407 561.94 796.977C563.264 798.016 564.829 798.704 566.49 798.977C566.961 799.015 567.418 799.152 567.832 799.38C568.245 799.607 568.606 799.92 568.89 800.297C571.164 803.5 574.279 806.012 577.89 807.557C585.57 810.557 596.61 813.487 600.71 807.657C607.29 798.357 596.52 788.397 596.52 788.397ZM467.22 610.057H467.34H467.22ZM547.57 569.177C547.57 569.177 548.86 574.027 551.16 576.577C553.46 579.127 552.32 594.967 552.32 594.967C551.415 595.024 550.518 595.168 549.64 595.397C547.87 584.867 546.24 573.177 547.57 569.177Z" fill="url(#paint0_linear)"></path> <path d="M436.96 768.787L416.85 770.787L416.29 764.057L415.9 759.427L415.35 752.657L434.35 753.657L435.86 762.347L436.18 764.237H436.19L436.96 768.787Z" fill="#8E6F7F"></path> <path d="M583.41 753.667L582.86 760.427L582.48 765.057L581.91 771.787L561.79 769.787L562.59 765.237L562.9 763.357L564.41 754.667L583.41 753.667Z" fill="#8E6F7F"></path> <path d="M562.1 656.277L502.3 659.087C499.58 659.22 496.86 659.22 494.14 659.087L437.01 656.287V611.027H562.1V656.277Z" fill="#5F5570"></path> <path opacity="0.1" d="M562.1 656.277L502.3 659.087C499.58 659.22 496.86 659.22 494.14 659.087L437.01 656.287V611.027H562.1V656.277Z" fill="black"></path> <path d="M485.52 489.087C485.52 489.087 465.6 495.777 458.1 501.277C456.54 502.417 455.1 503.357 453.84 504.127C449.208 506.983 445.664 511.305 443.77 516.407C443.72 516.547 443.67 516.667 443.62 516.777C442.62 519.027 437.87 534.277 437.87 534.277C437.87 534.277 434.37 542.777 433.87 548.277C433.37 553.777 462.37 568.527 462.37 568.527C462.37 568.527 448.37 599.027 454.62 606.777C460.87 614.527 552.12 618.277 550.12 606.777C548.12 595.277 544.62 576.277 546.37 571.027L577.37 548.527C577.37 548.527 576.12 517.027 566.37 508.777C556.62 500.527 544.37 497.527 544.37 497.527L524.96 492.527C524.96 492.527 518.12 509.527 510.62 511.777C503.12 514.027 486.69 503.637 485.52 489.087Z" fill="#EAEAF2"></path> <path opacity="0.1" d="M513.5 517.717C513.5 517.717 505.04 524.777 500.6 517.717C500.6 517.717 496.6 529.657 500.6 533.657L500.45 534.467L499.74 538.027L490.48 615.027L498.1 628.177L511.97 610.777L510.85 538.777L510.35 534.647L510.23 533.647H512.6C512.6 533.647 518.89 522.777 513.5 517.717Z" fill="black"></path> <path opacity="0.1" d="M515.5 517.717C515.5 517.717 507.04 524.777 502.6 517.717C502.6 517.717 498.6 529.657 502.6 533.657L502.45 534.467L501.74 538.027L492.48 615.027L500.1 628.177L513.97 610.777L512.85 538.777L512.35 534.647L512.23 533.647H514.6C514.6 533.647 520.89 522.777 515.5 517.717Z" fill="black"></path> <path d="M512.97 609.787L499.1 627.157L491.46 614.077L500.73 537.037L501.44 533.477L501.6 532.657L502.85 529.417L511.23 532.657L511.35 533.657L511.85 537.787L512.97 609.787Z" fill="#BC8487"></path> <path opacity="0.1" d="M435.86 762.337C431.545 762.309 427.242 761.871 423.01 761.027C420.92 760.507 418.3 759.927 415.91 759.417L415.35 752.647L434.35 753.647L435.86 762.337Z" fill="black"></path> <path d="M499.25 659.177C497.59 663.847 448.01 663.027 448.01 663.027C448.01 663.027 445.35 733.027 441.35 741.697C437.35 750.367 437.01 761.357 437.01 761.357C437.01 761.357 428.35 761.357 423.01 760.027C417.67 758.697 409.01 757.027 409.01 757.027L411.35 638.277C411.35 638.277 412.35 637.027 414.68 629.517C416.18 624.687 424.98 618.427 431.07 614.517C434.47 612.377 437.01 610.977 437.01 610.977L466.59 612.177L484.85 612.917C484.85 612.917 500.92 654.507 499.25 659.177Z" fill="#5F5570"></path> <path opacity="0.1" d="M436.97 768.777L416.85 770.777L416.28 764.047C417.033 764.068 417.776 764.231 418.47 764.527C422.14 767.167 432.63 765.067 436.18 764.227L436.97 768.777Z" fill="black"></path> <path d="M440.77 788.227C440.794 789.176 440.587 790.117 440.167 790.969C439.747 791.82 439.127 792.558 438.36 793.117C437.094 794.11 435.598 794.767 434.01 795.027C433.552 795.066 433.107 795.203 432.705 795.427C432.304 795.651 431.954 795.958 431.68 796.327C429.457 799.462 426.412 801.922 422.88 803.437C415.95 806.157 406.2 808.827 401.63 804.657C401.253 804.322 400.917 803.942 400.63 803.527C394.26 794.407 404.76 784.647 404.76 784.647C404.76 784.647 409.5 773.527 411.63 768.407C411.86 767.743 412.227 767.135 412.709 766.622C413.19 766.109 413.773 765.704 414.421 765.432C415.07 765.16 415.768 765.028 416.471 765.045C417.174 765.061 417.865 765.225 418.5 765.527C422.5 768.407 434.63 765.647 437 765.037C439.37 764.427 440.13 774.147 440.13 774.147L440.77 788.077C440.765 788.127 440.765 788.177 440.77 788.227V788.227Z" fill="#BC8487"></path> <path opacity="0.1" d="M583.42 753.657L582.86 760.417C580.47 760.927 577.86 761.507 575.75 762.027C571.522 762.872 567.222 763.314 562.91 763.347L564.42 754.657L583.42 753.657Z" fill="black"></path> <path d="M589.77 758.027C589.77 758.027 581.11 759.697 575.77 761.027C570.43 762.357 561.77 762.357 561.77 762.357C561.77 762.357 561.44 751.357 557.44 742.697C553.44 734.037 550.77 664.027 550.77 664.027C550.77 664.027 503.99 663.757 502.32 659.087C500.65 654.417 522.71 614.087 522.71 614.087L536.16 613.387L561.77 612.027C561.77 612.027 566.77 614.747 572.01 618.417C577.25 622.087 582.94 626.747 584.11 630.517C586.44 638.027 587.44 639.277 587.44 639.277L589.77 758.027Z" fill="#5F5570"></path> <path opacity="0.1" d="M582.48 765.047L581.92 771.777L561.79 769.777L562.59 765.227C566.14 766.077 576.59 768.167 580.29 765.527C580.983 765.231 581.726 765.068 582.48 765.047Z" fill="black"></path> <path d="M580.29 766.527C580.926 766.224 581.618 766.058 582.322 766.041C583.026 766.023 583.725 766.155 584.375 766.427C585.024 766.699 585.609 767.105 586.091 767.618C586.572 768.132 586.94 768.741 587.17 769.407C589.29 774.527 594.04 785.657 594.04 785.657C594.04 785.657 604.54 795.407 598.17 804.527C594.17 810.247 583.41 807.377 575.93 804.437C572.395 802.928 569.348 800.467 567.13 797.327C566.854 796.957 566.503 796.65 566.1 796.426C565.696 796.202 565.25 796.066 564.79 796.027C563.166 795.744 561.639 795.056 560.35 794.027C559.593 793.467 558.986 792.728 558.583 791.877C558.18 791.025 557.994 790.088 558.04 789.147L558.67 775.147C558.67 775.147 559.42 765.417 561.79 766.027C564.16 766.637 576.29 769.407 580.29 766.527Z" fill="#BC8487"></path> <path d="M528.6 497.527L508.41 518.927L507.85 519.527L507.12 519.097C502.9 516.597 481.79 503.857 483.6 500.027C484.6 497.847 485.19 493.307 485.5 489.397C485.5 488.927 485.56 488.467 485.6 488.017C485.8 484.927 485.85 482.527 485.85 482.527C485.85 482.527 523.85 476.027 522.35 482.527C521.74 485.157 522.65 488.117 523.94 490.707C524.32 491.457 524.74 492.167 525.15 492.837C526.16 494.499 527.314 496.068 528.6 497.527V497.527Z" fill="#FFC4D0"></path> <path opacity="0.1" d="M523.94 490.707C518.271 494.885 511.3 496.908 504.275 496.415C497.25 495.922 490.63 492.945 485.6 488.017C485.8 484.927 485.85 482.527 485.85 482.527C485.85 482.527 523.85 476.027 522.35 482.527C521.77 485.177 522.65 488.117 523.94 490.707Z" fill="black"></path> <path d="M536.01 465.817C536.12 473.514 533.234 480.953 527.961 486.561C522.689 492.17 515.443 495.51 507.754 495.876C500.065 496.242 492.534 493.606 486.753 488.523C480.972 483.44 477.392 476.31 476.77 468.637C476.69 467.704 476.65 466.764 476.65 465.817C476.578 461.875 477.291 457.959 478.75 454.297C480.208 450.634 482.382 447.299 485.143 444.486C487.905 441.673 491.2 439.438 494.835 437.913C498.47 436.388 502.373 435.602 506.315 435.602C510.257 435.602 514.16 436.388 517.795 437.913C521.43 439.438 524.725 441.673 527.487 444.486C530.248 447.299 532.422 450.634 533.88 454.297C535.339 457.959 536.052 461.875 535.98 465.817H536.01Z" fill="#FFC4D0"></path> <path opacity="0.1" d="M535.64 461.077C534.868 461.706 533.972 462.165 533.011 462.426C532.05 462.686 531.044 462.741 530.06 462.587C525.48 461.587 523.91 454.587 519.23 454.107C514.55 453.627 511.44 460.107 506.7 459.977C504.7 459.927 502.9 458.617 501.06 457.707C497.84 456.117 492.54 455.147 489.06 456.347C483.83 458.137 482.06 462.977 478.72 466.827C478.15 467.482 477.524 468.088 476.85 468.637C476.77 467.704 476.73 466.764 476.73 465.817C476.662 458.313 479.44 451.062 484.504 445.525C489.568 439.987 496.543 436.574 504.023 435.973C511.503 435.372 518.933 437.628 524.816 442.286C530.7 446.944 534.599 453.658 535.73 461.077H535.64Z" fill="black"></path> <path d="M501.06 456.717C502.9 457.617 504.66 458.937 506.7 458.987C511.43 459.107 514.52 452.597 519.22 453.107C523.92 453.617 525.47 460.557 530.07 461.587C533.16 462.287 536.07 459.977 538.38 457.827C539.873 456.638 541.091 455.141 541.95 453.437C542.95 450.957 542.43 448.097 541.5 445.577C540.57 443.057 539.26 440.637 538.8 437.987C538.24 434.807 538.89 431.327 537.38 428.467C536.755 427.386 535.898 426.458 534.871 425.749C533.844 425.04 532.672 424.568 531.44 424.367C528.966 423.983 526.435 424.27 524.11 425.197C522.977 425.747 521.754 426.086 520.5 426.197C519.585 426.141 518.687 425.921 517.85 425.547C514.958 424.407 512.212 422.927 509.67 421.137C507.848 419.682 505.896 418.397 503.84 417.297C502.807 416.755 501.666 416.449 500.5 416.402C499.335 416.355 498.173 416.569 497.1 417.027C493.5 418.867 492.81 424.027 489.46 426.257C487.15 427.817 484.14 427.657 481.36 427.767C478.58 427.877 475.36 428.547 474.04 430.977C472.86 433.067 473.45 435.637 473.6 438.027C473.75 440.544 473.371 443.065 472.49 445.427C470.94 449.567 467.79 453.647 468.91 457.927C469.64 460.737 472.16 463.067 472.01 465.927C471.892 466.665 471.829 467.41 471.82 468.157C471.823 468.533 471.955 468.897 472.193 469.188C472.432 469.479 472.762 469.679 473.13 469.757C473.531 469.752 473.921 469.627 474.25 469.397C475.913 468.467 477.404 467.259 478.66 465.827C482.04 461.967 483.79 457.137 489.02 455.347C492.55 454.177 497.84 455.117 501.06 456.717Z" fill="#8E6F7F"></path> <path d="M535.47 631.277L530.07 632.747L517.6 636.177C514.714 638.327 511.466 639.943 508.01 640.947C500.38 642.877 495.45 638.677 491.35 632.177C489.7 629.577 490.53 627.497 492.69 625.867C497.89 621.937 510.75 620.657 514.69 621.177C517.278 621.388 519.878 620.983 522.28 619.997C523.985 619.377 525.628 618.6 527.19 617.677L535.47 631.277Z" fill="#FFC4D0"></path> <path opacity="0.1" d="M535.47 631.277L530.07 632.747C528.52 628.077 525.97 622.217 522.32 619.967C524.025 619.347 525.668 618.57 527.23 617.647L535.47 631.277Z" fill="black"></path> <path opacity="0.1" d="M571.99 618.417C569.75 620.227 567.85 621.877 567.85 621.877C567.85 621.877 541.85 630.027 536.85 640.277C536.85 640.277 532.85 620.277 524.35 620.027C524.35 620.027 533.5 616.437 536.14 613.367L561.77 612.027C561.77 612.027 566.77 614.747 571.99 618.417Z" fill="black"></path> <path d="M571.6 540.027L577.35 548.527L579.1 575.027C579.1 575.027 579.6 600.527 579.1 601.527L579.6 600.527C579.6 600.527 578.6 610.527 575.6 612.277C572.6 614.027 565.85 619.877 565.85 619.877C565.85 619.877 539.85 628.027 534.85 638.277C534.85 638.277 530.85 618.277 522.35 618.027C522.35 618.027 535.1 613.027 534.85 609.777C534.85 609.777 544.6 601.027 545.35 598.777C546.1 596.527 550.97 596.277 550.97 596.277C550.97 596.277 552.1 580.777 549.85 578.277C547.6 575.777 546.35 571.027 546.35 571.027L571.6 540.027Z" fill="#EAEAF2"></path> <path opacity="0.1" d="M508.01 640.917C500.38 642.847 495.45 638.647 491.35 632.147C489.7 629.547 490.53 627.467 492.69 625.837L493.47 626.147C493.47 626.147 507.22 632.107 508.01 640.917Z" fill="black"></path> <path d="M504.85 648.907C495.85 661.407 479.1 644.027 477.85 640.527C477.4 639.257 475.69 638.127 473.72 637.217C471.221 636.125 468.627 635.265 465.97 634.647L480.85 622.527L483.7 623.667L492.47 627.177C492.47 627.177 513.85 636.407 504.85 648.907Z" fill="#FFC4D0"></path> <path opacity="0.1" d="M483.7 623.667C475.5 627.567 473.75 633.177 473.7 637.217C471.201 636.125 468.607 635.265 465.95 634.647L480.83 622.527L483.7 623.667Z" fill="black"></path> <path opacity="0.1" d="M470.6 645.277C470.6 645.277 446.6 626.277 435.1 618.027C433.661 617.002 432.322 615.843 431.1 614.567C434.5 612.427 437.04 611.027 437.04 611.027L466.62 612.227C467.41 613.597 467.88 614.527 467.88 614.527L483.88 625.027C464.6 631.277 470.6 645.277 470.6 645.277Z" fill="black"></path> <path d="M438.6 545.527L433.85 548.277C433.85 548.277 428.1 566.527 429.6 578.527C429.6 578.527 425.1 595.777 426.85 598.527C426.85 598.527 424.6 607.777 436.1 616.027C447.6 624.277 471.6 643.277 471.6 643.277C471.6 643.277 465.6 629.277 484.85 623.027L468.85 612.527C468.85 612.527 463.48 601.867 458.35 599.527C458.35 599.527 454.35 595.527 456.85 592.777C459.35 590.027 461.35 587.027 461.35 584.277C461.35 581.527 462.35 568.527 462.35 568.527L465.35 554.527L438.6 545.527Z" fill="#EAEAF2"></path> <path opacity="0.1" d="M511.35 533.647H501.6C501.541 533.592 501.488 533.532 501.44 533.467L501.6 532.647L502.85 529.407L511.23 532.647L511.35 533.647Z" fill="black"></path> <path d="M514.5 516.717C514.5 516.717 506.04 523.777 501.6 516.717C501.6 516.717 497.6 528.657 501.6 532.657H513.6C513.6 532.657 519.89 521.777 514.5 516.717Z" fill="#BC8487"></path> <path opacity="0.1" d="M525.94 493.527L538.54 496.777C538.54 496.777 526.6 527.777 523.97 527.777L508.85 520.527L525.94 493.527Z" fill="black"></path> <path opacity="0.1" d="M528.6 497.527L508.41 518.927L507.85 519.527L507.12 519.097L524.77 492.177L525.2 492.887C526.196 494.53 527.334 496.082 528.6 497.527V497.527Z" fill="black"></path> <path d="M524.94 492.527L537.54 495.777C537.54 495.777 525.6 526.777 522.97 526.777L507.85 519.527L524.94 492.527Z" fill="#EAEAF2"></path> <path opacity="0.1" d="M484.52 490.087L473.6 493.527C473.6 493.527 484.35 526.027 487.35 527.777L506.85 520.527L484.52 490.087Z" fill="black"></path> <path opacity="0.1" d="M508.41 518.927L507.85 519.527C507.85 519.527 481.6 504.277 483.6 500.027C484.6 497.847 485.19 493.307 485.5 489.397V488.787L508.41 518.927Z" fill="black"></path> <path d="M485.52 489.087L474.6 492.527C474.6 492.527 485.35 525.027 488.35 526.777L507.85 519.527L485.52 489.087Z" fill="#EAEAF2"></path> <path opacity="0.1" d="M459.51 542.177C459.51 542.177 466.09 543.347 465.97 550.177C465.85 557.007 468.68 541.347 468.68 541.347L459.51 542.177Z" fill="black"></path> <path opacity="0.1" d="M461.01 563.177C461.01 563.177 459.18 573.507 461.01 582.847C462.84 592.187 462.68 595.347 464.1 595.847C465.52 596.347 461.01 563.177 461.01 563.177Z" fill="black"></path> <path opacity="0.1" d="M545.01 562.177C544.485 562.244 543.981 562.424 543.534 562.707C543.086 562.989 542.706 563.366 542.42 563.812C542.134 564.257 541.949 564.759 541.878 565.284C541.807 565.808 541.852 566.342 542.01 566.847C542.85 571.027 545.01 562.177 545.01 562.177Z" fill="black"></path> <path opacity="0.1" d="M430.68 597.177C430.68 597.177 452.11 595.347 455.68 599.177C459.25 603.007 430.68 597.177 430.68 597.177Z" fill="black"></path> <path opacity="0.1" d="M555.01 598.627C555.01 598.627 570.68 596.697 574.35 599.367Z" fill="black"></path> <path opacity="0.1" d="M561.35 601.177C561.35 601.177 570.68 601.507 572.85 602.677Z" fill="black"></path> <path opacity="0.1" d="M563.18 604.527C563.18 604.527 571.68 604.197 572.85 605.527Z" fill="black"></path> <path opacity="0.1" d="M443.31 651.527C443.31 651.527 450.59 655.317 449.85 659.187C449.11 663.057 443.31 651.527 443.31 651.527Z" fill="black"></path> <path opacity="0.1" d="M437.01 653.367C437.01 653.367 448.12 667.777 446.61 672.527C445.1 677.277 437.01 653.367 437.01 653.367Z" fill="black"></path> <path opacity="0.1" d="M556.1 655.757C556.1 655.757 550.6 660.287 550.75 664.027Z" fill="black"></path> <path opacity="0.1" d="M429.1 745.027C429.1 745.027 429.1 749.277 436.97 755.527Z" fill="black"></path> <path opacity="0.1" d="M568.01 735.027C568.01 735.027 567.17 743.867 559.51 748.447Z" fill="black"></path> <g opacity="0.1"> <path opacity="0.1" d="M473.6 434.987C473.6 434.297 473.48 433.587 473.42 432.887C473.293 434.414 473.339 435.951 473.56 437.467C473.628 436.642 473.642 435.814 473.6 434.987Z" fill="black"></path> <path opacity="0.1" d="M472.01 462.927C472.16 460.027 469.64 457.697 468.91 454.927C468.873 454.793 468.846 454.655 468.83 454.517C468.602 455.645 468.629 456.811 468.91 457.927C469.5 460.217 471.28 462.177 471.84 464.397C471.89 463.877 471.99 463.407 472.01 462.927Z" fill="black"></path> <path opacity="0.1" d="M541.95 450.437C541.088 452.139 539.87 453.636 538.38 454.827C536.05 456.977 533.16 459.287 530.07 458.587C525.48 457.587 523.9 450.587 519.22 450.107C514.54 449.627 511.43 456.107 506.7 455.977C504.7 455.927 502.9 454.617 501.06 453.707C497.84 452.117 492.55 451.147 489.06 452.347C483.83 454.137 482.06 458.977 478.7 462.827C477.446 464.26 475.958 465.471 474.3 466.407C473.964 466.629 473.572 466.75 473.17 466.757C472.919 466.723 472.682 466.622 472.485 466.463C472.287 466.304 472.137 466.095 472.05 465.857V465.927C471.932 466.668 471.869 467.417 471.86 468.167C471.865 468.541 471.998 468.903 472.236 469.192C472.474 469.48 472.804 469.68 473.17 469.757C473.572 469.75 473.964 469.629 474.3 469.407C475.958 468.471 477.446 467.26 478.7 465.827C482.08 461.977 483.83 457.137 489.06 455.347C492.59 454.147 497.88 455.117 501.06 456.707C502.9 457.617 504.66 458.927 506.7 458.977C511.43 459.097 514.52 452.587 519.22 453.107C523.92 453.627 525.48 460.547 530.07 461.587C533.16 462.287 536.07 459.977 538.38 457.827C539.87 456.636 541.088 455.139 541.95 453.437C542.507 451.992 542.656 450.421 542.38 448.897C542.295 449.425 542.151 449.942 541.95 450.437V450.437Z" fill="black"></path> </g> <path opacity="0.1" d="M404.77 784.657C404.77 784.657 412.94 782.137 416.33 786.917Z" fill="black"></path> <path opacity="0.1" d="M594.04 785.657C594.04 785.657 580.51 784.867 581.04 788.527Z" fill="black"></path> <path opacity="0.1" d="M864.17 778.247C879.043 778.247 891.1 776.21 891.1 773.697C891.1 771.184 879.043 769.147 864.17 769.147C849.297 769.147 837.24 771.184 837.24 773.697C837.24 776.21 849.297 778.247 864.17 778.247Z" fill="#FF760C"></path> <path opacity="0.1" d="M91.0901 815.587C105.963 815.587 118.02 813.55 118.02 811.037C118.02 808.524 105.963 806.487 91.0901 806.487C76.2171 806.487 64.1602 808.524 64.1602 811.037C64.1602 813.55 76.2171 815.587 91.0901 815.587Z" fill="#FF760C"></path> <path opacity="0.1" d="M195.26 839.997C210.133 839.997 222.19 837.96 222.19 835.447C222.19 832.934 210.133 830.897 195.26 830.897C180.387 830.897 168.33 832.934 168.33 835.447C168.33 837.96 180.387 839.997 195.26 839.997Z" fill="#FF760C"></path> <path d="M805.22 829.257C827.427 829.257 845.43 826.213 845.43 822.457C845.43 818.701 827.427 815.657 805.22 815.657C783.012 815.657 765.01 818.701 765.01 822.457C765.01 826.213 783.012 829.257 805.22 829.257Z" fill="#FF760C"></path> <path d="M821.85 811.337C823.683 809.838 825.018 807.82 825.68 805.547C826.18 803.257 825.2 800.547 823 799.657C820.54 798.717 817.91 800.427 815.92 802.147C813.93 803.867 811.64 805.837 809.03 805.467C810.373 804.252 811.379 802.71 811.948 800.99C812.518 799.271 812.632 797.434 812.28 795.657C812.163 794.92 811.848 794.229 811.37 793.657C810.01 792.197 807.53 792.817 805.9 793.977C800.7 797.627 799.25 804.697 799.22 811.047C798.69 808.757 799.14 806.367 799.12 804.047C799.1 801.727 798.47 799.047 796.48 797.817C795.252 797.158 793.873 796.834 792.48 796.877C790.14 796.787 787.54 797.027 785.94 798.737C783.94 800.857 784.48 804.417 786.2 806.737C787.92 809.057 790.55 810.547 792.97 812.157C794.906 813.311 796.557 814.887 797.8 816.767C797.95 817.03 798.071 817.308 798.16 817.597H812.77C816.065 815.928 819.119 813.822 821.85 811.337V811.337Z" fill="#FF760C"></path> <path d="M196.65 723.627C196.65 723.627 202.15 730.817 194.12 741.627C186.09 752.437 179.47 761.627 182.12 768.397C182.12 768.397 194.24 748.247 204.12 747.967C214 747.687 207.5 735.747 196.65 723.627Z" fill="#FF760C"></path> <path opacity="0.1" d="M196.65 723.627C197.13 724.323 197.507 725.084 197.77 725.887C207.39 737.187 212.52 747.737 203.27 747.997C194.66 748.247 184.33 763.647 181.85 767.537C181.93 767.837 182.03 768.127 182.14 768.427C182.14 768.427 194.26 748.277 204.14 747.997C214.02 747.717 207.5 735.747 196.65 723.627Z" fill="black"></path> <path d="M206.86 732.787C206.86 735.317 206.58 737.367 206.23 737.367C205.88 737.367 205.6 735.317 205.6 732.787C205.6 730.257 205.95 731.447 206.3 731.447C206.65 731.447 206.86 730.257 206.86 732.787Z" fill="#FFD037"></path> <path d="M210.37 735.807C208.15 737.017 206.21 737.747 206.05 737.437C205.89 737.127 207.54 735.897 209.76 734.687C211.98 733.477 211.11 734.357 211.27 734.687C211.43 735.017 212.59 734.597 210.37 735.807Z" fill="#FFD037"></path> <path d="M167.64 723.627C167.64 723.627 162.14 730.817 170.17 741.627C178.2 752.437 184.82 761.627 182.17 768.397C182.17 768.397 170.06 748.247 160.17 747.967C150.28 747.687 156.77 735.747 167.64 723.627Z" fill="#FF760C"></path> <path opacity="0.1" d="M167.64 723.627C167.159 724.323 166.778 725.084 166.51 725.887C156.89 737.187 151.77 747.737 161.01 747.997C169.63 748.247 179.96 763.647 182.44 767.537C182.358 767.839 182.258 768.137 182.14 768.427C182.14 768.427 170.03 748.277 160.14 747.997C150.25 747.717 156.77 735.747 167.64 723.627Z" fill="black"></path> <path d="M157.42 732.787C157.42 735.317 157.71 737.367 158.06 737.367C158.41 737.367 158.69 735.317 158.69 732.787C158.69 730.257 158.34 731.447 157.99 731.447C157.64 731.447 157.42 730.257 157.42 732.787Z" fill="#FFD037"></path> <path d="M153.92 735.807C156.14 737.017 158.07 737.747 158.24 737.437C158.41 737.127 156.74 735.897 154.52 734.687C152.3 733.477 153.18 734.357 153.01 734.687C152.84 735.017 151.7 734.597 153.92 735.807Z" fill="#FFD037"></path> <path d="M159.17 767.487C159.17 767.487 174.53 767.007 179.17 763.717C183.81 760.427 202.8 756.477 203.94 761.767C205.08 767.057 227.03 788.057 209.69 788.197C192.35 788.337 169.39 785.497 164.77 782.687C160.15 779.877 159.17 767.487 159.17 767.487Z" fill="#A8A8A8"></path> <path opacity="0.2" d="M209.99 786.357C192.65 786.497 169.69 783.657 165.07 780.847C161.56 778.697 160.15 771.007 159.68 767.467H159.17C159.17 767.467 160.17 779.847 164.76 782.667C169.35 785.487 192.34 788.317 209.68 788.177C214.68 788.177 216.41 786.357 216.32 783.717C215.62 785.337 213.71 786.327 209.99 786.357Z" fill="black"></path> </g> <defs> <linearGradient id="paint0_linear" x1="395.91" y1="611.137" x2="602.86" y2="611.137" gradientUnits="userSpaceOnUse"> <stop stop-color="#808080" stop-opacity="0.25"></stop> <stop offset="0.54" stop-color="#808080" stop-opacity="0.12"></stop> <stop offset="1" stop-color="#808080" stop-opacity="0.1"></stop> </linearGradient> <clipPath id="clip0"> <rect width="1009.54" height="839.64" fill="white" transform="translate(0 0.356934)"></rect> </clipPath> </defs> </svg> 