<?xml version="1.0" encoding="UTF-8"?> <svg xmlns="http://www.w3.org/2000/svg" width="955" height="713" viewBox="0 0 955 713" fill="none"> <g clip-path="url(#clip0)"> <path d="M788.254 246.225H308.254V625.225H788.254V246.225Z" fill="#F2F2F2"></path> <path d="M721.254 581.225H239.254V200.225H721.254V581.225ZM241.254 579.225H719.254V202.225H241.254V579.225Z" fill="#3F3D56"></path> <path d="M577.649 698.524H21.541V700.885H577.649V698.524Z" fill="#3F3D56"></path> <path d="M413.254 503.595L412.973 305.595L637.113 404.278L413.254 503.595Z" fill="#FF760C"></path> <path d="M367.729 314.208C367.729 314.208 388.846 290.478 393.23 299.521C397.615 308.564 371.769 322.312 371.769 322.312L367.729 314.208Z" fill="#A0616A"></path> <path d="M378.784 323.995C378.784 323.995 369.394 327.445 366.674 331.635C363.954 335.835 354.904 340.215 354.904 340.215L354.114 340.685L345.574 345.775L334.384 352.435L298.964 373.535L252.214 392.255C251.854 385.725 251.504 379.195 251.174 373.015C251.074 371.165 251.054 369.325 251.094 367.485C251.684 367.305 252.284 367.145 252.894 367.015C266.724 364.065 272.604 359.775 272.604 359.775L299.644 343.465C299.644 343.465 320.874 329.935 334.344 323.585C336.234 322.685 337.974 321.935 339.474 321.385C351.674 316.905 371.394 309.665 371.394 309.665L371.624 310.115L376.504 319.565L378.784 323.995Z" fill="#FF760C"></path> <path opacity="0.1" d="M378.784 323.995C378.784 323.995 369.394 327.445 366.674 331.635C363.954 335.835 354.904 340.215 354.904 340.215L354.114 340.685L345.574 345.775L334.384 352.435L298.964 373.535L252.214 392.255C251.854 385.725 251.504 379.195 251.174 373.015C251.074 371.165 251.054 369.325 251.094 367.485C251.684 367.305 252.284 367.145 252.894 367.015C266.724 364.065 272.604 359.775 272.604 359.775L299.644 343.465C299.644 343.465 320.874 329.935 334.344 323.585C336.234 322.685 337.974 321.935 339.474 321.385C351.674 316.905 371.394 309.665 371.394 309.665L371.624 310.115L376.504 319.565L378.784 323.995Z" fill="black" fill-opacity="0.3"></path> <path d="M371.394 503.384L371.114 305.384L595.254 404.066L371.394 503.384Z" fill="#FF760C"></path> <path opacity="0.2" d="M580.932 397.761L371.376 490.732L371.394 503.384L595.254 404.066L580.932 397.761Z" fill="black" fill-opacity="0.3"></path> <path d="M308.754 666.725V687.725H324.754L322.754 665.725L308.754 666.725Z" fill="#A0616A"></path> <path d="M246.754 665.725L241.754 689.725L261.754 690.725V665.725H246.754Z" fill="#A0616A"></path> <path d="M254.754 475.725C254.754 475.725 249.754 473.725 248.754 491.725C247.754 509.725 246.754 571.725 246.754 571.725C246.754 571.725 236.754 626.725 240.754 642.725C244.754 658.725 244.754 669.725 244.754 669.725H262.754L263.754 659.725L264.754 632.725C264.754 632.725 274.754 607.725 271.754 584.725L295.754 511.725L307.754 589.725C307.754 589.725 302.754 608.725 303.754 628.725C304.754 648.725 304.754 674.725 304.754 674.725L324.754 672.725L340.754 578.725C340.754 578.725 349.754 484.725 340.754 479.725C331.754 474.725 254.754 475.725 254.754 475.725Z" fill="#2F2E41"></path> <path d="M314.754 680.725C314.754 680.725 305.754 668.725 301.754 677.725C297.754 686.725 288.754 698.725 295.754 704.725C302.754 710.725 311.754 712.725 314.754 710.725C317.754 708.725 348.754 692.725 348.754 692.725C348.754 692.725 354.754 675.725 342.754 674.725C330.754 673.725 326.754 670.725 326.754 670.725L314.754 680.725Z" fill="#2F2E41"></path> <path d="M245.754 683.725C245.754 683.725 245.754 673.725 241.754 676.725C237.754 679.725 234.754 692.725 234.754 692.725C234.754 692.725 210.754 711.725 233.754 711.725C256.754 711.725 271.754 715.725 269.754 706.725C267.754 697.725 264.754 682.725 264.754 682.725C264.754 682.725 254.754 669.725 245.754 683.725Z" fill="#2F2E41"></path> <path d="M308.754 302.725C322.561 302.725 333.754 291.532 333.754 277.725C333.754 263.918 322.561 252.725 308.754 252.725C294.947 252.725 283.754 263.918 283.754 277.725C283.754 291.532 294.947 302.725 308.754 302.725Z" fill="#A0616A"></path> <path d="M289.254 286.225C289.254 286.225 285.254 315.225 279.254 319.225C273.254 323.225 319.254 324.225 319.254 324.225C319.254 324.225 316.254 301.225 319.254 295.225L289.254 286.225Z" fill="#A0616A"></path> <path d="M367.754 484.725C367.754 484.725 382.754 512.725 372.754 513.725C362.754 514.725 358.754 485.725 358.754 485.725L367.754 484.725Z" fill="#A0616A"></path> <path d="M285.656 295.879C289.45 297.728 293.759 298.237 297.879 297.321C301.998 296.405 305.686 294.119 308.339 290.836C311.702 286.44 313.652 280.039 319.016 278.672C322.518 277.78 326.556 279.464 329.683 277.652C335.518 274.271 331.42 263.553 336.838 259.538C334.507 259.506 332.274 258.599 330.58 256.998C328.886 255.397 327.856 253.217 327.693 250.892C327.554 252.764 325.093 253.603 323.298 253.056C321.503 252.508 320.093 251.127 318.416 250.283C315.488 248.807 312.022 249.076 308.756 249.38C300.412 250.156 291.409 251.215 285.28 256.93C279.52 262.299 277.606 270.886 278.727 278.68C279.849 286.474 281.83 289.032 286.022 295.698L285.656 295.879Z" fill="#2F2E41"></path> <path d="M347.754 329.725L347.614 330.725L345.574 345.775L337.204 407.435L336.754 410.725C336.754 410.725 337.744 413.135 338.984 416.975C341.084 423.445 343.924 433.975 344.034 443.895C344.068 445.843 343.974 447.79 343.754 449.725C342.254 462.475 341.874 475.225 341.784 480.805C341.754 482.665 341.754 483.725 341.754 483.725L250.754 480.725C251.322 479.445 251.826 478.136 252.264 476.805C255.552 467.141 256.742 456.886 255.754 446.725C254.864 438.265 253.474 415.215 252.214 392.255C251.854 385.725 251.504 379.195 251.174 373.015C251.074 371.165 251.054 369.325 251.094 367.485C251.338 356.732 253.942 346.164 258.722 336.529C263.502 326.893 270.34 318.426 278.754 311.725C278.754 311.725 280.594 311.805 283.494 311.975C292.614 312.505 312.254 313.885 318.424 316.155C318.707 316.255 318.985 316.372 319.254 316.505C322.234 317.975 328.464 320.885 334.344 323.585C341.294 326.785 347.754 329.725 347.754 329.725Z" fill="#FF760C"></path> <path d="M333.754 330.725H347.754C347.754 330.725 359.754 344.725 357.754 358.725C355.754 372.725 357.754 379.725 357.754 379.725L363.754 410.725C363.754 410.725 370.754 442.725 370.754 455.725V489.725L354.754 491.725C354.754 491.725 354.754 481.725 351.754 477.725C348.754 473.725 347.754 463.725 347.754 463.725L335.754 399.725L333.754 330.725Z" fill="#FF760C"></path> <path d="M129.287 312.766L100.456 323.917L111.22 351.75L140.052 340.599L129.287 312.766Z" fill="#FF760C"></path> <path d="M134.841 338.404L104.492 350.142L93.1611 320.844L123.51 309.106L134.841 338.404ZM105.443 348.09L132.757 337.526L122.559 311.158L95.2451 321.722L105.443 348.09Z" fill="#3F3D56"></path> <path d="M875.068 122.073L865.018 92.8398L836.797 102.542L846.847 131.775L875.068 122.073Z" fill="#FF760C"></path> <path d="M849.238 126.652L838.659 95.8805L868.365 85.6675L878.945 116.439L849.238 126.652ZM840.673 96.9084L850.195 124.603L876.93 115.411L867.409 87.7167L840.673 96.9084Z" fill="#3F3D56"></path> <path d="M84.4935 700.03L83.2263 699.555C82.9478 699.45 55.2338 688.832 42.2513 664.756C29.2683 640.679 35.6254 611.689 35.6911 611.4L35.9904 610.08L37.2569 610.555C37.5354 610.659 65.2489 621.278 78.2319 645.354C91.2149 669.431 84.8578 698.421 84.7921 698.71L84.4935 700.03ZM44.3302 663.635C55.3064 683.992 77.2069 694.427 82.7558 696.809C83.8108 690.861 87.1195 666.812 76.1531 646.475C65.1878 626.14 43.2786 615.689 37.7274 613.301C36.6718 619.252 33.3644 643.299 44.3302 663.635Z" fill="#3F3D56"></path> <path d="M52.173 656.31C75.5042 670.347 84.4898 698.228 84.4898 698.228C84.4898 698.228 55.648 703.351 32.3168 689.314C8.98557 675.277 0 647.396 0 647.396C0 647.396 28.8418 642.273 52.173 656.31Z" fill="#FF760C"></path> <path d="M954.127 25.4182H21.127V27.4182H954.127V25.4182Z" fill="#3F3D56"></path> <path d="M580.883 93.8114H367.48V96.2092H580.883V93.8114Z" fill="#3F3D56"></path> <path d="M580.883 110.596H367.48V112.994H580.883V110.596Z" fill="#3F3D56"></path> <path d="M580.883 127.38H367.48V129.778H580.883V127.38Z" fill="#3F3D56"></path> </g> <defs> <clipPath id="clip0"> <rect width="954.127" height="712.254" fill="white" transform="translate(0 0.356934)"></rect> </clipPath> </defs> </svg> 