<?xml version="1.0" encoding="UTF-8"?> <svg xmlns="http://www.w3.org/2000/svg" width="94" height="95" viewBox="0 0 94 95" fill="none"> <g clip-path="url(#clip0)"> <g filter="url(#filter0_d)"> <path d="M69 22.528C69 10.3777 59.1503 0.528 47 0.528C34.8497 0.528 25 10.3777 25 22.528C25 34.6783 34.8497 44.528 47 44.528C59.1503 44.528 69 34.6783 69 22.528Z" fill="white"></path> </g> <mask id="mask0" maskUnits="userSpaceOnUse" x="37" y="12" width="20" height="21"> <rect x="37.2676" y="12.6679" width="19.4648" height="19.7201" fill="#C4C4C4"></rect> </mask> <g mask="url(#mask0)"> <rect x="35.6852" y="11.2715" width="31.3617" height="16.3885" transform="rotate(45 35.6852 11.2715)" fill="#FF760C"></rect> <rect x="25.3489" y="23.7451" width="31.3617" height="7.55835" transform="rotate(-45 25.3489 23.7451)" fill="#FF760C"></rect> <rect x="30.6935" y="29.0897" width="31.3617" height="6.84178" transform="rotate(-45 30.6935 29.0897)" fill="#FF994A"></rect> </g> </g> <defs> <filter id="filter0_d" x="0" y="0.528" width="94" height="94" filterUnits="userSpaceOnUse" color-interpolation-filters="sRGB"> <feFlood flood-opacity="0" result="BackgroundImageFix"></feFlood> <feColorMatrix in="SourceAlpha" type="matrix" values="0 0 0 0 0 0 0 0 0 0 0 0 0 0 0 0 0 0 127 0"></feColorMatrix> <feOffset dy="25"></feOffset> <feGaussianBlur stdDeviation="12.5"></feGaussianBlur> <feColorMatrix type="matrix" values="0 0 0 0 0.458333 0 0 0 0 0.458333 0 0 0 0 0.458333 0 0 0 0.1 0"></feColorMatrix> <feBlend mode="normal" in2="BackgroundImageFix" result="effect1_dropShadow"></feBlend> <feBlend mode="normal" in="SourceGraphic" in2="effect1_dropShadow" result="shape"></feBlend> </filter> <clipPath id="clip0"> <rect width="94" height="94" fill="white" transform="translate(0 0.528)"></rect> </clipPath> </defs> </svg> 