<?xml version="1.0" encoding="UTF-8"?> <svg xmlns="http://www.w3.org/2000/svg" width="1142" height="789" viewBox="0 0 1142 789" fill="none"> <g clip-path="url(#clip0)"> <path opacity="0.1" d="M9.24967 415.232C29.4097 382.302 74.9997 388.042 107.33 405.232C139.66 422.422 171.92 448.082 207.5 443.152C237.5 438.992 262.1 412.832 275.39 382.652C288.68 352.472 292.58 318.442 296.32 285.112C301.02 243.239 305.716 201.339 310.41 159.412C312.13 144.082 314.16 127.902 322.78 115.772C334.17 99.7724 355.05 94.8524 372.91 99.6624C390.77 104.472 406 117.372 419.03 131.762C460.77 177.842 484.42 240.132 520.91 291.412C528.34 301.852 536.73 312.172 547.83 317.212C563.83 324.462 582.2 319.332 597.83 311.262C648.83 284.972 683.09 231.322 716.76 181.262C733.14 156.932 753.11 130.912 780.36 128.262C809.03 125.412 833.92 149.842 850.77 175.712C904.85 258.952 916.44 372.592 981.77 445.192C989.88 454.192 998.83 462.512 1009.14 468.102C1012.54 469.94 1016.09 471.495 1019.74 472.752C1076.74 492.482 1095.74 571.682 1053.58 618.642C1052.67 619.642 1051.74 620.642 1050.8 621.642C1044.54 628.252 1037.45 634.502 1028.99 636.472C1021.12 638.292 1012.99 636.192 1005.19 633.922C955.33 619.372 906.07 597.132 854.52 598.212C804.36 599.212 756.78 622.382 707.18 630.722C673.83 636.332 639.9 635.212 606.18 634.002C493.873 629.962 381.59 625.262 269.33 619.902C213.61 617.342 157.87 614.902 102.16 612.052C59.2397 609.822 31.8997 604.912 26.9197 555.102C22.5597 511.482 -16.6003 457.472 9.24967 415.232Z" fill="#FF760C"></path> <path d="M790.39 788.042C939.501 788.042 1060.38 771.15 1060.38 750.312C1060.38 729.475 939.501 712.582 790.39 712.582C641.279 712.582 520.4 729.475 520.4 750.312C520.4 771.15 641.279 788.042 790.39 788.042Z" fill="#767676"></path> <path d="M149.23 587.542C149.23 587.542 162.43 584.542 171.08 593.412C171.08 593.412 165.52 598.412 152.44 592.872L149.23 587.542Z" fill="#FF760C"></path> <path d="M147.77 587.412C147.77 587.412 139.95 598.492 144.91 609.862C144.91 609.862 151.67 606.612 151.48 592.412L147.77 587.412Z" fill="#FF760C"></path> <path d="M138.97 570.712C138.97 570.712 143.66 560.562 165.97 572.832C165.97 572.832 163.57 579.612 154.09 579.712C144.61 579.812 141.77 575.702 138.97 570.712Z" fill="#FF760C"></path> <path d="M137.55 570.092C137.55 570.092 126.38 569.572 127.01 595.012C127.01 595.012 134.14 596.012 138.59 587.632C143.04 579.252 140.68 574.922 137.55 570.092Z" fill="#FF760C"></path> <path d="M129.77 550.292C129.77 550.292 134.77 532.612 158.24 543.412C158.24 543.412 154.14 559.602 132.44 556.052L129.77 550.292Z" fill="#FF760C"></path> <path d="M121.06 524.952C121.06 524.952 131.64 506.712 153.55 521.512C153.55 521.512 147.36 538.382 123.26 531.062L121.06 524.952Z" fill="#FF760C"></path> <path d="M116.92 500.552C116.92 500.552 129.55 483.602 151.28 498.242C151.28 498.242 139.22 513.182 117.19 504.642L116.92 500.552Z" fill="#FF760C"></path> <path d="M113.18 476.832C113.18 476.832 125.94 459.172 146.77 473.682C146.77 473.682 132.09 489.512 113.44 480.752L113.18 476.832Z" fill="#FF760C"></path> <path d="M113 455.572C113 455.572 126.15 433.042 145.65 446.402C145.65 446.402 131.23 465.972 113.28 459.662L113 455.572Z" fill="#FF760C"></path> <path d="M114.77 430.592C114.77 430.592 128.77 408.192 147.86 423.412C147.86 423.412 130.76 443.162 114.99 434.562L114.77 430.592Z" fill="#FF760C"></path> <path d="M118.4 408.132C118.4 408.132 135.4 386.822 151.95 393.762C151.95 393.762 134.27 416.362 117.95 413.522L118.4 408.132Z" fill="#FF760C"></path> <path d="M123.4 386.732C123.4 386.732 142.94 360.732 155.77 368.112C155.77 368.112 141.46 388.202 122.19 391.462L123.4 386.732Z" fill="#FF760C"></path> <path d="M131.02 361.792C131.02 361.792 148.19 340.472 162.02 344.552C162.02 344.552 147.57 366.442 128.92 368.232L131.02 361.792Z" fill="#FF760C"></path> <path d="M137.87 338.482C137.87 338.482 157.05 317.882 166.18 320.662C166.18 320.662 152.83 343.022 137.26 342.812L137.87 338.482Z" fill="#FF760C"></path> <path d="M144.64 316.922C144.64 316.922 160.73 292.772 170.46 293.922C170.46 293.922 161.15 315.112 144.8 319.252L144.64 316.922Z" fill="#FF760C"></path> <path d="M151.63 288.012C151.63 288.012 166.02 269.352 174.44 268.832C174.44 268.832 163.73 293.172 151.37 293.832L151.63 288.012Z" fill="#FF760C"></path> <path d="M155.63 268.802L168.21 231.112C168.21 231.112 171.21 264.212 154.21 275.732L155.63 268.802Z" fill="#FF760C"></path> <path d="M159.02 227.942C159.02 227.942 159.46 197.152 157.69 194.772C157.69 194.772 170.16 219.512 159.83 241.482L159.02 227.942Z" fill="#FF760C"></path> <path d="M129.13 549.922C129.13 549.922 112.87 541.302 104.36 565.652C104.36 565.652 118.86 573.932 131.36 555.842L129.13 549.922Z" fill="#FF760C"></path> <path d="M120.49 524.002C120.49 524.002 100.77 516.552 93.1396 541.882C93.1396 541.882 108.61 551.032 122.65 530.122L120.49 524.002Z" fill="#FF760C"></path> <path d="M116.13 502.082C116.13 502.082 101.34 486.972 81.7695 504.412C81.7695 504.412 95.7095 517.602 116.4 506.202L116.13 502.082Z" fill="#FF760C"></path> <path d="M112.71 476.872C112.71 476.872 97.7095 461.062 78.9995 478.232C78.9995 478.232 95.6595 491.962 113 480.782L112.71 476.872Z" fill="#FF760C"></path> <path d="M113.04 456.172C113.04 456.172 101.68 432.702 81.21 444.502C81.21 444.502 94.07 465.132 112.45 460.242L113.04 456.172Z" fill="#FF760C"></path> <path d="M115.94 430.412C115.94 430.412 104.61 406.512 83.8799 419.342C83.8799 419.342 98.5399 440.952 115.22 434.272L115.94 430.412Z" fill="#FF760C"></path> <path d="M120.47 408.112C120.47 408.112 114.83 381.462 96.9199 380.242C96.9199 380.242 102.6 408.372 118.43 413.122L120.47 408.112Z" fill="#FF760C"></path> <path d="M123.86 386.752C123.86 386.752 120.19 354.442 105.4 354.292C105.4 354.292 107.55 378.862 122.51 391.442L123.86 386.752Z" fill="#FF760C"></path> <path d="M132.49 360.762C132.49 360.762 126.28 334.102 112.02 331.762C112.02 331.762 115.52 357.762 131.55 367.482L132.49 360.762Z" fill="#FF760C"></path> <path d="M139.55 338.562C139.55 338.562 137.55 310.492 128.65 306.942C128.65 306.942 125.04 332.722 137.3 342.322L139.55 338.562Z" fill="#FF760C"></path> <path d="M145.28 316.572C145.28 316.572 142.13 287.722 132.97 284.252C132.97 284.252 131.47 307.342 144.07 318.552L145.28 316.572Z" fill="#FF760C"></path> <path d="M153.029 290.232C153.029 290.232 151.389 266.722 144.679 261.622C144.679 261.622 140.099 287.812 150.029 295.182L153.029 290.232Z" fill="#FF760C"></path> <path d="M154.77 267.692L145.97 228.952C145.97 228.952 139.74 261.592 155.54 274.732L154.77 267.692Z" fill="#FF760C"></path> <path d="M153.4 228.692C153.4 228.692 135.77 203.412 135.91 200.472C135.91 200.472 139.45 227.952 160.32 240.362L153.4 228.692Z" fill="#FF760C"></path> <path d="M154.77 220.802C154.77 220.802 137.31 184.412 130.34 181.802C130.34 181.802 152.43 191.232 155.95 219.602L154.77 220.802Z" fill="#FF760C"></path> <path d="M151.31 294.022L150.31 293.772C160.16 251.772 161.55 225.292 154.21 219.212L154.89 218.392C162.63 224.832 161.41 250.992 151.31 294.022Z" fill="#444053"></path> <path d="M123.03 392.682L121.48 392.252C122.57 388.392 123.75 384.462 125.01 380.592C136.01 346.872 145.15 315.592 150.76 291.652L152.03 290.902C146.41 314.902 137.52 347.332 126.54 381.082C125.29 384.942 124.11 388.842 123.03 392.682Z" fill="#444053"></path> <path d="M170.08 617.082C169.86 616.872 147.86 595.212 130.96 556.842C121.057 534.383 114.776 510.497 112.35 486.072C109.35 455.542 113.45 420.942 122.35 389.172L123.63 390.492C103.63 461.802 117.44 520.832 132.86 555.892C149.59 593.892 171.34 615.342 171.56 615.552L170.08 617.082Z" fill="#444053"></path> <path d="M194.3 502.872C194.3 502.872 202.3 501.042 207.52 506.422C207.52 506.422 204.15 509.422 196.25 506.092L194.3 502.872Z" fill="#FF760C"></path> <path d="M193.43 502.802C193.43 502.802 188.71 509.502 191.71 516.372C191.71 516.372 195.79 514.372 195.71 505.822L193.43 502.802Z" fill="#FF760C"></path> <path d="M188.11 492.692C188.11 492.692 190.94 486.562 204.41 493.982C204.41 493.982 202.96 498.072 197.23 498.132C191.5 498.192 189.82 495.712 188.11 492.692Z" fill="#FF760C"></path> <path d="M187.25 492.322C187.25 492.322 180.49 492.012 180.87 507.382C180.87 507.382 185.18 507.982 187.87 502.922C190.56 497.862 189.14 495.242 187.25 492.322Z" fill="#FF760C"></path> <path d="M182.52 480.352C182.52 480.352 185.59 469.662 199.75 476.172C199.75 476.172 197.28 485.962 184.16 483.812L182.52 480.352Z" fill="#FF760C"></path> <path d="M177.28 465.032C177.28 465.032 183.67 454.032 196.92 462.952C196.92 462.952 193.17 473.152 178.61 468.722L177.28 465.032Z" fill="#FF760C"></path> <path d="M174.77 450.282C174.77 450.282 182.41 440.032 195.54 448.882C195.54 448.882 188.26 457.882 174.94 452.752L174.77 450.282Z" fill="#FF760C"></path> <path d="M172.51 435.942C172.51 435.942 180.23 425.262 192.82 434.042C192.82 434.042 183.95 443.612 172.67 438.312L172.51 435.942Z" fill="#FF760C"></path> <path d="M172.41 423.082C172.41 423.082 180.41 409.472 192.14 417.542C192.14 417.542 183.42 429.372 172.57 425.542L172.41 423.082Z" fill="#FF760C"></path> <path d="M173.45 407.992C173.45 407.992 181.94 394.442 193.45 403.612C193.45 403.612 183.11 415.552 173.57 410.352L173.45 407.992Z" fill="#FF760C"></path> <path d="M175.67 394.412C175.67 394.412 185.94 381.532 195.95 385.732C195.95 385.732 185.26 399.392 175.42 397.672L175.67 394.412Z" fill="#FF760C"></path> <path d="M178.69 381.472C178.69 381.472 190.5 365.762 198.26 370.212C198.26 370.212 189.61 382.362 177.96 384.332L178.69 381.472Z" fill="#FF760C"></path> <path d="M183.3 366.412C183.3 366.412 193.68 353.522 202.06 355.992C202.06 355.992 193.33 369.222 182.06 370.302L183.3 366.412Z" fill="#FF760C"></path> <path d="M187.44 352.302C187.44 352.302 199.03 339.852 204.55 341.532C204.55 341.532 196.49 355.042 187.07 354.922L187.44 352.302Z" fill="#FF760C"></path> <path d="M191.53 339.272C191.53 339.272 201.26 324.672 207.14 325.352C207.14 325.352 201.52 338.162 191.63 340.672L191.53 339.272Z" fill="#FF760C"></path> <path d="M195.77 321.792C195.77 321.792 204.47 310.512 209.56 310.192C209.56 310.192 203.08 324.912 195.61 325.282L195.77 321.792Z" fill="#FF760C"></path> <path d="M198.18 310.172L205.77 287.412C205.77 287.412 207.57 307.412 197.28 314.412L198.18 310.172Z" fill="#FF760C"></path> <path d="M200.23 285.472C200.23 285.472 200.49 266.862 199.42 265.422C199.42 265.422 206.96 280.372 200.71 293.662L200.23 285.472Z" fill="#FF760C"></path> <path d="M182.15 480.132C182.15 480.132 172.33 474.912 167.15 489.632C167.15 489.632 175.92 494.632 183.48 483.712L182.15 480.132Z" fill="#FF760C"></path> <path d="M176.94 464.412C176.94 464.412 165.01 459.912 160.4 475.222C160.4 475.222 169.75 480.752 178.24 468.122L176.94 464.412Z" fill="#FF760C"></path> <path d="M174.29 451.202C174.29 451.202 165.36 442.072 153.52 452.602C153.52 452.602 161.95 460.602 174.46 453.682L174.29 451.202Z" fill="#FF760C"></path> <path d="M172.23 435.962C172.23 435.962 163.16 426.412 151.85 436.792C151.85 436.792 161.92 445.082 172.39 438.332L172.23 435.962Z" fill="#FF760C"></path> <path d="M172.43 423.412C172.43 423.412 165.56 409.222 153.18 416.352C153.18 416.352 160.96 428.822 172.07 425.872L172.43 423.412Z" fill="#FF760C"></path> <path d="M174.18 407.862C174.18 407.862 167.33 393.412 154.77 401.172C154.77 401.172 163.63 414.242 173.72 410.172L174.18 407.862Z" fill="#FF760C"></path> <path d="M176.92 394.412C176.92 394.412 173.51 378.292 162.68 377.562C162.68 377.562 166.11 394.562 175.68 397.432L176.92 394.412Z" fill="#FF760C"></path> <path d="M178.97 381.482C178.97 381.482 176.77 361.952 167.77 361.852C167.77 361.852 169.07 376.712 178.11 384.322L178.97 381.482Z" fill="#FF760C"></path> <path d="M184.18 365.772C184.18 365.772 180.43 349.652 171.81 348.232C171.81 348.232 173.93 363.942 183.62 369.822L184.18 365.772Z" fill="#FF760C"></path> <path d="M188.45 352.352C188.45 352.352 187.22 335.352 181.87 333.232C181.87 333.232 179.68 348.822 187.09 354.622L188.45 352.352Z" fill="#FF760C"></path> <path d="M191.92 339.052C191.92 339.052 190.02 321.612 184.48 319.512C184.48 319.512 183.57 333.512 191.19 340.252L191.92 339.052Z" fill="#FF760C"></path> <path d="M196.6 323.132C196.6 323.132 195.6 308.922 191.6 305.832C191.6 305.832 188.83 321.672 194.83 326.122L196.6 323.132Z" fill="#FF760C"></path> <path d="M197.68 309.502L192.36 286.082C192.36 286.082 188.59 305.822 198.14 313.762L197.68 309.502Z" fill="#FF760C"></path> <path d="M196.83 285.932C196.83 285.932 186.18 270.662 186.26 268.872C186.26 268.872 188.39 285.482 201.01 292.982L196.83 285.932Z" fill="#FF760C"></path> <path d="M197.63 281.152C197.63 281.152 187.07 259.152 182.86 257.602C182.86 257.602 196.22 263.302 198.34 280.462L197.63 281.152Z" fill="#FF760C"></path> <path d="M195.56 325.412L194.93 325.262C200.93 299.872 201.73 283.862 197.29 280.192L197.7 279.692C202.41 283.592 201.67 299.412 195.56 325.412Z" fill="#444053"></path> <path d="M178.47 385.072L177.53 384.802C178.19 382.472 178.91 380.102 179.67 377.802C186.3 357.412 191.84 338.502 195.23 324.032L196 323.572C192.6 338.072 187.23 357.692 180.59 378.102C179.83 380.412 179.12 382.742 178.47 385.072Z" fill="#444053"></path> <path d="M206.91 520.732C206.78 520.602 193.48 507.512 183.26 484.312C177.278 470.735 173.481 456.296 172.01 441.532C170.18 423.072 172.68 402.152 178.07 382.942L178.84 383.742C166.75 426.852 175.1 462.542 184.42 483.742C194.54 506.742 207.68 519.672 207.82 519.802L206.91 520.732Z" fill="#444053"></path> <path d="M236.99 570.732C234.423 571.188 231.91 571.905 229.49 572.872C175.55 594.412 176.45 735.412 176.45 735.412H160.57C160.57 735.412 155.57 674.902 133.78 588.572C114.15 510.902 194.66 441.292 211.01 428.092C212.85 426.622 213.87 425.842 213.87 425.842C294.96 455.642 236.99 570.732 236.99 570.732Z" fill="#BFBFBF"></path> <path opacity="0.2" d="M219.77 428.292C217.9 427.432 215.97 426.612 213.92 425.862C213.92 425.862 212.92 426.642 211.06 428.112C194.71 441.312 114.2 510.922 133.83 588.592C155.62 674.922 160.57 735.412 160.57 735.412H169.5C169.5 735.412 164.55 674.902 142.71 588.572C123.16 511.262 202.89 441.912 219.77 428.292Z" fill="white"></path> <path d="M504.53 588.592C482.69 674.922 477.77 735.412 477.77 735.412H461.86C461.86 735.412 462.86 588.052 405.13 571.602C403.88 571.227 402.607 570.93 401.32 570.712C401.32 570.712 343.32 455.622 424.44 425.842C424.44 425.842 425.26 426.452 426.74 427.642C441.77 439.672 524.38 510.022 504.53 588.592Z" fill="#BFBFBF"></path> <path opacity="0.1" d="M236.99 570.732C234.423 571.188 231.91 571.905 229.49 572.872C219.738 525.146 213.561 476.758 211.01 428.112C212.85 426.642 213.87 425.862 213.87 425.862C294.96 455.642 236.99 570.732 236.99 570.732Z" fill="black"></path> <path opacity="0.1" d="M426.77 427.662C423.463 476.167 416.236 524.324 405.16 571.662C403.909 571.287 402.637 570.99 401.35 570.772C401.35 570.772 343.35 455.682 424.47 425.902C424.44 425.862 425.26 426.472 426.77 427.662Z" fill="black"></path> <path d="M397.08 592.552C391.48 614.646 384.917 637.312 377.39 660.552C377.39 660.552 341.67 697.762 255.39 660.552C255.39 660.552 246.77 636.252 237.29 594.942C216.42 504.112 191.39 331.022 244.72 153.232C260.601 99.7851 283.173 48.5593 311.9 0.772369C311.9 0.772369 357.46 53.0824 390.9 153.202C424.34 253.322 445.62 401.272 397.08 592.552Z" fill="#F0F0F0"></path> <path d="M319.15 366.002C358.71 366.002 390.78 333.933 390.78 294.372C390.78 254.812 358.71 222.742 319.15 222.742C279.589 222.742 247.52 254.812 247.52 294.372C247.52 333.933 279.589 366.002 319.15 366.002Z" fill="#D0D0D0"></path> <path d="M369.95 294.412C369.95 304.032 367.218 313.454 362.073 321.582C356.927 329.711 349.58 336.211 340.885 340.327C332.19 344.442 322.505 346.005 312.957 344.832C303.409 343.66 294.39 339.8 286.95 333.702C283.318 330.712 280.115 327.236 277.43 323.372C276.224 321.647 275.129 319.846 274.15 317.982C270.34 310.71 268.353 302.622 268.36 294.412C268.36 294.002 268.36 293.602 268.36 293.202C268.62 282.339 272.353 271.845 279.012 263.257C285.67 254.67 294.904 248.441 305.36 245.482C309.352 244.382 313.461 243.758 317.6 243.622H319.12C325.793 243.618 332.401 244.929 338.567 247.48C344.733 250.03 350.337 253.771 355.057 258.487C359.777 263.204 363.522 268.804 366.077 274.968C368.633 281.132 369.949 287.74 369.95 294.412Z" fill="#FF760C"></path> <path d="M390.89 153.202C309.62 192.112 244.67 153.202 244.67 153.202C260.569 99.7631 283.158 48.5473 311.9 0.772369C311.9 0.772369 357.46 53.0824 390.89 153.202Z" fill="#BFBFBF"></path> <path d="M397.08 592.552C393.28 607.512 389.047 622.729 384.38 638.202C382.167 645.582 379.833 653.022 377.38 660.522C377.38 660.522 341.66 697.732 255.38 660.522C255.38 660.522 252.58 652.632 248.38 638.202C245.24 627.302 241.33 612.692 237.25 594.912C237.25 594.912 269.37 608.622 314.96 608.622C343.124 608.719 371.03 603.258 397.08 592.552V592.552Z" fill="#BFBFBF"></path> <path d="M384.38 638.202C382.167 645.582 379.833 653.022 377.38 660.522C377.38 660.522 341.66 697.732 255.38 660.522C255.38 660.522 252.58 652.632 248.38 638.202C248.37 638.202 336.31 663.502 384.38 638.202Z" fill="#E3E8F4"></path> <path opacity="0.2" d="M305.39 245.412L305.28 245.492L268.38 293.132C268.38 293.532 268.38 293.932 268.38 294.342C268.373 302.552 270.36 310.64 274.17 317.912L317.65 243.552L305.39 245.412Z" fill="white"></path> <path opacity="0.2" d="M317.17 288.412L286.95 333.662C283.318 330.672 280.115 327.196 277.43 323.332L313.43 284.692L317.17 288.412Z" fill="white"></path> <path opacity="0.2" d="M274.69 660.532C274.69 660.532 266.07 636.222 256.59 594.922C235.72 504.082 210.69 330.992 264.02 153.202C278.355 105.096 298.098 58.7706 322.87 15.1124C316.1 5.62237 311.87 0.782368 311.87 0.782368C283.138 48.5553 260.559 99.7677 244.67 153.202C191.34 330.992 216.37 504.082 237.24 594.922C246.72 636.222 255.34 660.532 255.34 660.532C289.43 675.222 315.62 678.302 334.84 676.662C318.42 675.412 298.48 670.782 274.69 660.532Z" fill="white"></path> <path d="M937.47 729.702C937.47 729.702 984.21 671.542 981.11 613.292C979.655 588.873 986.161 564.64 999.65 544.232C1006.14 534.578 1013.51 525.541 1021.65 517.232" stroke="#535461" stroke-width="2" stroke-miterlimit="10"></path> <path d="M1019.88 480.552C1016.54 488.662 1021.54 518.232 1021.54 518.232C1021.54 518.232 1045.91 500.752 1049.25 492.642C1050.85 488.748 1050.84 484.376 1049.22 480.488C1047.6 476.6 1044.5 473.516 1040.61 471.912C1036.71 470.309 1032.34 470.319 1028.46 471.939C1024.57 473.559 1021.48 476.658 1019.88 480.552V480.552Z" fill="#FF760C"></path> <path d="M977.1 515.492C978.71 524.112 998.98 546.212 998.98 546.212C998.98 546.212 1009.98 518.302 1008.33 509.672C1007.56 505.531 1005.17 501.866 1001.7 499.483C998.225 497.101 993.946 496.196 989.805 496.967C985.664 497.739 981.998 500.124 979.616 503.599C977.233 507.073 976.328 511.351 977.1 515.492V515.492Z" fill="#FF760C"></path> <path d="M946.56 592.712C952.3 599.342 980.96 608.192 980.96 608.192C980.96 608.192 976.32 578.562 970.58 571.922C967.794 568.844 963.913 566.979 959.768 566.727C955.624 566.475 951.546 567.856 948.407 570.575C945.269 573.293 943.32 577.133 942.979 581.271C942.637 585.409 943.93 589.516 946.58 592.712H946.56Z" fill="#FF760C"></path> <path d="M936.61 656.342C941.14 663.852 967.89 677.412 967.89 677.412C967.89 677.412 968.33 647.412 963.8 639.912C962.721 638.127 961.301 636.572 959.621 635.335C957.941 634.099 956.034 633.205 954.009 632.705C951.984 632.206 949.88 632.11 947.817 632.424C945.755 632.737 943.775 633.454 941.99 634.532C940.204 635.611 938.649 637.031 937.412 638.711C936.176 640.391 935.282 642.298 934.783 644.323C934.283 646.348 934.187 648.452 934.501 650.515C934.814 652.577 935.531 654.557 936.61 656.342Z" fill="#FF760C"></path> <path d="M1029.17 560.482C1021.03 563.732 991.51 558.432 991.51 558.432C991.51 558.432 1009.23 534.242 1017.38 530.982C1021.29 529.419 1025.66 529.474 1029.54 531.134C1033.41 532.795 1036.46 535.925 1038.02 539.837C1039.59 543.749 1039.53 548.122 1037.87 551.994C1036.21 555.865 1033.08 558.919 1029.17 560.482V560.482Z" fill="#FF760C"></path> <path d="M1016.59 634.752C1007.85 635.422 981.27 621.532 981.27 621.532C981.27 621.532 1005.41 603.742 1014.16 603.072C1018.31 602.841 1022.39 604.245 1025.51 606.984C1028.64 609.723 1030.57 613.578 1030.89 617.723C1031.2 621.867 1029.89 625.971 1027.21 629.155C1024.54 632.338 1020.73 634.348 1016.59 634.752V634.752Z" fill="#FF760C"></path> <path d="M994.46 705.252C985.95 707.392 957.41 698.192 957.41 698.192C957.41 698.192 978.2 676.582 986.71 674.452C988.732 673.943 990.835 673.838 992.898 674.142C994.961 674.445 996.944 675.153 998.734 676.223C1000.52 677.293 1002.09 678.705 1003.33 680.379C1004.57 682.053 1005.48 683.955 1005.98 685.977C1006.49 688 1006.6 690.102 1006.3 692.166C1005.99 694.229 1005.28 696.212 1004.21 698.002C1003.14 699.792 1001.73 701.353 1000.06 702.597C998.384 703.841 996.482 704.743 994.46 705.252V705.252Z" fill="#FF760C"></path> <path opacity="0.25" d="M1019.88 480.552C1016.54 488.662 1021.54 518.232 1021.54 518.232C1021.54 518.232 1045.91 500.752 1049.25 492.642C1050.85 488.748 1050.84 484.376 1049.22 480.488C1047.6 476.6 1044.5 473.516 1040.61 471.912C1036.71 470.309 1032.34 470.319 1028.46 471.939C1024.57 473.559 1021.48 476.658 1019.88 480.552V480.552Z" fill="black"></path> <path opacity="0.25" d="M977.1 515.492C978.71 524.112 998.98 546.212 998.98 546.212C998.98 546.212 1009.98 518.302 1008.33 509.672C1007.56 505.531 1005.17 501.866 1001.7 499.483C998.225 497.101 993.946 496.196 989.805 496.967C985.664 497.739 981.998 500.124 979.616 503.599C977.233 507.073 976.328 511.351 977.1 515.492V515.492Z" fill="black"></path> <path opacity="0.25" d="M946.56 592.712C952.3 599.342 980.96 608.192 980.96 608.192C980.96 608.192 976.32 578.562 970.58 571.922C967.794 568.844 963.913 566.979 959.768 566.727C955.624 566.475 951.546 567.856 948.407 570.575C945.269 573.293 943.32 577.133 942.979 581.271C942.637 585.409 943.93 589.516 946.58 592.712H946.56Z" fill="black"></path> <path opacity="0.25" d="M936.61 656.342C941.14 663.852 967.89 677.412 967.89 677.412C967.89 677.412 968.33 647.412 963.8 639.912C962.721 638.127 961.301 636.572 959.621 635.335C957.941 634.099 956.034 633.205 954.009 632.705C951.984 632.206 949.88 632.11 947.817 632.424C945.755 632.737 943.775 633.454 941.99 634.532C940.204 635.611 938.649 637.031 937.412 638.711C936.176 640.391 935.282 642.298 934.783 644.323C934.283 646.348 934.187 648.452 934.501 650.515C934.814 652.577 935.531 654.557 936.61 656.342Z" fill="black"></path> <path opacity="0.25" d="M1029.17 560.482C1021.03 563.732 991.51 558.432 991.51 558.432C991.51 558.432 1009.23 534.242 1017.38 530.982C1021.29 529.419 1025.66 529.474 1029.54 531.134C1033.41 532.795 1036.46 535.925 1038.02 539.837C1039.59 543.749 1039.53 548.122 1037.87 551.994C1036.21 555.865 1033.08 558.919 1029.17 560.482V560.482Z" fill="black"></path> <path opacity="0.25" d="M1016.59 634.752C1007.85 635.422 981.27 621.532 981.27 621.532C981.27 621.532 1005.41 603.742 1014.16 603.072C1018.31 602.841 1022.39 604.245 1025.51 606.984C1028.64 609.723 1030.57 613.578 1030.89 617.723C1031.2 621.867 1029.89 625.971 1027.21 629.155C1024.54 632.338 1020.73 634.348 1016.59 634.752V634.752Z" fill="black"></path> <path opacity="0.25" d="M994.46 705.252C985.95 707.392 957.41 698.192 957.41 698.192C957.41 698.192 978.2 676.582 986.71 674.452C988.732 673.943 990.835 673.838 992.898 674.142C994.961 674.445 996.944 675.153 998.734 676.223C1000.52 677.293 1002.09 678.705 1003.33 680.379C1004.57 682.053 1005.48 683.955 1005.98 685.977C1006.49 688 1006.6 690.102 1006.3 692.166C1005.99 694.229 1005.28 696.212 1004.21 698.002C1003.14 699.792 1001.73 701.353 1000.06 702.597C998.384 703.841 996.482 704.743 994.46 705.252V705.252Z" fill="black"></path> <path d="M937.89 727.272C937.89 727.272 1004.19 693.032 1024.96 638.532C1033.52 615.613 1049.29 596.092 1069.9 582.902C1079.73 576.712 1090.11 571.437 1100.9 567.142" stroke="#535461" stroke-width="2" stroke-miterlimit="10"></path> <path d="M1114.19 532.872C1107.85 538.942 1100.44 568.002 1100.44 568.002C1100.44 568.002 1129.8 561.892 1136.14 555.832C1139.19 552.922 1140.96 548.919 1141.06 544.704C1141.16 540.489 1139.58 536.407 1136.66 533.357C1133.75 530.307 1129.75 528.539 1125.54 528.44C1121.32 528.342 1117.24 529.922 1114.19 532.832V532.872Z" fill="#FF760C"></path> <path d="M1060.93 547.482C1058.93 556.022 1068.48 584.482 1068.48 584.482C1068.48 584.482 1089.77 563.412 1091.83 554.822C1092.79 550.731 1092.08 546.426 1089.87 542.853C1087.66 539.279 1084.13 536.727 1080.04 535.756C1075.95 534.784 1071.64 535.473 1068.06 537.671C1064.48 539.869 1061.91 543.397 1060.93 547.482V547.482Z" fill="#FF760C"></path> <path d="M1001.71 605.702C1004.27 614.092 1026.89 633.792 1026.89 633.792C1026.89 633.792 1034.66 604.792 1032.1 596.442C1031.49 594.447 1030.5 592.591 1029.17 590.98C1027.85 589.369 1026.22 588.035 1024.38 587.054C1022.53 586.073 1020.52 585.464 1018.44 585.262C1016.37 585.06 1014.27 585.269 1012.27 585.877C1010.28 586.485 1008.42 587.48 1006.81 588.806C1005.2 590.131 1003.87 591.761 1002.89 593.602C1001.91 595.443 1001.3 597.459 1001.09 599.535C1000.89 601.611 1001.1 603.707 1001.71 605.702V605.702Z" fill="#FF760C"></path> <path d="M966.83 659.842C967.93 668.552 986.89 691.782 986.89 691.782C986.89 691.782 999.45 664.552 998.34 655.842C997.809 651.664 995.641 647.867 992.311 645.288C988.981 642.708 984.763 641.557 980.585 642.087C976.406 642.618 972.61 644.786 970.03 648.116C967.45 651.446 966.299 655.664 966.83 659.842V659.842Z" fill="#FF760C"></path> <path d="M1090.3 609.712C1081.53 609.392 1056.7 592.582 1056.7 592.582C1056.7 592.582 1082.7 577.652 1091.47 577.972C1093.55 578.049 1095.6 578.536 1097.5 579.404C1099.39 580.273 1101.1 581.506 1102.52 583.034C1103.94 584.562 1105.04 586.355 1105.77 588.31C1106.5 590.264 1106.83 592.343 1106.75 594.427C1106.68 596.511 1106.19 598.56 1105.32 600.456C1104.45 602.352 1103.22 604.058 1101.69 605.478C1100.16 606.897 1098.37 608.002 1096.42 608.728C1094.46 609.455 1092.38 609.789 1090.3 609.712V609.712Z" fill="#FF760C"></path> <path d="M1048.7 672.512C1040.43 669.582 1021.76 646.112 1021.76 646.112C1021.76 646.112 1051.05 639.642 1059.31 642.572C1061.28 643.269 1063.09 644.346 1064.63 645.742C1066.18 647.138 1067.44 648.826 1068.34 650.708C1069.24 652.591 1069.76 654.632 1069.87 656.715C1069.97 658.798 1069.67 660.882 1068.97 662.847C1068.28 664.813 1067.2 666.623 1065.81 668.172C1064.41 669.722 1062.72 670.982 1060.84 671.879C1058.96 672.777 1056.92 673.294 1054.83 673.403C1052.75 673.512 1050.67 673.209 1048.7 672.512V672.512Z" fill="#FF760C"></path> <path d="M999.89 728.002C991.25 726.512 968.89 706.532 968.89 706.532C968.89 706.532 996.66 695.212 1005.3 696.702C1009.45 697.418 1013.15 699.754 1015.58 703.195C1018 706.637 1018.97 710.902 1018.25 715.052C1017.53 719.203 1015.2 722.899 1011.76 725.328C1008.32 727.756 1004.05 728.718 999.9 728.002H999.89Z" fill="#FF760C"></path> <path d="M1032.16 695.132L980.77 620.602C980.77 620.602 979.77 602.152 976.45 597.842C973.13 593.532 975.73 583.942 975.73 583.942C975.73 583.942 979.33 578.672 976.21 578.192C973.09 577.712 975.73 565.962 975.73 565.962L975.49 547.272C975.49 547.272 978.37 529.272 975.97 524.992C975.267 523.827 974.916 522.483 974.959 521.122C975.001 519.761 975.436 518.442 976.21 517.322C976.21 517.322 979.09 507.012 976.21 504.382C973.33 501.752 974.05 485.682 974.77 472.982C975.49 460.282 969.72 453.092 969.72 451.172C969.72 449.252 950.72 430.562 950.72 428.892C950.72 427.222 938.72 420.262 931.51 418.342C924.3 416.422 920.7 414.992 920.94 414.032C921.18 413.072 909.65 409.242 909.65 409.242C909.65 409.242 899.56 408.522 895.71 403.482C891.86 398.442 880.12 397.002 879.78 396.952C879.71 396.622 879.63 396.282 879.56 395.952C879.49 395.622 879.41 395.232 879.34 394.872C880.25 393.342 881.09 391.782 881.85 390.172C882.08 389.682 882.3 389.172 882.51 388.712C886.72 388.522 891.04 387.622 894.34 385.042C896.035 383.624 897.42 381.872 898.41 379.895C899.399 377.919 899.971 375.76 900.09 373.552C900.293 369.123 899.324 364.718 897.28 360.782C895.18 356.462 892.09 351.992 893.15 347.312C893.62 345.312 894.83 343.512 895.45 341.532C896.62 337.782 895.54 333.662 893.72 330.182C891.9 326.702 889.37 323.642 887.35 320.272C884.769 315.978 883.048 311.223 882.28 306.272C881.87 303.672 881.71 300.932 880.4 298.642C879.314 296.943 877.879 295.494 876.19 294.392C868.676 289.018 859.603 286.267 850.37 286.562C843.83 286.792 837.31 288.562 830.82 287.752C826.91 287.272 823.18 285.882 819.4 284.752C811.34 282.372 802.05 281.392 795.03 286.002C788.01 290.612 785.22 299.682 780.47 306.772C776.27 313.052 770.11 318.312 766.91 324.952C766.91 324.832 766.97 324.702 767.01 324.572C766.223 326.109 765.622 327.734 765.22 329.412C764 334.632 765.02 340.092 766.29 345.302C766.94 347.992 767.84 350.912 770.17 352.402C772.5 353.892 775.8 353.562 778.56 354.052C778.46 354.502 778.34 354.962 778.24 355.422C775.382 368.925 777.714 383.009 784.773 394.869C791.831 406.729 803.098 415.496 816.33 419.422C816.33 419.912 816.33 420.422 816.33 420.882C816.325 422.259 816.241 423.635 816.08 425.002V425.002C816.08 425.002 791.93 420.002 785.44 423.402C778.95 426.802 766.22 429.402 764.3 431.302C762.38 433.202 757.58 431.782 753.3 443.052C749.02 454.322 748.5 465.812 742.97 471.052C737.44 476.292 734.57 479.922 734.33 483.762C734.09 487.602 735.05 488.552 732.88 489.762C730.71 490.972 727.6 495.992 728.56 497.912C728.56 497.912 729.76 502.702 725.92 505.092C722.08 507.482 722.55 512.282 722.55 512.282C722.55 512.282 721.11 517.562 717.75 518.752C714.39 519.942 712.22 527.862 712.22 527.862L701.29 540.412L679.7 516.512C678.083 514.721 675.821 513.646 673.411 513.522C671.002 513.398 668.641 514.236 666.85 515.852L656.25 525.412C652.158 526.405 648.461 528.607 645.64 531.732C643.33 534.104 641.469 536.876 640.15 539.912L634.34 545.132C632.514 547.397 631.398 550.15 631.133 553.047C630.868 555.944 631.465 558.854 632.85 561.412L646.68 576.702L646.77 576.832C641.54 577.492 636.92 579.172 633.39 582.282C612.74 600.492 612.49 617.282 615.62 624.932C618.75 632.582 644.92 662.082 644.92 662.082C644.92 662.082 660.13 681.852 682.09 692.372L681.92 692.542C681.49 693.002 681.06 693.542 680.64 694.042L680.28 694.502L679.95 694.962L679.56 695.542C679.45 695.692 679.35 695.852 679.25 696.012C679.15 696.172 678.97 696.462 678.84 696.702L678.57 697.162C678.41 697.462 678.24 697.772 678.08 698.092L677.92 698.402C677.72 698.822 677.52 699.252 677.33 699.702C677.26 699.862 677.2 700.032 677.13 700.192C677.01 700.502 676.88 700.822 676.76 701.192C676.64 701.562 676.61 701.602 676.54 701.812C676.47 702.022 676.33 702.432 676.23 702.752C676.13 703.072 676.09 703.202 676.03 703.422C675.97 703.642 675.83 704.122 675.74 704.482C675.65 704.842 675.63 704.902 675.57 705.132C675.44 705.682 675.31 706.252 675.2 706.852C675.2 707.072 675.12 707.302 675.08 707.532C675 707.932 674.93 708.342 674.87 708.762C674.82 709.052 674.79 709.342 674.75 709.632C674.71 709.922 674.65 710.422 674.6 710.822L674.51 711.742C674.51 712.182 674.43 712.642 674.4 713.102C674.4 713.382 674.4 713.662 674.35 713.942C674.35 714.702 674.27 715.462 674.26 716.262C673.78 744.262 675.42 748.372 675.42 748.372C675.42 748.372 678.81 757.302 688.17 757.942C689.544 758.043 690.925 757.969 692.28 757.722C704.77 755.562 734.07 750.532 744.4 752.452C750.61 753.602 762.11 751.902 770.3 750.352L772.45 749.942L773.95 754.702L778.7 753.402L782.7 755.732L785.25 757.192C789.99 773.272 809.25 767.792 809.25 767.792L813.77 770.412L860.13 771.612C860.13 771.612 870.13 777.612 876.54 779.492C877.302 779.723 878.081 779.894 878.87 780.002C883.167 780.347 887.482 780.427 891.79 780.242C895.34 780.152 898.09 780.002 898.09 780.002C898.09 780.002 897.62 767.412 896.94 753.322C914.66 752.582 930.37 751.472 939.88 749.802C964.64 745.452 974.97 722.942 978.77 710.912C979.912 715.829 980.723 720.817 981.2 725.842C982.209 730.233 983.495 734.555 985.05 738.782C986.402 742.184 988.176 745.403 990.33 748.362C1008.59 742.132 997.54 732.792 993.69 728.712C989.84 724.632 996.34 721.282 996.34 721.282C996.34 721.282 1001.34 717.932 1000.9 714.812C1000.46 711.692 1000.18 708.342 1016.51 708.582C1032.84 708.822 1032.16 695.132 1032.16 695.132ZM778.5 542.132C778.71 543.502 780.99 558.272 783.05 562.132C783.48 562.952 783.65 565.862 783.59 570.022C773.91 569.252 763.83 568.842 763.83 568.842C764.12 569.193 764.301 569.62 764.35 570.072L762.83 569.732L760.62 569.192L778.45 542.072L778.5 542.132ZM743.18 598.332L759.93 600.992L761.34 601.212C760.859 603.825 760.569 606.468 760.47 609.122C760.47 609.372 760.85 609.672 761.39 610.022C761.156 611.343 761.045 612.682 761.06 614.022C761.33 615.352 769.16 618.212 778.14 620.592C778.02 621.072 777.9 621.532 777.78 621.962C769.85 617.792 757.35 615.842 755.91 612.742C754.47 609.642 711.91 594.742 711.91 594.742C711.91 594.742 710.36 593.922 707.68 592.622L718.88 594.742L721.96 594.432C728.943 596.179 736.03 597.475 743.18 598.312V598.332Z" fill="url(#paint0_linear)"></path> <path d="M977.48 705.562C977.48 705.562 970.82 745.792 937.01 751.742C903.2 757.692 790.35 756.502 790.35 756.502C790.35 756.502 725.83 747.222 702.5 692.702C679.17 638.182 664.17 616.512 684.17 615.562C704.17 614.612 812.02 651.992 818.17 652.462C824.32 652.932 983.43 569.612 977.48 705.562Z" fill="#121212"></path> <path opacity="0.05" d="M977.48 705.562C977.48 705.562 970.82 745.792 937.01 751.742C903.2 757.692 790.35 756.502 790.35 756.502C790.35 756.502 725.83 747.222 702.5 692.702C679.17 638.182 664.17 616.512 684.17 615.562C704.17 614.612 812.02 651.992 818.17 652.462C824.32 652.932 983.43 569.612 977.48 705.562Z" fill="#353535"></path> <path d="M674.84 750.312C674.84 750.312 678.21 759.192 687.48 759.822C688.84 759.918 690.208 759.844 691.55 759.602C703.93 757.462 732.98 752.462 743.21 754.362C749.37 755.512 760.76 753.812 768.87 752.282C774.27 751.282 778.21 750.282 778.21 750.282C778.21 750.282 768.69 718.622 767.49 717.672C766.29 716.722 724.64 691.722 724.64 691.722L691.64 689.352H691.54C691.54 689.352 685.43 689.762 680.36 695.922C676.87 700.132 673.88 707.052 673.68 718.392C673.22 746.262 674.84 750.312 674.84 750.312Z" fill="#515151"></path> <path opacity="0.05" d="M674.84 750.312C674.84 750.312 678.21 759.192 687.48 759.822C684.227 755.642 681.222 751.274 678.48 746.742L678.65 723.652C677.18 706.362 685.27 695.292 691.65 689.382H691.55C691.55 689.382 674.17 690.562 673.69 718.382C673.21 746.202 674.84 750.312 674.84 750.312Z" fill="black"></path> <path opacity="0.1" d="M817.97 699.842L848.68 675.842L897.01 628.222C897.01 628.222 891.79 627.972 883.92 627.632C881.92 628.882 876.47 632.812 876.27 637.632C876.03 643.452 863.2 638.032 856.54 641.362C849.88 644.692 817.26 686.442 811.54 686.172C805.82 685.902 801.31 683.272 798.92 687.322C798.92 687.412 798.81 687.492 798.75 687.582L817.97 699.842Z" fill="black"></path> <path opacity="0.1" d="M680.37 695.942C681.46 696.472 682.56 696.942 683.69 697.462C707.03 707.462 735.83 728.462 737.98 732.222C739.28 734.542 755.98 744.682 768.87 752.282C774.27 751.282 778.21 750.282 778.21 750.282C778.21 750.282 768.69 718.622 767.49 717.672C766.29 716.722 724.64 691.722 724.64 691.722L691.64 689.352H691.54C691.54 689.352 685.44 689.782 680.37 695.942Z" fill="black"></path> <path d="M615.61 627.702C618.7 635.322 644.61 664.612 644.61 664.612C644.61 664.612 661.03 686.032 684.37 696.032C707.71 706.032 736.51 727.032 738.65 730.792C740.03 733.242 758.65 744.442 771.73 752.142L774.66 753.852L781.16 757.622L784.6 759.622C784.6 759.622 792.6 753.222 800.51 746.782C808.42 740.342 816.14 734.032 816.27 733.672C816.5 732.962 819.59 724.862 818.88 724.392C818.51 724.142 816.88 720.842 813.88 717.022C810.678 712.783 806.523 709.357 801.75 707.022C790.75 702.022 786.04 690.642 786.04 690.642C786.04 690.642 785.04 689.882 783.41 688.882C780.59 687.102 776.06 684.542 772.71 684.112C767.46 683.452 757.71 672.742 757.71 672.742C757.71 672.742 751.04 668.452 748.42 662.982C745.92 657.762 709 632.402 705.58 630.062L795.09 687.542L816.51 701.312L847.22 677.312L895.56 629.692C895.56 629.692 889.06 629.372 879.56 628.972C856.07 627.972 814.35 626.362 809.08 627.552C804.789 628.552 800.364 628.839 795.98 628.402C795.98 628.402 784.1 628.942 776.24 624.792C768.38 620.642 755.99 618.702 754.56 615.632C753.13 612.562 710.99 597.782 710.99 597.782C710.99 597.782 653.62 567.312 633.14 585.412C612.66 603.512 612.51 620.092 615.61 627.702Z" fill="#222222"></path> <path d="M800.59 452.962L807.97 477.482L817.49 532.712L852.49 535.092L862.62 518.292L872.77 501.522C872.77 501.522 879.07 479.202 883.6 457.612C887.6 438.512 890.22 419.972 885.86 417.962C882 416.172 879.46 409.742 877.86 402.822C877.65 401.972 877.46 401.102 877.28 400.232C876.114 394.374 875.338 388.444 874.96 382.482C874.96 382.482 801.63 378.682 811.87 408.912C813.697 414.076 814.631 419.514 814.63 424.992C814.62 426.359 814.536 427.725 814.38 429.082C813.859 433.8 812.364 438.359 809.99 442.469C807.617 446.58 804.416 450.153 800.59 452.962V452.962Z" fill="#EEB18E"></path> <path d="M785.35 448.912L787.97 490.572L793.92 526.042L800.59 542.472L806.54 632.352C806.54 632.352 863.95 638.992 877.91 632.232C878.916 631.803 879.79 631.113 880.44 630.232C897.3 604.802 891.77 531.042 891.77 531.042L898.2 483.412L893.91 458.692L883.56 457.592L875.56 456.742C875.56 456.742 873.76 458.962 871.16 462.392C864.1 471.712 851.16 490.042 851.99 497.692C853.17 508.172 850.56 518.882 846.51 520.552C842.46 522.222 839.13 525.072 838.42 522.222C837.71 519.372 836.99 518.652 837.7 514.602C838.41 510.552 834.6 498.172 834.6 498.172C834.6 498.172 828.18 483.652 828.6 477.462C829.02 471.272 827.89 464.122 825.98 462.462C824.07 460.802 821.46 459.122 823.6 451.462C825.74 443.802 814.21 429.012 814.21 429.012L785.35 448.912Z" fill="#E3E8F4"></path> <path opacity="0.1" d="M861.18 552.962L863.56 624.152L877.31 631.772C878.316 631.343 879.189 630.652 879.84 629.772C896.71 604.302 891.18 530.552 891.18 530.552L897.61 482.932L893.32 458.222L882.96 457.122C886.96 438.022 889.58 419.482 885.23 417.472C881.36 415.682 878.82 409.252 877.17 402.332L869.77 452.732C869.77 452.732 870.39 457.272 870.61 461.952C870.78 465.432 870.72 468.952 870.01 470.822C868.34 475.112 869.53 482.732 869.53 482.732C865.24 490.292 863.1 504.302 862.05 517.832C860.64 535.822 861.18 552.962 861.18 552.962Z" fill="black"></path> <path d="M877.4 401.232C877.4 401.232 889.4 402.722 893.2 407.722C897 412.722 907.01 413.412 907.01 413.412C907.01 413.412 918.44 417.222 918.2 418.172C917.96 419.122 921.53 420.562 928.68 422.462C935.83 424.362 947.68 431.272 947.68 432.942C947.68 434.612 966.49 453.172 966.49 455.082C966.49 456.992 972.21 464.082 971.49 476.742C970.77 489.402 970.06 505.312 972.92 507.932C975.78 510.552 972.92 520.792 972.92 520.792C972.161 521.912 971.744 523.228 971.717 524.58C971.69 525.932 972.056 527.264 972.77 528.412C975.15 532.702 972.3 550.562 972.3 550.562L972.53 569.132C972.53 569.132 969.91 580.792 973.01 581.272C976.11 581.752 972.53 586.982 972.53 586.982C972.53 586.982 969.91 596.512 973.25 600.792C976.59 605.072 977.53 623.412 977.53 623.412L1028.53 697.412C1028.53 697.412 1029.25 710.982 1013.06 710.742C996.87 710.502 997.06 713.842 997.58 716.932C998.1 720.022 993.06 723.362 993.06 723.362C993.06 723.362 986.63 726.692 990.44 730.742C994.25 734.792 1005.2 744.072 987.11 750.262C984.969 747.322 983.209 744.124 981.87 740.742C980.334 736.542 979.062 732.251 978.06 727.892C978.06 727.892 976.39 709.792 973.06 707.412C969.73 705.032 970.2 693.602 970.2 693.602C970.2 693.602 974.96 684.322 968.3 680.512C961.64 676.702 864.87 623.182 864.87 623.182L862.49 551.992C862.49 551.992 860.82 499.382 870.82 481.762C870.82 481.762 869.63 474.142 871.3 469.862C872.97 465.582 871.06 451.762 871.06 451.762L877.4 401.232Z" fill="#515151"></path> <path opacity="0.1" d="M815 429.792C815 429.792 791.07 424.862 784.64 428.192C778.21 431.522 765.64 434.192 763.64 436.052C761.64 437.912 756.97 436.532 752.69 447.722C748.41 458.912 747.92 470.332 742.45 475.572C736.98 480.812 734.12 484.382 733.88 488.192C733.64 492.002 734.59 492.952 732.45 494.192C730.31 495.432 727.21 500.382 728.16 502.292C729.11 504.202 777.77 546.042 777.77 546.042C777.77 546.042 780.16 562.042 782.3 566.042C784.44 570.042 779.92 625.802 775.16 629.612C770.4 633.422 807.3 633.072 807.3 633.072C807.3 633.072 808.96 596.522 810.39 594.612C811.82 592.702 809.39 553.612 809.39 553.612C809.39 553.612 809.15 520.282 812.25 511.472C815.35 502.662 815 473.412 815 473.412C815 473.412 817.74 455.842 821.07 451.742C824.4 447.642 815 429.792 815 429.792Z" fill="black"></path> <path d="M814.29 429.082C814.29 429.082 790.35 424.152 783.92 427.482C777.49 430.812 764.92 433.432 762.97 435.342C761.02 437.252 756.31 435.812 751.97 447.002C747.63 458.192 747.21 469.622 741.73 474.862C736.25 480.102 733.4 483.672 733.16 487.482C732.92 491.292 733.88 492.242 731.74 493.432C729.6 494.622 726.5 499.622 727.45 501.522C728.4 503.422 776.97 545.332 776.97 545.332C776.97 545.332 779.35 561.332 781.49 565.332C783.63 569.332 779.11 625.082 774.35 628.892C769.59 632.702 806.49 632.352 806.49 632.352C806.49 632.352 808.16 595.802 809.59 593.902C811.02 592.002 808.59 552.902 808.59 552.902C808.59 552.902 808.36 519.572 811.45 510.762C814.54 501.952 814.2 472.662 814.2 472.662C814.2 472.662 816.94 455.092 820.26 451.002C823.58 446.912 814.29 429.082 814.29 429.082Z" fill="#515151"></path> <path opacity="0.1" d="M811.77 408.912C813.597 414.076 814.531 419.514 814.53 424.992C826.238 428.461 838.77 427.906 850.126 423.418C861.481 418.93 871.006 410.767 877.18 400.232C876.014 394.374 875.239 388.444 874.86 382.482C874.86 382.482 801.54 378.682 811.77 408.912Z" fill="black"></path> <path d="M775.59 371.292C775.602 385.258 780.974 398.687 790.596 408.809C800.219 418.931 813.359 424.974 827.306 425.692C841.254 426.41 854.945 421.748 865.556 412.668C876.168 403.588 882.89 390.783 884.337 376.892C885.783 363.001 881.844 349.085 873.332 338.013C864.819 326.941 852.382 319.558 838.586 317.387C824.79 315.216 810.687 318.422 799.185 326.343C787.683 334.265 779.66 346.299 776.77 359.962C775.982 363.687 775.587 367.485 775.59 371.292Z" fill="#EEB18E"></path> <path d="M740.59 497.472L727.5 501.522C727.5 501.522 728.69 506.282 724.88 508.662C721.07 511.042 721.55 515.812 721.55 515.812C721.55 515.812 720.12 521.042 716.79 522.232C713.46 523.422 711.31 531.232 711.31 531.232L700.36 543.852C700.36 543.852 696.31 547.182 697.03 548.852C697.75 550.522 692.74 550.992 692.74 550.992L695.36 593.412L717.98 597.702L731.98 596.272L743.41 591.982L753.41 585.982L757.97 574.412L777.97 543.942L740.59 497.472Z" fill="#515151"></path> <path d="M696.07 554.412C696.07 554.412 667.07 512.502 645.36 535.122C623.65 557.742 654.17 594.402 661.31 593.212C668.45 592.022 702.5 590.122 702.5 590.122L696.07 554.412Z" fill="#EEB18E"></path> <path d="M662.881 525.211L636.016 549.444C630.84 554.112 630.429 562.092 635.097 567.268L664.942 600.356C669.611 605.532 677.591 605.943 682.766 601.275L709.632 577.042C714.808 572.374 715.219 564.394 710.551 559.218L680.705 526.13C676.037 520.954 668.057 520.543 662.881 525.211Z" fill="#30374E"></path> <path opacity="0.1" d="M662.881 525.211L636.016 549.444C630.84 554.112 630.429 562.092 635.097 567.268L664.942 600.356C669.611 605.532 677.591 605.943 682.766 601.275L709.632 577.042C714.808 572.374 715.219 564.394 710.551 559.218L680.705 526.13C676.037 520.954 668.057 520.543 662.881 525.211Z" fill="black"></path> <path d="M663.699 521.76L636.834 545.993C631.658 550.661 631.247 558.641 635.915 563.817L665.76 596.905C670.429 602.081 678.409 602.492 683.584 597.824L710.45 573.591C715.626 568.923 716.037 560.943 711.368 555.767L681.523 522.679C676.855 517.503 668.875 517.092 663.699 521.76Z" fill="#30374E"></path> <path d="M672.88 575.082C680.374 575.082 686.45 569.007 686.45 561.512C686.45 554.018 680.374 547.942 672.88 547.942C665.385 547.942 659.31 554.018 659.31 561.512C659.31 569.007 665.385 575.082 672.88 575.082Z" fill="#FF760C"></path> <path opacity="0.1" d="M672.88 575.082C680.374 575.082 686.45 569.007 686.45 561.512C686.45 554.018 680.374 547.942 672.88 547.942C665.385 547.942 659.31 554.018 659.31 561.512C659.31 569.007 665.385 575.082 672.88 575.082Z" fill="black"></path> <path d="M673.64 573.362C681.134 573.362 687.21 567.287 687.21 559.792C687.21 552.298 681.134 546.222 673.64 546.222C666.145 546.222 660.07 552.298 660.07 559.792C660.07 567.287 666.145 573.362 673.64 573.362Z" fill="#FF760C"></path> <path d="M677.27 563.182C677.03 594.612 742.03 601.272 742.03 601.272L758.63 603.912L766.07 605.092L769.17 574.412C769.17 574.412 765.76 573.902 761.5 572.912C755.21 571.442 747.06 568.912 745.35 565.362C742.5 559.412 677.5 531.762 677.27 563.182Z" fill="#EEB18E"></path> <path opacity="0.1" d="M776.77 359.962C778.269 360.073 779.684 360.702 780.77 361.742C782.61 363.692 782.71 367.152 785.1 368.352C785.993 368.741 786.981 368.856 787.94 368.682C794.27 367.782 797.94 360.682 804.01 358.682C807.47 357.562 811.28 358.292 814.66 359.592C816.019 360.018 817.238 360.802 818.19 361.862C820.19 364.492 818.8 368.362 819.74 371.552C821.05 375.972 826.33 377.732 830.9 378.312C835.47 378.892 840.62 379.212 843.67 382.662C845.83 385.112 846.38 388.662 845.94 391.872C845.67 392.993 845.67 394.162 845.94 395.282C847.2 398.852 853.38 398.282 854.99 395.502C856.17 393.452 855.81 391.752 858.59 391.182C860.47 390.792 862.68 391.582 864.42 392.182C869.266 393.855 874.374 394.64 879.5 394.502C882.74 387.547 884.476 379.985 884.594 372.313C884.712 364.64 883.209 357.029 880.184 349.977C877.159 342.925 872.68 336.59 867.039 331.388C861.398 326.186 854.722 322.233 847.449 319.787C840.175 317.342 832.468 316.459 824.83 317.197C817.191 317.934 809.795 320.275 803.124 324.067C796.453 327.859 790.657 333.017 786.116 339.202C781.574 345.388 778.389 352.462 776.77 359.962V359.962Z" fill="black"></path> <path d="M845.91 393.842C845.64 392.722 845.64 391.553 845.91 390.432C846.34 387.202 845.8 383.662 843.64 381.222C840.64 377.772 835.44 377.442 830.87 376.872C826.3 376.302 821.02 374.542 819.71 370.122C818.77 366.932 820.19 363.052 818.16 360.422C817.214 359.363 815.997 358.581 814.64 358.162C811.25 356.852 807.44 356.162 803.98 357.242C797.91 359.242 794.24 366.362 787.91 367.242C786.951 367.416 785.963 367.301 785.07 366.912C782.68 365.712 782.58 362.252 780.74 360.312C777.85 357.252 772.36 359.222 768.82 356.952C766.51 355.462 765.62 352.572 764.98 349.902C763.72 344.722 762.71 339.292 763.92 334.112C765.99 325.252 773.92 319.182 778.92 311.622C783.63 304.572 786.27 295.622 793.35 290.982C800.43 286.342 809.52 287.372 817.5 289.742C821.24 290.852 824.94 292.232 828.81 292.742C835.25 293.532 841.71 291.742 848.19 291.562C857.342 291.267 866.337 293.998 873.78 299.332C875.457 300.431 876.881 301.872 877.96 303.562C879.25 305.842 879.42 308.562 879.81 311.142C880.566 316.064 882.263 320.793 884.81 325.072C886.81 328.422 889.32 331.462 891.13 334.922C892.94 338.382 894 342.472 892.84 346.192C892.23 348.192 891.02 349.922 890.57 351.932C889.51 356.582 892.57 361.022 894.66 365.312C896.684 369.225 897.643 373.602 897.44 378.002C897.323 380.193 896.756 382.337 895.776 384.3C894.795 386.263 893.421 388.003 891.74 389.412C888.37 392.052 883.94 392.932 879.67 393.072C874.445 393.249 869.232 392.466 864.29 390.762C862.54 390.162 860.29 389.372 858.46 389.762C855.68 390.332 856.04 392.032 854.86 394.082C853.34 396.882 847.17 397.412 845.91 393.842Z" fill="#222222"></path> <path opacity="0.1" d="M816.54 701.272L847.25 677.272L895.59 629.652C895.59 629.652 889.09 629.332 879.59 628.932C877.86 630.692 876.32 632.932 876.22 635.432C875.98 641.252 863.15 635.842 856.49 639.172C849.83 642.502 817.21 684.242 811.49 683.972C805.77 683.702 801.26 681.072 798.87 685.122C798.819 685.216 798.762 685.306 798.7 685.392C797.75 686.477 796.478 687.231 795.07 687.542L816.54 701.272Z" fill="black"></path> <path d="M754.64 699.602L770.07 748.862L772.49 756.602L779.84 754.602L796.04 750.152L868.2 730.332C868.2 730.332 881.76 730.152 894.2 723.402C907.95 715.922 923.46 712.162 939.04 713.622C948.58 714.512 959.19 710.402 968.04 694.142C968.04 694.142 988.04 635.142 937.56 618.142C887.08 601.142 884.68 627.142 884.68 627.142C884.68 627.142 884.42 627.282 884 627.562C882 628.812 876.55 632.742 876.35 637.562C876.11 643.382 863.28 637.962 856.62 641.292C849.96 644.622 817.34 686.372 811.62 686.102C805.9 685.832 801.39 683.202 799 687.252C799 687.342 798.89 687.422 798.83 687.512C797.07 689.942 791.77 690.512 788.26 690.602C786.35 690.662 784.96 690.602 784.96 690.602L784.51 690.742L780.77 691.782L754.64 699.602Z" fill="#222222"></path> <path opacity="0.1" d="M758.63 603.912L766.07 605.092L769.17 574.412C769.17 574.412 765.76 573.902 761.5 572.912C762.63 577.162 760.07 593.732 758.63 603.912Z" fill="black"></path> <path opacity="0.1" d="M953.31 460.412C953.31 460.412 975.45 453.982 969.97 516.842C964.49 579.702 923.55 619.412 923.55 619.412C923.55 619.412 876.41 640.122 855.22 636.792C834.03 633.462 818.56 632.792 818.56 632.792C811.891 629.421 804.592 627.476 797.13 627.082C785.22 626.602 760.23 619.222 759.75 616.842C759.27 614.462 765.94 579.462 763.08 576.842C763.08 576.842 796.41 578.212 799.75 580.622C803.09 583.032 807.84 581.302 811.41 580.622C814.98 579.942 825.94 570.412 847.6 578.752C847.6 578.752 854.98 579.462 857.84 577.562C860.7 575.662 865.28 577.082 865.28 577.082C865.28 577.082 869.77 575.412 870.46 574.412C871.15 573.412 876.88 574.412 876.88 574.412C877.22 574.579 877.593 574.667 877.972 574.67C878.351 574.673 878.725 574.592 879.069 574.432C879.412 574.272 879.715 574.037 879.956 573.745C880.196 573.452 880.369 573.11 880.46 572.742C881.208 570.793 882.34 569.015 883.79 567.512C883.79 567.512 890.22 531.322 902.36 517.752C902.36 517.752 905.93 514.652 904.98 510.842C904.03 507.032 924.77 452.782 953.31 460.412Z" fill="black"></path> <path d="M952.77 455.572C952.77 455.572 974.91 449.142 969.44 512.002C963.97 574.862 922.96 614.612 922.96 614.612C922.96 614.612 875.82 635.322 854.63 631.992C833.44 628.662 817.97 627.942 817.97 627.942C811.301 624.569 804.002 622.624 796.54 622.232C784.64 621.752 759.64 614.372 759.16 611.992C758.68 609.612 765.35 574.612 762.5 571.992C762.5 571.992 795.83 573.362 799.16 575.772C802.49 578.182 807.26 576.452 810.83 575.772C814.4 575.092 825.35 565.572 847.02 573.902C847.02 573.902 854.4 574.612 857.25 572.712C860.1 570.812 864.7 572.232 864.7 572.232C864.7 572.232 869.16 570.562 869.87 569.612C870.58 568.662 876.3 569.612 876.3 569.612C876.639 569.779 877.01 569.867 877.388 569.871C877.765 569.875 878.139 569.795 878.481 569.635C878.824 569.476 879.126 569.242 879.366 568.951C879.606 568.66 879.778 568.319 879.87 567.952C880.616 565.999 881.748 564.217 883.2 562.712C883.2 562.712 889.63 526.522 901.77 512.952C901.77 512.952 905.34 509.852 904.39 506.052C903.44 502.252 924.15 447.952 952.77 455.572Z" fill="#515151"></path> <path opacity="0.1" d="M780.77 691.782L812.21 729.782C812.33 729.672 812.41 729.592 812.41 729.562C812.65 728.842 815.74 720.752 815.03 720.272C814.32 719.792 808.84 707.892 797.89 702.892C791.2 699.892 786.82 694.402 784.43 690.642L780.77 691.782Z" fill="black"></path> <path opacity="0.1" d="M781.2 757.622L784.64 759.622C784.64 759.622 792.64 753.222 800.55 746.782C808.46 740.342 816.18 734.032 816.31 733.672C816.54 732.962 819.63 724.862 818.92 724.392C818.55 724.142 816.92 720.842 813.92 717.022C792.6 711.022 806.17 725.852 807.98 726.532C807.98 726.532 781.98 720.532 780.6 748.842C780.411 751.783 780.613 754.735 781.2 757.622V757.622Z" fill="black"></path> <path d="M807.49 769.602L812.02 772.222L858.02 773.412C858.02 773.412 867.88 779.412 874.28 781.232C875.034 781.468 875.807 781.638 876.59 781.742C880.848 782.087 885.122 782.167 889.39 781.982C892.91 781.892 895.64 781.742 895.64 781.742C895.64 781.742 893.46 723.742 891.82 717.742C891.04 714.822 887.19 715.462 883.39 716.922C880.535 718.08 877.782 719.475 875.16 721.092C875.16 721.092 855.64 722.982 852.54 724.662C849.44 726.342 840.64 723.662 835.16 724.662C829.68 725.662 819.93 718.212 819.93 718.212C793.26 709.412 808.26 725.832 810.16 726.552C810.16 726.552 784.22 720.552 782.79 748.862C781.36 777.172 807.49 769.602 807.49 769.602Z" fill="#515151"></path> <path d="M873.92 747.222C874.42 759.222 883.77 774.112 889.34 781.982C892.86 781.892 895.59 781.742 895.59 781.742C895.59 781.742 893.41 723.742 891.77 717.742C890.99 714.822 887.14 715.462 883.34 716.922C878.77 725.522 873.52 737.552 873.92 747.222Z" fill="#333333"></path> <path opacity="0.1" d="M873.92 747.222C874.42 759.222 883.77 774.112 889.34 781.982C892.86 781.892 895.59 781.742 895.59 781.742C895.59 781.742 893.41 723.742 891.77 717.742C890.99 714.822 887.14 715.462 883.34 716.922C878.77 725.522 873.52 737.552 873.92 747.222Z" fill="black"></path> <path opacity="0.05" d="M866.06 748.812C869.22 760.392 869.19 773.382 874.23 781.232C874.984 781.468 875.757 781.638 876.54 781.742C880.797 782.087 885.072 782.167 889.34 781.982C892.86 781.892 895.59 781.742 895.59 781.742C895.59 781.742 893.41 723.742 891.77 717.742C890.99 714.822 887.14 715.462 883.34 716.922C880.485 718.08 877.732 719.475 875.11 721.092C875.11 721.092 862.02 733.992 866.06 748.812Z" fill="#353535"></path> <path opacity="0.1" d="M707.54 631.352C707.54 631.352 730.36 638.762 749.7 665.082L707.54 631.352Z" fill="black"></path> <g opacity="0.1"> <path opacity="0.1" d="M893 345.672C892.962 345.842 892.916 346.008 892.86 346.172C892.641 346.856 892.377 347.524 892.07 348.172C892.305 347.313 892.616 346.476 893 345.672V345.672Z" fill="black"></path> <path opacity="0.1" d="M763.88 334.122C764.276 332.454 764.87 330.839 765.65 329.312C765.53 329.722 765.4 330.132 765.3 330.552C764.09 335.732 765.1 341.162 766.36 346.342C767.01 349.012 767.89 351.902 770.2 353.392C773.75 355.662 779.2 353.682 782.12 356.742C783.96 358.692 784.06 362.152 786.46 363.352C787.353 363.742 788.341 363.857 789.3 363.682C795.62 362.782 799.3 355.682 805.37 353.682C808.83 352.562 812.63 353.292 816.02 354.602C817.377 355.021 818.594 355.803 819.54 356.862C821.54 359.492 820.15 363.372 821.09 366.552C822.4 370.972 827.68 372.732 832.25 373.302C836.82 373.872 841.97 374.202 845.02 377.662C847.18 380.102 847.73 383.662 847.29 386.872C847.025 387.994 847.025 389.161 847.29 390.282C848.55 393.852 854.73 393.282 856.29 390.502C857.47 388.452 857.12 386.752 859.9 386.182C861.77 385.792 863.98 386.582 865.72 387.182C870.662 388.886 875.875 389.669 881.1 389.492C885.37 389.342 889.81 388.492 893.17 385.832C894.705 384.608 895.966 383.075 896.87 381.332C896.087 384.506 894.297 387.34 891.77 389.412C888.41 392.052 883.98 392.932 879.7 393.072C874.478 393.249 869.269 392.466 864.33 390.762C862.58 390.162 860.33 389.372 858.5 389.762C855.72 390.332 856.07 392.032 854.9 394.082C853.28 396.902 847.11 397.432 845.84 393.862C845.575 392.741 845.575 391.574 845.84 390.452C846.28 387.222 845.74 383.682 843.58 381.242C840.52 377.792 835.37 377.462 830.8 376.892C826.23 376.322 820.95 374.562 819.65 370.142C818.7 366.952 820.13 363.072 818.1 360.442C817.149 359.384 815.929 358.603 814.57 358.182C811.18 356.872 807.38 356.182 803.92 357.262C797.84 359.262 794.17 366.382 787.85 367.262C786.891 367.437 785.903 367.322 785.01 366.932C782.61 365.732 782.51 362.272 780.67 360.332C777.78 357.272 772.3 359.242 768.76 356.972C766.44 355.482 765.56 352.592 764.91 349.922C763.67 344.732 762.66 339.302 763.88 334.122Z" fill="black"></path> </g> <path opacity="0.1" d="M896.69 524.672C892.33 530.562 887.35 536.012 883.49 542.242C879.63 548.472 876.9 555.742 877.71 563.022C881.71 558.922 883.53 553.262 886.05 548.122C890.31 539.422 896.69 532.042 902.05 524.042C903.05 522.512 909.66 513.692 906.33 513.272C903.59 512.922 898.18 522.662 896.69 524.672Z" fill="black"></path> </g> <defs> <linearGradient id="paint0_linear" x1="823.16" y1="780.292" x2="823.16" y2="282.742" gradientUnits="userSpaceOnUse"> <stop stop-color="#808080" stop-opacity="0.25"></stop> <stop offset="0.54" stop-color="#808080" stop-opacity="0.12"></stop> <stop offset="1" stop-color="#808080" stop-opacity="0.1"></stop> </linearGradient> <clipPath id="clip0"> <rect width="1140.56" height="787.27" fill="white" transform="translate(0.489746 0.772369)"></rect> </clipPath> </defs> </svg> 