<?xml version="1.0" encoding="UTF-8"?> <svg xmlns="http://www.w3.org/2000/svg" height="512px" viewBox="0 0 60 60" width="512px"> <g id="Page-1" fill="none" fill-rule="evenodd"> <g id="005---Domino-Books" fill="rgb(0,0,0)" fill-rule="nonzero" transform="translate(-1)"> <path id="Shape" d="m58 0h-11c-1.6568542 0-3 1.34314575-3 3v5.947c-.2108768-.09184536-.4316811-.15895913-.658-.2l-10.833-1.913c-1.6306215-.2840158-3.1840429.80360271-3.475 2.433l-2.11 11.967c-.2227296-.1509474-.4645069-.271668-.719-.359l-10.462-3.4c-1.5756601-.5118625-3.2679516.3504003-3.78 1.926l-.914 2.814c0 .013-.016.022-.02.035s0 .027-.005.04l-9.877 30.399c-.51186249 1.5756601.35040032 3.2679516 1.926 3.78l10.462 3.4c.3003267.0977726.614159.1477157.93.148 1.2984457-.0035412 2.4478566-.840393 2.85-2.075l6.857-21.1-1.91 10.834-.869 4.924-.347 1.969c-.1383578.783588.0402544 1.5900438.4965384 2.2419317.4562841.6518879 1.1528578 1.0958004 1.9364616 1.2340683l10.833 1.91c.783588.1383578 1.5900438-.0402544 2.2419317-.4965384.6518879-.4562841 1.0958004-1.1528578 1.2340683-1.9364616l1.212-6.894 5-28.337v34.709c0 1.6568542 1.3431458 3 3 3h11c1.6568542 0 3-1.3431458 3-3v-54c0-1.65685425-1.3431458-3-3-3zm-33.943 49.007 12.8 2.257-.521 2.955-12.8-2.258zm13.15.288-12.8-2.258 5.209-29.544 12.8 2.258zm-7.245-33.771.52-2.955 12.8 2.258-.521 2.954zm16.038-4.524h13v38h-13zm0-2v-3h13v3zm0 42h13v3h-13zm1-49h11c.5522847 0 1 .44771525 1 1v1h-13v-1c0-.55228475.4477153-1 1-1zm-15.012 6.789c.0583405-.00042794.1165935.00459387.174.015l10.838 1.91c.5436188.0959871.9066296.6143182.811 1.158l-.174.985-12.807-2.257.17-.985c.0846292-.47897014.5016133-.82758242.988-.826zm-18.123 11.231c.1706828-.5251999.73478-.8126208 1.26-.642l10.462 3.4c.5251999.1706828.8126208.73478.642 1.26l-.619 1.9-12.362-4.017zm2.787 33.491-12.364-4.011 8.342-25.677 12.362 4.02zm-1.239 3.813c-.1706828.5251999-.73478.8126208-1.26.642l-10.462-3.4c-.52479917-.1711046-.81170592-.735071-.641-1.26l.62-1.906 12.364 4.015zm19.247.66-10.833-1.91c-.5436188-.0959871-.9066296-.6143182-.811-1.158l.173-.985 12.8 2.258-.174.984c-.096031.5422357-.6123726.9047924-1.155.811zm23.34.016h-11c-.5522847 0-1-.4477153-1-1v-1h13v1c0 .5522847-.4477153 1-1 1z" fill="#FF760C"></path> <path id="Shape" d="m55 14h-5c-1.1045695 0-2 .8954305-2 2v28c0 1.1045695.8954305 2 2 2h5c1.1045695 0 2-.8954305 2-2v-28c0-1.1045695-.8954305-2-2-2zm-5 30v-28h5v28z" fill="#FF760C"></path> <path id="Shape" d="m15.409 29.789c-.2523523-.081892-.5269042-.0601469-.7632191.0604487-.2363148.1205956-.4150212.3301561-.4967809.5825513l-5.47 16.849c-.17062083.52522.11680011 1.0893172.642 1.26.09983728.0322521.20408272.048783.309.049.4334779-.0001675.8174888-.279595.951-.692l5.47-16.849c.1706208-.52522-.1168001-1.0893172-.642-1.26z" fill="#FF760C"></path> <path id="Shape" d="m17.309 39.049c-.52522-.1706208-1.0893172.1168001-1.26.642l-2.93 9.03c-.1706208.52522.1168001 1.0893172.642 1.26.0998373.0322521.2040827.048783.309.049.4334779-.0001675.8174888-.279595.951-.692l2.93-9.029c.1706208-.52522-.1168001-1.0893172-.642-1.26z" fill="#FF760C"></path> <path id="Shape" d="m38.768 23.169-6.894-1.216c-.5440005-.0960975-1.0629024.2669995-1.159.811-.0960975.5440005.2669995 1.0629024.811 1.159l6.894 1.216c.0578078.0099115.1163487.0149293.175.015.5188038.0002315.951625-.3963308.9966698-.9131754.0450449-.5168446-.312648-.982303-.8236698-1.0718246z" fill="#FF760C"></path> <path id="Shape" d="m38.073 27.108-6.893-1.215c-.3555032-.0709282-.7215532.0560921-.9567102.3319806-.2351569.2758886-.3025916.6574372-.1762476.9972173s.4266793.5845769.7849578.6398021l6.894 1.216c.0574769.0098697.115682.0148874.174.015.5188038.0002315.951625-.3963308.9966698-.9131754.0450449-.5168446-.312648-.982303-.8236698-1.0718246z" fill="#FF760C"></path> </g> </g> </svg> 