<?xml version="1.0" encoding="UTF-8"?> <svg xmlns="http://www.w3.org/2000/svg" width="94" height="94" viewBox="0 0 94 94" fill="none"> <g filter="url(#filter0_d)"> <path d="M69 22C69 9.84974 59.1503 0 47 0C34.8497 0 25 9.84974 25 22C25 34.1503 34.8497 44 47 44C59.1503 44 69 34.1503 69 22Z" fill="white"></path> </g> <path d="M47.5 10C41.1589 10 36 15.3832 36 22C36 28.6168 41.1589 34 47.5 34C53.8411 34 59 28.6168 59 22C59 15.3832 53.8411 10 47.5 10ZM43.761 12.3226C43.0678 13.3084 42.5529 14.4753 42.1845 15.6204C41.5148 15.3699 40.8949 15.0703 40.338 14.7256C41.2997 13.695 42.463 12.8706 43.761 12.3226ZM39.3644 15.9392C40.0818 16.4062 40.8933 16.8041 41.7744 17.1259C41.4839 18.4072 41.3098 19.7889 41.2631 21.2173H37.5281C37.6679 19.259 38.328 17.4495 39.3644 15.9392ZM39.3643 28.0608C38.328 26.5505 37.6678 24.741 37.528 22.7826H41.263C41.3097 24.2111 41.4838 25.5928 41.7743 26.8741C40.8933 27.1959 40.0819 27.5937 39.3643 28.0608ZM40.3381 29.2744C40.895 28.9297 41.5149 28.63 42.1845 28.3795C42.5529 29.5246 43.0678 30.6914 43.7611 31.6774C42.463 31.1294 41.2997 30.305 40.3381 29.2744ZM46.75 32.2903C45.2012 31.6971 44.1571 29.5724 43.6226 27.9356C44.6037 27.692 45.6573 27.5423 46.75 27.495V32.2903ZM46.75 25.9287C45.519 25.9785 44.3271 26.1494 43.2141 26.4313C42.9615 25.2913 42.8081 24.0601 42.7636 22.7826H46.75V25.9287V25.9287ZM46.75 21.2174H42.7636C42.8081 19.9399 42.9615 18.7087 43.2141 17.5686C44.3271 17.8505 45.519 18.0215 46.75 18.0712V21.2174V21.2174ZM46.75 16.505C45.6574 16.4577 44.6038 16.308 43.6226 16.0644C44.1567 14.4287 45.2007 12.303 46.75 11.7097V16.505ZM55.6357 15.9392C56.672 17.4495 57.3322 19.259 57.472 21.2174H53.737C53.6903 19.7889 53.5162 18.4072 53.2257 17.1259C54.1067 16.8041 54.9181 16.4063 55.6357 15.9392ZM54.6619 14.7256C54.105 15.0703 53.4851 15.37 52.8155 15.6205C52.4471 14.4754 51.9322 13.3086 51.2389 12.3226C52.537 12.8706 53.7003 13.695 54.6619 14.7256ZM48.25 11.7097C49.7988 12.3029 50.8429 14.4276 51.3774 16.0644C50.3963 16.308 49.3427 16.4577 48.25 16.505V11.7097ZM48.25 18.0713C49.481 18.0215 50.6729 17.8506 51.7859 17.5687C52.0385 18.7087 52.1919 19.9399 52.2364 21.2174H48.25V18.0713ZM48.25 22.7774H52.2364C52.1919 24.0549 52.0385 25.2913 51.7859 26.4313C50.6729 26.1494 49.481 25.9785 48.25 25.9287V22.7774ZM48.25 32.2903V27.495C49.3426 27.5423 50.3962 27.692 51.3774 27.9356C50.8433 29.5713 49.7992 31.6969 48.25 32.2903ZM51.239 31.6774C51.9322 30.6916 52.4471 29.5247 52.8155 28.3796C53.4852 28.6301 54.105 28.9297 54.662 29.2744C53.7003 30.305 52.537 31.1294 51.239 31.6774ZM55.6356 28.0608C54.9182 27.5938 54.1067 27.1959 53.2256 26.8741C53.5161 25.5928 53.6902 24.2059 53.7369 22.7775H57.4719C57.3321 24.7358 56.672 26.5505 55.6356 28.0608Z" fill="#DFDFDF"></path> <defs> <filter id="filter0_d" x="0" y="0" width="94" height="94" filterUnits="userSpaceOnUse" color-interpolation-filters="sRGB"> <feFlood flood-opacity="0" result="BackgroundImageFix"></feFlood> <feColorMatrix in="SourceAlpha" type="matrix" values="0 0 0 0 0 0 0 0 0 0 0 0 0 0 0 0 0 0 127 0"></feColorMatrix> <feOffset dy="25"></feOffset> <feGaussianBlur stdDeviation="12.5"></feGaussianBlur> <feColorMatrix type="matrix" values="0 0 0 0 0.458333 0 0 0 0 0.458333 0 0 0 0 0.458333 0 0 0 0.1 0"></feColorMatrix> <feBlend mode="normal" in2="BackgroundImageFix" result="effect1_dropShadow"></feBlend> <feBlend mode="normal" in="SourceGraphic" in2="effect1_dropShadow" result="shape"></feBlend> </filter> </defs> </svg> 