<?xml version="1.0" encoding="UTF-8"?> <svg xmlns="http://www.w3.org/2000/svg" width="229" height="407" viewBox="0 0 229 407" fill="none"> <g filter="url(#filter0_d)"> <path d="M27 25C27 11.1929 38.1929 0 52 0H176C189.807 0 201 11.1929 201 25V332C201 345.807 189.807 357 176 357H52C38.1929 357 27 345.807 27 332V25Z" fill="white"></path> <path d="M25 45H29V61H25V45Z" fill="white"></path> <path d="M25 76H29V102H25V76Z" fill="white"></path> <path d="M200 76H204V102H200V76Z" fill="white"></path> <path d="M25 109H29V135H25V109Z" fill="white"></path> </g> <rect x="38.5" y="43.5" width="152" height="270" stroke="#F2F2F2"></rect> <rect x="82" y="19" width="6" height="6" rx="3" fill="#E0E0E0"></rect> <rect x="101" y="21" width="26" height="2" rx="1" fill="#E0E0E0"></rect> <rect x="112" y="9" width="4" height="4" rx="2" fill="#E0E0E0"></rect> <rect x="102.5" y="322.5" width="24" height="24" rx="12" stroke="#CDD0D6"></rect> <defs> <filter id="filter0_d" x="0" y="0" width="229" height="407" filterUnits="userSpaceOnUse" color-interpolation-filters="sRGB"> <feFlood flood-opacity="0" result="BackgroundImageFix"></feFlood> <feColorMatrix in="SourceAlpha" type="matrix" values="0 0 0 0 0 0 0 0 0 0 0 0 0 0 0 0 0 0 127 0"></feColorMatrix> <feOffset dy="25"></feOffset> <feGaussianBlur stdDeviation="12.5"></feGaussianBlur> <feColorMatrix type="matrix" values="0 0 0 0 0.458333 0 0 0 0 0.458333 0 0 0 0 0.458333 0 0 0 0.1 0"></feColorMatrix> <feBlend mode="normal" in2="BackgroundImageFix" result="effect1_dropShadow"></feBlend> <feBlend mode="normal" in="SourceGraphic" in2="effect1_dropShadow" result="shape"></feBlend> </filter> </defs> </svg> 