<?xml version="1.0" encoding="UTF-8"?> <!-- Generator: Adobe Illustrator 19.0.0, SVG Export Plug-In . SVG Version: 6.00 Build 0) --> <svg xmlns="http://www.w3.org/2000/svg" xmlns:xlink="http://www.w3.org/1999/xlink" id="Capa_1" x="0px" y="0px" viewBox="0 0 512 512" style="enable-background:new 0 0 512 512;" xml:space="preserve" width="512px" height="512px"> <g> <g> <path d="M401.067,426.667H110.933c-4.71,0-8.533,3.814-8.533,8.533v40.397c0,20.079,16.333,36.403,36.403,36.403h234.394 c20.07,0,36.403-16.324,36.403-36.403V435.2C409.6,430.481,405.777,426.667,401.067,426.667z M392.533,475.597 c0,10.658-8.67,19.336-19.328,19.336H138.803c-10.667,0-19.337-8.678-19.337-19.336v-31.864h273.067V475.597z" fill="#FF760C"></path> </g> </g> <g> <g> <path d="M281.6,460.8h-51.2c-4.71,0-8.533,3.814-8.533,8.533s3.823,8.533,8.533,8.533h51.2c4.71,0,8.533-3.814,8.533-8.533 S286.31,460.8,281.6,460.8z" fill="#FF760C"></path> </g> </g> <g> <g> <path d="M358.4,460.8h-34.133c-4.71,0-8.533,3.814-8.533,8.533s3.823,8.533,8.533,8.533H358.4c4.71,0,8.533-3.814,8.533-8.533 S363.11,460.8,358.4,460.8z" fill="#FF760C"></path> </g> </g> <g> <g> <path d="M187.733,460.8H153.6c-4.71,0-8.533,3.814-8.533,8.533s3.823,8.533,8.533,8.533h34.133c4.71,0,8.533-3.814,8.533-8.533 S192.444,460.8,187.733,460.8z" fill="#FF760C"></path> </g> </g> <g> <g> <path d="M373.205,0H138.803C118.733,0,102.4,16.324,102.4,36.403V76.8c0,4.719,3.823,8.533,8.533,8.533h290.133 c4.71,0,8.533-3.814,8.533-8.533V36.403C409.6,16.324,393.267,0,373.205,0z M392.533,68.267H119.467V36.403 c0-10.658,8.67-19.337,19.337-19.337h234.394c10.667,0,19.336,8.678,19.336,19.337V68.267z" fill="#FF760C"></path> </g> </g> <g> <g> <path d="M298.667,34.133h-85.333c-4.71,0-8.533,3.814-8.533,8.533s3.823,8.533,8.533,8.533h85.333c4.71,0,8.533-3.814,8.533-8.533 S303.377,34.133,298.667,34.133z" fill="#FF760C"></path> </g> </g> <g> <g> <path d="M401.067,68.267H110.933c-4.71,0-8.533,3.814-8.533,8.533v358.4c0,4.719,3.823,8.533,8.533,8.533h290.133 c4.71,0,8.533-3.814,8.533-8.533V76.8C409.6,72.081,405.777,68.267,401.067,68.267z M392.533,426.667H119.467V85.333h273.067 V426.667z" fill="#FF760C"></path> </g> </g> <g> <g> <path d="M451.934,193.886c-1.323-4.54-6.059-7.125-10.581-5.811c-4.523,1.314-7.125,6.05-5.811,10.573 c5.393,18.551,8.132,37.854,8.132,57.353c0,19.576-2.756,38.921-8.192,57.532c-1.314,4.523,1.28,9.259,5.803,10.581 c0.802,0.23,1.604,0.341,2.398,0.341c3.695,0,7.1-2.415,8.192-6.135c5.888-20.164,8.875-41.131,8.875-62.319 C460.749,234.888,457.779,213.982,451.934,193.886z" fill="#FF760C"></path> </g> </g> <g> <g> <path d="M76.518,313.532c-5.436-18.603-8.192-37.956-8.192-57.532c0-19.499,2.739-38.801,8.141-57.361 c1.314-4.523-1.289-9.259-5.811-10.573c-4.531-1.314-9.267,1.28-10.581,5.811c-5.845,20.096-8.815,40.994-8.815,62.114 c0,21.197,2.987,42.163,8.875,62.319c1.084,3.729,4.489,6.144,8.183,6.144c0.794,0,1.596-0.102,2.398-0.341 C75.247,322.79,77.841,318.054,76.518,313.532z" fill="#FF760C"></path> </g> </g> <g> <g> <path d="M17.067,256c0-34.731,5.794-66.833,16.324-90.385c1.92-4.301-0.009-9.344-4.309-11.273 c-4.301-1.92-9.344,0.017-11.273,4.309C6.323,184.354,0,218.914,0,256s6.323,71.646,17.801,97.348 c1.425,3.166,4.54,5.052,7.799,5.052c1.169,0,2.347-0.23,3.482-0.742c4.301-1.92,6.229-6.972,4.309-11.273 C22.861,322.833,17.067,290.731,17.067,256z" fill="#FF760C"></path> </g> </g> <g> <g> <path d="M494.191,158.652c-1.929-4.292-6.963-6.238-11.273-4.309c-4.301,1.92-6.229,6.972-4.309,11.273 c10.53,23.552,16.324,55.654,16.324,90.385s-5.794,66.833-16.316,90.385c-1.92,4.301,0.009,9.344,4.309,11.273 c1.126,0.512,2.313,0.742,3.473,0.742c3.26,0,6.374-1.886,7.791-5.052C505.677,327.646,512,293.086,512,256 S505.677,184.354,494.191,158.652z" fill="#FF760C"></path> </g> </g> <g> <g> <path d="M332.8,349.867H230.4c-4.71,0-8.533,3.814-8.533,8.533s3.823,8.533,8.533,8.533h102.4c4.71,0,8.533-3.814,8.533-8.533 S337.51,349.867,332.8,349.867z" fill="#FF760C"></path> </g> </g> <g> <g> <path d="M196.011,349.867H179.2c-4.71,0-8.533,3.814-8.533,8.533s3.823,8.533,8.533,8.533h16.811c4.71,0,8.533-3.814,8.533-8.533 S200.721,349.867,196.011,349.867z" fill="#FF760C"></path> </g> </g> <g> <g> <path d="M221.867,384H179.2c-4.71,0-8.533,3.814-8.533,8.533c0,4.719,3.823,8.533,8.533,8.533h42.667 c4.71,0,8.533-3.814,8.533-8.533C230.4,387.814,226.577,384,221.867,384z" fill="#FF760C"></path> </g> </g> <g> <g> <path d="M332.8,384h-25.6c-4.71,0-8.533,3.814-8.533,8.533c0,4.719,3.823,8.533,8.533,8.533h25.6c4.71,0,8.533-3.814,8.533-8.533 C341.333,387.814,337.51,384,332.8,384z" fill="#FF760C"></path> </g> </g> <g> <g> <path d="M273.067,384H256c-4.71,0-8.533,3.814-8.533,8.533c0,4.719,3.823,8.533,8.533,8.533h17.067 c4.71,0,8.533-3.814,8.533-8.533C281.6,387.814,277.777,384,273.067,384z" fill="#FF760C"></path> </g> </g> <g> <g> <path d="M256,110.933c-56.465,0-102.4,45.935-102.4,102.4c0,56.465,45.935,102.4,102.4,102.4s102.4-45.935,102.4-102.4 C358.4,156.868,312.465,110.933,256,110.933z M256,298.667c-47.053,0-85.333-38.281-85.333-85.333 C170.667,166.281,208.947,128,256,128s85.333,38.281,85.333,85.333C341.333,260.386,303.053,298.667,256,298.667z" fill="#FF760C"></path> </g> </g> <g> <g> <path d="M256,145.067c-18.825,0-34.133,15.309-34.133,34.133s15.309,34.133,34.133,34.133c18.825,0,34.133-15.309,34.133-34.133 S274.825,145.067,256,145.067z M256,196.267c-9.412,0-17.067-7.654-17.067-17.067s7.654-17.067,17.067-17.067 c9.412,0,17.067,7.654,17.067,17.067S265.412,196.267,256,196.267z" fill="#FF760C"></path> </g> </g> <g> <g> <path d="M339.115,262.187C323.063,242.586,291.217,230.4,256,230.4c-35.217,0-67.063,12.186-83.115,31.787 c-2.432,2.978-2.577,7.219-0.35,10.351c19.217,27.042,50.415,43.196,83.465,43.196c33.05,0,64.247-16.154,83.465-43.196 C341.692,269.406,341.547,265.165,339.115,262.187z M256,298.667c-25.207,0-49.126-11.281-65.289-30.498 c14.037-12.732,38.733-20.702,65.289-20.702s51.251,7.97,65.289,20.702C305.126,287.386,281.208,298.667,256,298.667z" fill="#FF760C"></path> </g> </g> <g> </g> <g> </g> <g> </g> <g> </g> <g> </g> <g> </g> <g> </g> <g> </g> <g> </g> <g> </g> <g> </g> <g> </g> <g> </g> <g> </g> <g> </g> </svg> 