<?xml version="1.0" encoding="UTF-8"?> <!-- Generator: Adobe Illustrator 19.0.0, SVG Export Plug-In . SVG Version: 6.00 Build 0) --> <svg xmlns="http://www.w3.org/2000/svg" xmlns:xlink="http://www.w3.org/1999/xlink" id="Capa_1" x="0px" y="0px" viewBox="0 0 512 512" style="enable-background:new 0 0 512 512;" xml:space="preserve" width="512px" height="512px"> <g> <g> <g> <rect x="138.667" y="32" width="21.333" height="21.333" fill="#FF760C"></rect> <rect x="181.333" y="32" width="21.333" height="21.333" fill="#FF760C"></rect> <path d="M508.877,205.794c-4.165-4.166-10.919-4.167-15.085-0.002L416,283.584V32c0-17.673-14.327-32-32-32H128 c-17.673,0-32,14.327-32,32v85.333H32c-17.673,0-32,14.327-32,32v64c0,17.673,14.327,32,32,32h64V320H32 c-17.673,0-32,14.327-32,32s14.327,32,32,32h64v32c0,17.673,14.327,32,32,32h123.584l-45.792,45.792 c-1.999,2-3.122,4.711-3.123,7.539c-0.001,5.891,4.773,10.668,10.664,10.669h288c5.891,0,10.667-4.776,10.667-10.667v-288 C511.999,210.506,510.876,207.794,508.877,205.794z M128,21.333h256c5.891,0,10.667,4.776,10.667,10.667v32H117.333V32 C117.333,26.109,122.109,21.333,128,21.333z M21.333,213.333v-64c0-5.891,4.776-10.667,10.667-10.667h149.333 c5.891,0,10.667,4.776,10.667,10.667v64c0,5.891-4.776,10.667-10.667,10.667h-32c-5.891,0-10.667,4.776-10.667,10.667v16.917 l-24.459-24.459c-2-2-4.713-3.125-7.541-3.125H32C26.109,224,21.333,219.224,21.333,213.333z M266.667,341.333v21.333h-192 v-21.333H266.667z M21.333,352c0-5.891,4.776-10.667,10.667-10.667h21.333v21.333H32C26.109,362.667,21.333,357.891,21.333,352z M128,426.667c-5.891,0-10.667-4.776-10.667-10.667v-32h160c1.705,0,3.311-0.41,4.74-1.122l0.028,0.055l42.667-21.333 c2.074-1.034,3.755-2.715,4.789-4.789c2.628-5.272,0.484-11.677-4.789-14.305l-41.94-20.97c-1.606-0.969-3.482-1.537-5.495-1.537 h-160v-59.584l24.459,24.459c2,2,4.713,3.125,7.541,3.125c5.891,0,10.667-4.776,10.667-10.667v-32h21.333 c17.673,0,32-14.327,32-32v-64c0-17.673-14.327-32-32-32h-64v-32h277.333v219.584L272.917,426.667H128z M490.667,490.667h-21.333 V480H448v10.667h-21.333V480h-21.333v10.667H384V480h-21.333v10.667h-21.333V480H320v10.667h-21.333V480h-21.333v10.667h-38.251 l251.584-251.584V490.667z" fill="#FF760C"></path> <path d="M320,469.333h138.667c5.891,0,10.667-4.776,10.667-10.667V320c-0.001-2.828-1.124-5.539-3.123-7.539 c-4.165-4.166-10.919-4.167-15.085-0.002L312.459,451.125c-1.999,2-3.122,4.711-3.123,7.539 C309.334,464.555,314.109,469.332,320,469.333z M448,345.749V448H345.749L448,345.749z" fill="#FF760C"></path> <rect x="42.667" y="170.667" width="21.333" height="21.333" fill="#FF760C"></rect> <rect x="85.333" y="170.667" width="85.333" height="21.333" fill="#FF760C"></rect> <path d="M362.667,128h-128v21.333H352v128H202.667v-10.667h-21.333V288c0,5.891,4.776,10.667,10.667,10.667h170.667 c5.891,0,10.667-4.776,10.667-10.667V138.667C373.333,132.776,368.558,128,362.667,128z" fill="#FF760C"></path> <rect x="309.333" y="234.667" width="21.333" height="21.333" fill="#FF760C"></rect> <rect x="266.667" y="234.667" width="21.333" height="21.333" fill="#FF760C"></rect> <rect x="309.333" y="192" width="21.333" height="21.333" fill="#FF760C"></rect> </g> </g> </g> <g> </g> <g> </g> <g> </g> <g> </g> <g> </g> <g> </g> <g> </g> <g> </g> <g> </g> <g> </g> <g> </g> <g> </g> <g> </g> <g> </g> <g> </g> </svg> 