<?xml version="1.0" encoding="UTF-8"?> <svg xmlns="http://www.w3.org/2000/svg" width="200" height="200" viewBox="0 0 200 200" fill="none"> <g clip-path="url(#clip0)"> <path d="M53.2704 160.694L53.2675 162.194H53.2704V160.694ZM94.3855 107.647L92.8855 107.645L92.8855 107.645L94.3855 107.647ZM12.1554 107.647L13.6554 107.651L13.6554 107.649L12.1554 107.647ZM34.0801 107.647L32.5801 107.644L32.5801 107.644L34.0801 107.647ZM72.411 107.647L70.911 107.647L70.911 107.65L72.411 107.647ZM53.2704 162.194C66.4925 162.194 77.2123 157.14 84.5935 147.677C91.9371 138.262 95.8603 124.635 95.8855 107.649L92.8855 107.645C92.8609 124.217 89.0285 137.113 82.2279 145.832C75.4649 154.503 65.652 159.194 53.2704 159.194V162.194ZM95.8855 107.649C95.9107 90.7807 91.9603 77.3091 84.5853 68.0226C77.1754 58.6921 66.4323 53.7463 53.2704 53.7463V56.7463C65.6128 56.7463 75.4521 61.346 82.2361 69.8883C89.055 78.4747 92.91 91.2034 92.8855 107.645L95.8855 107.649ZM53.2704 53.7463C40.0848 53.7463 29.3654 58.6789 21.9733 68.0051C14.6175 77.2854 10.6805 90.7558 10.6554 107.645L13.6554 107.649C13.6799 91.1786 17.5235 78.4487 24.3243 69.8686C31.0887 61.3343 40.9021 56.7463 53.2704 56.7463V53.7463ZM10.6554 107.642C10.605 124.583 14.5162 138.2 21.8733 147.622C29.2664 157.09 40.0221 162.168 53.2675 162.194L53.2733 159.194C40.8653 159.17 31.0138 154.453 24.2379 145.776C17.4259 137.051 13.6063 124.17 13.6554 107.651L10.6554 107.642ZM53.2704 141.346C48.0384 141.346 43.6921 138.766 40.5786 133.303C37.419 127.759 35.5555 119.259 35.5801 107.65L32.5801 107.644C32.555 119.501 34.445 128.6 37.9722 134.789C41.5454 141.059 46.8192 144.346 53.2704 144.346V141.346ZM35.5801 107.65C35.6047 96.216 37.4791 87.827 40.6314 82.3502C43.7375 76.9536 48.0599 74.3955 53.2704 74.3955V71.3955C46.8475 71.3955 41.5995 74.6541 38.0313 80.8537C34.5092 86.9731 32.6052 95.9599 32.5801 107.644L35.5801 107.65ZM53.2704 74.3955C58.4548 74.3955 62.7778 76.9523 65.8846 82.3502C69.0366 87.8265 70.911 96.2149 70.911 107.647H73.911C73.911 95.961 72.0071 86.9736 68.4847 80.8537C64.9172 74.6554 59.6698 71.3955 53.2704 71.3955V74.3955ZM70.911 107.65C70.9356 119.259 69.0722 127.76 65.9181 133.304C62.8096 138.769 58.4751 141.346 53.2704 141.346V144.346C59.6993 144.346 64.96 141.056 68.5258 134.788C72.046 128.599 73.9362 119.501 73.911 107.644L70.911 107.65ZM148.812 159.849L148.805 161.349L148.805 161.349L148.812 159.849ZM186.894 124.351L185.394 124.348L185.394 124.355L186.894 124.351ZM129.92 105.857V107.357H130.84L131.257 106.537L129.92 105.857ZM129.224 105.857L127.724 105.85L127.716 107.357H129.224V105.857ZM164.622 85.0759L163.157 85.3982L163.416 86.5759H164.622V85.0759ZM185.85 85.0759V86.5759H187.54L187.34 84.8983L185.85 85.0759ZM108.144 109.834L106.644 109.83L106.644 109.838L108.144 109.834ZM131.411 124.998L129.911 124.99V124.998H131.411ZM166.014 124.948L164.514 124.941L164.514 124.948L164.514 124.955L166.014 124.948ZM148.805 161.349C160.474 161.4 170.393 157.596 177.401 151.004C184.414 144.408 188.42 135.103 188.394 124.348L185.394 124.355C185.418 134.331 181.718 142.825 175.346 148.819C168.968 154.818 159.821 158.397 148.819 158.349L148.805 161.349ZM188.394 124.355C188.446 104.493 174.508 89.9892 155.573 89.9892V92.9892C172.733 92.9892 185.442 106.028 185.394 124.348L188.394 124.355ZM155.573 89.9892C143.928 89.9892 133.457 95.588 128.583 105.177L131.257 106.537C135.531 98.1291 144.846 92.9892 155.573 92.9892V89.9892ZM129.92 104.357H129.224V107.357H129.92V104.357ZM130.724 105.865C130.773 95.9311 132.519 88.1258 135.731 82.8548C138.89 77.6699 143.481 74.8926 149.558 74.8926V71.8926C142.361 71.8926 136.834 75.2801 133.169 81.2938C129.558 87.2213 127.774 95.6482 127.724 105.85L130.724 105.865ZM149.558 74.8926C153.188 74.8926 156.207 75.8726 158.487 77.6267C160.761 79.376 162.403 81.9733 163.157 85.3982L166.087 84.7536C165.199 80.721 163.212 77.4767 160.316 75.2488C157.426 73.0256 153.733 71.8926 149.558 71.8926V74.8926ZM164.622 86.5759H185.85V83.5759H164.622V86.5759ZM187.34 84.8983C185.206 66.9991 170.608 53.448 149.558 53.448V56.448C169.175 56.448 182.417 68.948 184.361 85.2534L187.34 84.8983ZM149.558 53.448C136.529 53.448 125.754 58.7483 118.263 68.5413C110.807 78.2896 106.695 92.3665 106.644 109.83L109.644 109.839C109.693 92.7994 113.709 79.4331 120.646 70.3639C127.549 61.3395 137.43 56.448 149.558 56.448V53.448ZM106.644 109.838C106.695 128.736 111.7 141.636 119.586 149.827C127.474 158.021 138.046 161.297 148.805 161.349L148.819 158.349C138.648 158.3 128.936 155.213 121.747 147.746C114.557 140.277 109.693 128.22 109.644 109.83L106.644 109.838ZM148.713 141.445C139.669 141.445 132.911 134.186 132.911 124.998H129.911C129.911 135.696 137.87 144.445 148.713 144.445V141.445ZM132.911 125.005C132.957 115.872 139.858 108.55 148.862 108.55V105.55C138.079 105.55 129.965 114.337 129.911 124.99L132.911 125.005ZM148.862 108.55C157.908 108.55 164.56 115.613 164.514 124.941L167.514 124.955C167.567 114.099 159.702 105.55 148.862 105.55V108.55ZM164.514 124.955C164.56 134.371 157.77 141.445 148.713 141.445V144.445C159.541 144.445 167.567 135.909 167.514 124.941L164.514 124.955Z" fill="#FF760C"></path> </g> <defs> <clipPath id="clip0"> <rect width="200" height="200" fill="white"></rect> </clipPath> </defs> </svg> 