<?xml version="1.0" encoding="UTF-8"?> <svg xmlns="http://www.w3.org/2000/svg" width="200" height="200" viewBox="0 0 200 200" fill="none"> <g clip-path="url(#clip0)"> <path d="M52.04 160.694L52.037 162.194H52.04V160.694ZM93.155 107.647L91.655 107.645L91.655 107.645L93.155 107.647ZM10.9249 107.647L12.4249 107.651L12.4249 107.649L10.9249 107.647ZM32.8496 107.647L31.3496 107.644L31.3496 107.644L32.8496 107.647ZM71.1806 107.647L69.6806 107.647L69.6806 107.65L71.1806 107.647ZM52.04 162.194C65.2621 162.194 75.9818 157.14 83.363 147.677C90.7066 138.262 94.6298 124.635 94.655 107.649L91.655 107.645C91.6305 124.217 87.798 137.113 80.9975 145.832C74.2344 154.503 64.4215 159.194 52.04 159.194V162.194ZM94.655 107.649C94.6802 90.7807 90.7298 77.3091 83.3549 68.0226C75.9449 58.6921 65.2019 53.7463 52.04 53.7463V56.7463C64.3823 56.7463 74.2216 61.346 81.0056 69.8883C87.8245 78.4747 91.6796 91.2034 91.655 107.645L94.655 107.649ZM52.04 53.7463C38.8543 53.7463 28.135 58.6789 20.7428 68.0051C13.387 77.2854 9.45006 90.7558 9.4249 107.645L12.4249 107.649C12.4494 91.1786 16.293 78.4487 23.0938 69.8686C29.8583 61.3343 39.6716 56.7463 52.04 56.7463V53.7463ZM9.4249 107.642C9.37456 124.583 13.2858 138.2 20.6428 147.622C28.036 157.09 38.7917 162.168 52.037 162.194L52.0429 159.194C39.6348 159.17 29.7833 154.453 23.0074 145.776C16.1954 137.051 12.3758 124.17 12.4249 107.651L9.4249 107.642ZM52.04 141.346C46.808 141.346 42.4617 138.766 39.3481 133.303C36.1885 127.759 34.325 119.259 34.3496 107.65L31.3496 107.644C31.3245 119.501 33.2146 128.6 36.7417 134.789C40.315 141.059 45.5887 144.346 52.04 144.346V141.346ZM34.3496 107.65C34.3742 96.216 36.2487 87.827 39.4009 82.3502C42.507 76.9536 46.8294 74.3955 52.04 74.3955V71.3955C45.617 71.3955 40.3691 74.6541 36.8008 80.8537C33.2787 86.9731 31.3747 95.9599 31.3496 107.644L34.3496 107.65ZM52.04 74.3955C57.2244 74.3955 61.5473 76.9523 64.6541 82.3502C67.8061 87.8265 69.6806 96.2149 69.6806 107.647H72.6806C72.6806 95.961 70.7766 86.9736 67.2542 80.8537C63.6867 74.6554 58.4394 71.3955 52.04 71.3955V74.3955ZM69.6806 107.65C69.7052 119.259 67.8418 127.76 64.6877 133.304C61.5791 138.769 57.2446 141.346 52.04 141.346V144.346C58.4688 144.346 63.7295 141.056 67.2953 134.788C70.8156 128.599 72.7057 119.501 72.6806 107.644L69.6806 107.65ZM106.964 140.559H105.464V142.059H106.964V140.559ZM155.834 140.559H157.334V139.059H155.834V140.559ZM155.834 158.457H154.334V159.957H155.834V158.457ZM176.417 158.457V159.957H177.917V158.457H176.417ZM176.417 140.559V139.059H174.917V140.559H176.417ZM189.045 140.559V142.059H190.545V140.559H189.045ZM189.045 123.307H190.545V121.807H189.045V123.307ZM176.417 123.307H174.917V124.807H176.417V123.307ZM176.417 56.6384H177.917V55.1384H176.417V56.6384ZM149.471 56.6384V55.1384H148.646L148.204 55.8345L149.471 56.6384ZM106.964 123.606L105.697 122.802L105.464 123.17V123.606H106.964ZM156.232 123.307V124.807H157.732V123.307H156.232ZM128.64 123.307H127.14V124.807H128.64V123.307ZM128.64 122.512L127.372 121.711L127.14 122.078V122.512H128.64ZM155.437 80.1043V78.6043H154.61L154.169 79.303L155.437 80.1043ZM156.232 80.1043H157.732V78.6043H156.232V80.1043ZM106.964 142.059H155.834V139.059H106.964V142.059ZM154.334 140.559V158.457H157.334V140.559H154.334ZM155.834 159.957H176.417V156.957H155.834V159.957ZM177.917 158.457V140.559H174.917V158.457H177.917ZM176.417 142.059H189.045V139.059H176.417V142.059ZM190.545 140.559V123.307H187.545V140.559H190.545ZM189.045 121.807H176.417V124.807H189.045V121.807ZM177.917 123.307V56.6384H174.917V123.307H177.917ZM176.417 55.1384H149.471V58.1384H176.417V55.1384ZM148.204 55.8345L105.697 122.802L108.23 124.41L150.737 57.4422L148.204 55.8345ZM105.464 123.606V140.559H108.464V123.606H105.464ZM156.232 121.807H128.64V124.807H156.232V121.807ZM130.14 123.307V122.512H127.14V123.307H130.14ZM129.908 123.313L156.705 80.9055L154.169 79.303L127.372 121.711L129.908 123.313ZM155.437 81.6043H156.232V78.6043H155.437V81.6043ZM154.732 80.1043V123.307H157.732V80.1043H154.732Z" fill="#FF760C"></path> </g> <defs> <clipPath id="clip0"> <rect width="200" height="200" fill="white"></rect> </clipPath> </defs> </svg> 