<?xml version="1.0" encoding="UTF-8"?> <svg xmlns="http://www.w3.org/2000/svg" width="94" height="94" viewBox="0 0 94 94" fill="none"> <g filter="url(#filter0_d)"> <path d="M69 22C69 9.84974 59.1503 0 47 0C34.8497 0 25 9.84974 25 22C25 34.1503 34.8497 44 47 44C59.1503 44 69 34.1503 69 22Z" fill="white"></path> </g> <path d="M47.4869 9.29752C42.9785 9.29752 39.3106 12.9653 39.3106 17.4738C39.3106 18.7816 39.6104 20.0314 40.2016 21.1887C40.7072 22.1781 41.4212 23.0664 42.2795 23.7771V30.8335C42.2795 33.1592 44.1716 35.0513 46.4973 35.0513H48.4765C50.8022 35.0513 52.6943 33.1592 52.6943 30.8335V23.7771C53.5527 23.0664 54.2666 22.1781 54.7722 21.1887C55.3634 20.0314 55.6632 18.7816 55.6632 17.4738C55.6631 12.9653 51.9953 9.29752 47.4869 9.29752V9.29752ZM43.7878 28.124H51.186V30.0794H43.7878V28.124ZM51.4872 22.8088C51.2976 22.9512 51.186 23.1746 51.186 23.4118V26.6157H48.241V20.0733C48.241 19.6568 47.9034 19.3192 47.4869 19.3192C46.8216 19.3192 46.2803 18.7778 46.2803 18.1125C46.2803 17.4472 46.8216 16.9059 47.4869 16.9059C48.1522 16.9059 48.6935 17.4472 48.6935 18.1125C48.6935 18.529 49.0312 18.8667 49.4476 18.8667C49.8641 18.8667 50.2018 18.529 50.2018 18.1125C50.2018 16.6156 48.9839 15.3976 47.4869 15.3976C45.9899 15.3976 44.772 16.6156 44.772 18.1125C44.772 19.3478 45.6016 20.3923 46.7327 20.72V26.6157H43.7878V23.4118C43.7878 23.1746 43.6762 22.9512 43.4866 22.8088C41.7912 21.5354 40.8189 19.5908 40.8189 17.4738C40.8189 13.7971 43.8102 10.8058 47.4869 10.8058C51.1636 10.8058 54.1549 13.7971 54.1549 17.4738C54.1549 19.5908 53.1825 21.5354 51.4872 22.8088ZM48.4765 33.5431H46.4973C45.2649 33.5431 44.222 32.7159 43.8946 31.5877H51.0792C50.7518 32.7159 49.7089 33.5431 48.4765 33.5431V33.5431Z" fill="#DFDFDF"></path> <defs> <filter id="filter0_d" x="0" y="0" width="94" height="94" filterUnits="userSpaceOnUse" color-interpolation-filters="sRGB"> <feFlood flood-opacity="0" result="BackgroundImageFix"></feFlood> <feColorMatrix in="SourceAlpha" type="matrix" values="0 0 0 0 0 0 0 0 0 0 0 0 0 0 0 0 0 0 127 0"></feColorMatrix> <feOffset dy="25"></feOffset> <feGaussianBlur stdDeviation="12.5"></feGaussianBlur> <feColorMatrix type="matrix" values="0 0 0 0 0.458333 0 0 0 0 0.458333 0 0 0 0 0.458333 0 0 0 0.1 0"></feColorMatrix> <feBlend mode="normal" in2="BackgroundImageFix" result="effect1_dropShadow"></feBlend> <feBlend mode="normal" in="SourceGraphic" in2="effect1_dropShadow" result="shape"></feBlend> </filter> </defs> </svg> 