<?xml version="1.0" encoding="UTF-8"?> <svg xmlns="http://www.w3.org/2000/svg" width="772" height="332" viewBox="0 0 772 332" fill="none"> <path d="M211.14 193.84C210.99 193.84 210.84 193.77 210.75 193.64C210.64 193.49 210.63 193.3 210.71 193.14L248.24 118.3C248.33 118.11 248.53 118.01 248.74 118.04C248.95 118.07 249.11 118.23 249.15 118.44L260.56 185.87C260.58 186 260.55 186.13 260.47 186.23C260.39 186.34 260.28 186.41 260.15 186.42L211.21 193.83C211.19 193.84 211.16 193.84 211.14 193.84ZM248.44 120.06L211.99 192.74L259.52 185.54L248.44 120.06Z" fill="#F8F8F8"></path> <path d="M248.67 119.01C248.52 119 248.4 118.95 248.3 118.84L210.67 75.38C210.56 75.25 210.52 75.06 210.58 74.9C210.64 74.74 210.78 74.62 210.95 74.59L300 59.37C300.2 59.33 300.4 59.43 300.5 59.61C300.6 59.79 300.58 60.01 300.44 60.17L249.03 118.85C248.94 118.95 248.81 119.01 248.67 119.01ZM211.97 75.39L248.67 117.79L298.82 60.55L211.97 75.39Z" fill="#F8F8F8"></path> <path d="M260.08 186.43C260.05 186.43 260.02 186.43 259.99 186.42C259.79 186.38 259.63 186.23 259.6 186.02L248.19 118.59C248.16 118.44 248.21 118.29 248.32 118.18C248.42 118.07 248.58 118.01 248.73 118.03L295.94 123.54C296.1 123.56 296.24 123.66 296.32 123.8C296.39 123.95 296.39 124.12 296.31 124.26L260.51 186.17C260.41 186.34 260.25 186.43 260.08 186.43ZM249.25 119.08L260.33 184.55L295.09 124.44L249.25 119.08Z" fill="#F8F8F8"></path> <path d="M182.76 124.52C182.6 124.52 182.44 124.44 182.35 124.3C182.25 124.15 182.25 123.95 182.34 123.8L210.62 74.82C210.7 74.68 210.84 74.6 210.99 74.58C211.16 74.57 211.3 74.63 211.4 74.74L249.03 118.21C249.15 118.35 249.18 118.54 249.11 118.71C249.04 118.88 248.88 118.99 248.7 119.01L182.79 124.52C182.79 124.52 182.78 124.52 182.76 124.52ZM211.12 75.89L183.64 123.48L247.68 118.12L211.12 75.89Z" fill="#F8F8F8"></path> <path d="M295.87 124.52C295.85 124.52 295.83 124.52 295.81 124.52L248.6 119.01C248.42 118.99 248.27 118.87 248.2 118.7C248.14 118.53 248.17 118.34 248.29 118.21L299.7 59.53C299.84 59.37 300.06 59.32 300.25 59.4C300.44 59.48 300.56 59.67 300.55 59.88L296.35 124.07C296.34 124.2 296.28 124.33 296.18 124.41C296.1 124.48 295.99 124.52 295.87 124.52ZM249.64 118.15L295.43 123.5L299.51 61.24L249.64 118.15Z" fill="#F8F8F8"></path> <path d="M211.14 193.84C211.13 193.84 211.13 193.84 211.12 193.84C210.93 193.83 210.76 193.72 210.69 193.54L182.31 124.22C182.25 124.08 182.26 123.92 182.35 123.78C182.43 123.65 182.57 123.56 182.72 123.55L248.63 118.04C248.82 118.02 248.97 118.11 249.07 118.25C249.17 118.39 249.18 118.58 249.1 118.74L211.58 193.58C211.49 193.74 211.32 193.84 211.14 193.84ZM183.46 124.46L211.19 192.19L247.85 119.08L183.46 124.46Z" fill="#F8F8F8"></path> <path d="M352.63 222.47H296.07C295.89 222.47 295.73 222.37 295.64 222.22C295.56 222.06 295.56 221.87 295.66 221.72L341.16 151.96C341.27 151.79 341.47 151.71 341.67 151.75C341.87 151.79 342.02 151.95 342.05 152.15L353.1 221.91C353.12 222.05 353.08 222.19 352.99 222.3C352.91 222.41 352.77 222.47 352.63 222.47ZM296.96 221.51H352.06L341.29 153.55L296.96 221.51Z" fill="#F8F8F8"></path> <path d="M341.58 152.72C341.49 152.72 341.4 152.7 341.32 152.65L295.82 124.45C295.64 124.34 295.55 124.11 295.61 123.91C295.67 123.7 295.86 123.56 296.07 123.56H352.63C352.79 123.56 352.94 123.64 353.03 123.77C353.12 123.9 353.14 124.07 353.08 124.22L342.03 152.42C341.98 152.55 341.87 152.66 341.73 152.7C341.68 152.71 341.63 152.72 341.58 152.72ZM297.77 124.52L341.34 151.52L351.92 124.52H297.77Z" fill="#F8F8F8"></path> <path d="M352.63 222.48C352.6 222.48 352.57 222.48 352.54 222.47C352.34 222.43 352.18 222.27 352.15 222.07L341.1 152.31C341.07 152.13 341.15 151.95 341.3 151.84C341.45 151.73 341.65 151.72 341.81 151.81L381.14 172.59C381.26 172.65 381.34 172.76 381.38 172.88C381.42 173.01 381.4 173.14 381.33 173.26L353.05 222.24C352.96 222.39 352.8 222.48 352.63 222.48ZM342.2 153.11L352.89 220.56L380.24 173.2L342.2 153.11Z" fill="#F8F8F8"></path> <path d="M260.28 186.43C260.14 186.43 260.01 186.37 259.92 186.27C259.78 186.11 259.76 185.89 259.87 185.71L295.67 123.8C295.74 123.69 295.84 123.6 295.97 123.57C296.09 123.54 296.23 123.56 296.34 123.63L341.84 151.83C341.99 151.93 342.08 152.1 342.07 152.28C342.06 152.46 341.94 152.62 341.77 152.69L260.47 186.4C260.41 186.42 260.34 186.43 260.28 186.43ZM296.24 124.71L261.41 184.96L340.52 152.16L296.24 124.71Z" fill="#F8F8F8"></path> <path d="M380.91 173.5C380.83 173.5 380.76 173.48 380.68 173.44L341.35 152.66C341.13 152.55 341.04 152.28 341.13 152.06L352.18 123.86C352.25 123.69 352.41 123.57 352.59 123.55C352.76 123.53 352.95 123.63 353.04 123.79L381.32 172.77C381.43 172.96 381.4 173.19 381.25 173.35C381.16 173.45 381.03 173.5 380.91 173.5ZM342.18 152.01L379.65 171.8L352.71 125.14L342.18 152.01Z" fill="#F8F8F8"></path> <path d="M296.07 222.48C295.94 222.48 295.82 222.43 295.73 222.34L259.93 186.29C259.82 186.18 259.77 186.01 259.8 185.85C259.83 185.69 259.94 185.56 260.09 185.5L341.39 151.79C341.58 151.71 341.81 151.76 341.95 151.93C342.09 152.09 342.1 152.33 341.98 152.5L296.48 222.26C296.4 222.38 296.27 222.46 296.12 222.48C296.11 222.48 296.09 222.48 296.07 222.48ZM261.13 186.12L296 221.23L340.32 153.28L261.13 186.12Z" fill="#F8F8F8"></path> <path d="M171.18 204.01C171.15 204.01 171.11 204.01 171.07 204L131.16 195.07C130.99 195.03 130.86 194.91 130.8 194.74C130.75 194.58 130.79 194.4 130.9 194.27L163.8 158.37C163.92 158.23 164.12 158.18 164.3 158.23C164.48 158.28 164.61 158.43 164.64 158.62L171.66 203.45C171.68 203.61 171.63 203.77 171.51 203.88C171.42 203.96 171.3 204.01 171.18 204.01ZM132.19 194.3L170.59 202.9L163.84 159.76L132.19 194.3Z" fill="#F8F8F8"></path> <path d="M164.16 159.18C164.07 159.18 163.98 159.15 163.9 159.1L126.01 135.01C125.84 134.9 125.76 134.71 125.79 134.51C125.83 134.31 125.98 134.16 126.18 134.13L182.67 123.55C182.85 123.52 183.04 123.59 183.15 123.74C183.26 123.89 183.27 124.09 183.19 124.25L164.58 158.91C164.52 159.03 164.41 159.12 164.28 159.15C164.24 159.18 164.2 159.18 164.16 159.18ZM127.57 134.86L163.99 158.01L181.87 124.7L127.57 134.86Z" fill="#F8F8F8"></path> <path d="M171.18 204.01C171.09 204.01 170.99 203.98 170.91 203.93C170.8 203.86 170.72 203.74 170.7 203.6L163.68 158.77C163.65 158.58 163.74 158.38 163.91 158.28C164.08 158.18 164.29 158.19 164.45 158.3L211.43 192.96C211.58 193.07 211.65 193.26 211.62 193.44C211.58 193.62 211.45 193.77 211.26 193.82L171.29 203.99C171.26 204.01 171.21 204.01 171.18 204.01ZM164.82 159.78L171.57 202.92L210.03 193.13L164.82 159.78Z" fill="#F8F8F8"></path> <path d="M61.24 202.96C61.09 202.96 60.93 202.89 60.84 202.75C60.71 202.56 60.73 202.31 60.89 202.14L125.93 134.28C126.09 134.11 126.34 134.08 126.54 134.21L164.43 158.3C164.58 158.4 164.67 158.57 164.65 158.75C164.64 158.93 164.52 159.08 164.36 159.16L61.43 202.92C61.37 202.95 61.3 202.96 61.24 202.96ZM126.35 135.23L63.22 201.1L163.13 158.61L126.35 135.23Z" fill="#F8F8F8"></path> <path d="M211.14 193.84C211.04 193.84 210.94 193.81 210.85 193.75L163.87 159.09C163.68 158.95 163.62 158.68 163.73 158.47L182.34 123.81C182.43 123.64 182.61 123.54 182.79 123.56C182.98 123.57 183.14 123.69 183.21 123.86L211.59 193.18C211.67 193.38 211.61 193.61 211.44 193.74C211.35 193.81 211.25 193.84 211.14 193.84ZM164.78 158.56L210.04 191.95L182.71 125.17L164.78 158.56Z" fill="#F8F8F8"></path> <path d="M61.24 202.95C61.02 202.95 60.83 202.8 60.77 202.59C60.71 202.36 60.83 202.12 61.05 202.02L163.98 158.25C164.19 158.16 164.43 158.23 164.56 158.42C164.69 158.61 164.68 158.86 164.52 159.03L131.62 194.93C131.54 195.02 131.43 195.07 131.32 195.08L61.29 202.96C61.28 202.95 61.26 202.95 61.24 202.95ZM162.3 160.01L64.48 201.61L131.04 194.12L162.3 160.01Z" fill="#F8F8F8"></path> <path d="M229.52 287.94C229.42 287.94 229.33 287.91 229.25 287.85C229.1 287.75 229.02 287.56 229.05 287.38L239.05 221.91C239.07 221.75 239.18 221.61 239.32 221.54C239.47 221.47 239.64 221.48 239.78 221.57L290.68 252.66C290.83 252.75 290.91 252.91 290.91 253.08C290.91 253.25 290.81 253.41 290.66 253.49L229.75 287.87C229.68 287.92 229.6 287.94 229.52 287.94ZM239.89 222.78L230.15 286.55L289.47 253.06L239.89 222.78Z" fill="#F8F8F8"></path> <path d="M239.52 222.48C239.39 222.48 239.27 222.43 239.18 222.34L211 193.7C210.87 193.57 210.83 193.38 210.89 193.21C210.95 193.04 211.1 192.91 211.28 192.89L260.22 185.48C260.41 185.45 260.59 185.53 260.69 185.69C260.79 185.84 260.8 186.04 260.71 186.2L239.95 222.25C239.87 222.38 239.74 222.47 239.59 222.49C239.56 222.48 239.54 222.48 239.52 222.48ZM212.35 193.69L239.42 221.2L259.36 186.58L212.35 193.69Z" fill="#F8F8F8"></path> <path d="M290.42 253.56C290.33 253.56 290.25 253.54 290.17 253.49L239.27 222.4C239.08 222.29 239 222.06 239.06 221.86C239.12 221.65 239.31 221.51 239.53 221.51H296.09C296.23 221.51 296.37 221.57 296.46 221.68C296.55 221.79 296.59 221.94 296.56 222.08L290.91 253.17C290.88 253.33 290.78 253.46 290.63 253.52C290.56 253.55 290.49 253.56 290.42 253.56ZM241.24 222.47L290.07 252.3L295.49 222.47H241.24Z" fill="#F8F8F8"></path> <path d="M239.52 222.48C239.48 222.48 239.44 222.47 239.39 222.46L171.24 203.99C171.03 203.93 170.88 203.74 170.88 203.52C170.88 203.3 171.03 203.11 171.24 203.06L211.21 192.89C211.38 192.85 211.55 192.9 211.67 193.02L239.85 221.66C240 221.82 240.03 222.05 239.92 222.24C239.85 222.39 239.69 222.48 239.52 222.48ZM173.28 203.54L237.93 221.06L211.2 193.9L173.28 203.54Z" fill="#F8F8F8"></path> <path d="M296.07 222.48H239.51C239.34 222.48 239.18 222.39 239.09 222.24C239 222.09 239 221.91 239.09 221.76L259.85 185.71C259.93 185.58 260.06 185.49 260.21 185.47C260.36 185.45 260.51 185.5 260.62 185.61L296.42 221.66C296.56 221.8 296.6 222.01 296.52 222.19C296.45 222.36 296.27 222.48 296.07 222.48ZM240.35 221.51H294.91L260.38 186.74L240.35 221.51Z" fill="#F8F8F8"></path> <path d="M229.52 287.94C229.36 287.94 229.21 287.86 229.12 287.73L170.98 203.79C170.86 203.62 170.87 203.4 170.98 203.24C171.1 203.07 171.31 203 171.5 203.05L239.65 221.52C239.89 221.58 240.04 221.82 240 222.06L230 287.53C229.97 287.73 229.82 287.88 229.63 287.93C229.59 287.94 229.56 287.94 229.52 287.94ZM172.53 204.34L229.23 286.19L238.98 222.35L172.53 204.34Z" fill="#F8F8F8"></path> <path d="M437.18 271.45H380.62C380.48 271.45 380.34 271.39 380.25 271.27C380.16 271.16 380.12 271.01 380.15 270.87L395.84 189.24C395.88 189.04 396.04 188.88 396.25 188.85C396.46 188.82 396.66 188.93 396.75 189.11L437.61 270.74C437.68 270.89 437.68 271.07 437.59 271.21C437.51 271.37 437.35 271.45 437.18 271.45ZM381.21 270.49H436.4L396.53 190.84L381.21 270.49Z" fill="#F8F8F8"></path> <path d="M396.32 189.83C396.19 189.83 396.06 189.78 395.97 189.68L380.28 173.35C380.16 173.22 380.11 173.04 380.17 172.87C380.22 172.7 380.36 172.58 380.54 172.54L445.1 159.95C445.34 159.9 445.56 160.03 445.65 160.25C445.73 160.47 445.65 160.72 445.44 160.84L396.58 189.75C396.49 189.81 396.41 189.83 396.32 189.83ZM381.59 173.32L396.4 188.73L442.52 161.44L381.59 173.32Z" fill="#F8F8F8"></path> <path d="M437.18 271.45H437.17C436.99 271.44 436.83 271.34 436.75 271.18L395.89 189.55C395.8 189.37 395.83 189.14 395.98 189C396.12 188.85 396.35 188.81 396.53 188.9L465.67 221.55C465.79 221.61 465.88 221.71 465.93 221.84C465.97 221.97 465.95 222.11 465.89 222.23L437.61 271.21C437.51 271.36 437.35 271.45 437.18 271.45ZM397.38 190.38L437.21 269.95L464.78 222.2L397.38 190.38Z" fill="#F8F8F8"></path> <path d="M352.35 222.48C352.23 222.48 352.12 222.44 352.03 222.36C351.86 222.21 351.82 221.96 351.93 221.76L380.21 172.78C380.29 172.65 380.42 172.56 380.57 172.54C380.72 172.52 380.87 172.58 380.98 172.68L396.67 189.01C396.77 189.11 396.81 189.25 396.8 189.39C396.79 189.53 396.72 189.66 396.61 189.74L352.64 222.39C352.55 222.45 352.45 222.48 352.35 222.48ZM380.73 173.81L353.94 220.21L395.6 189.28L380.73 173.81Z" fill="#F8F8F8"></path> <path d="M465.46 222.48C465.39 222.48 465.32 222.46 465.25 222.43L396.11 189.78C395.95 189.7 395.84 189.54 395.83 189.37C395.82 189.19 395.91 189.02 396.07 188.93L444.93 160.01C445.06 159.94 445.21 159.92 445.35 159.97C445.49 160.02 445.59 160.13 445.64 160.27L465.92 221.84C465.98 222.02 465.93 222.23 465.78 222.35C465.69 222.44 465.57 222.48 465.46 222.48ZM397.35 189.3L464.65 221.08L444.91 161.16L397.35 189.3Z" fill="#F8F8F8"></path> <path d="M380.63 271.45C380.46 271.45 380.3 271.36 380.21 271.21L351.93 222.23C351.81 222.02 351.86 221.75 352.06 221.6L396.03 188.95C396.19 188.83 396.41 188.82 396.58 188.93C396.75 189.04 396.84 189.24 396.8 189.43L381.11 271.06C381.07 271.26 380.91 271.41 380.72 271.45C380.68 271.45 380.65 271.45 380.63 271.45ZM352.98 222.12L380.39 269.6L395.6 190.47L352.98 222.12Z" fill="#F8F8F8"></path> <path d="M465.66 320.43C465.57 320.43 465.49 320.41 465.41 320.36C465.21 320.24 465.13 320 465.2 319.78L496.42 233.05C496.49 232.85 496.66 232.73 496.89 232.73C497.1 232.74 497.28 232.88 497.34 233.08L508.66 273.47C508.71 273.63 508.66 273.8 508.55 273.93L466 320.27C465.92 320.38 465.79 320.43 465.66 320.43ZM496.82 234.8L466.92 317.85L507.66 273.48L496.82 234.8Z" fill="#F8F8F8"></path> <path d="M496.88 233.7C496.82 233.7 496.77 233.69 496.72 233.67L465.5 222.44C465.28 222.36 465.15 222.13 465.19 221.9C465.23 221.67 465.43 221.5 465.67 221.5H522.23C522.46 221.5 522.66 221.66 522.7 221.88C522.75 222.1 522.63 222.33 522.42 222.42L497.09 233.65C497.02 233.69 496.95 233.7 496.88 233.7ZM468.43 222.48L496.86 232.7L519.93 222.48H468.43Z" fill="#F8F8F8"></path> <path d="M572.59 284.21C572.57 284.21 572.54 284.21 572.52 284.2L508.14 274.08C507.95 274.05 507.8 273.91 507.75 273.73L496.43 233.34C496.38 233.15 496.45 232.94 496.61 232.82C496.77 232.7 496.99 232.7 497.16 232.81L572.87 283.32C573.06 283.45 573.13 283.69 573.05 283.9C572.96 284.09 572.78 284.21 572.59 284.21ZM508.58 273.18L570.48 282.91L497.69 234.35L508.58 273.18Z" fill="#F8F8F8"></path> <path d="M437.38 271.45C437.26 271.45 437.14 271.4 437.05 271.32C436.89 271.17 436.85 270.92 436.97 270.73L465.25 221.75C465.37 221.55 465.61 221.46 465.83 221.54L497.05 232.77C497.22 232.83 497.35 232.99 497.37 233.17C497.39 233.35 497.3 233.53 497.15 233.63L437.65 271.38C437.56 271.43 437.47 271.45 437.38 271.45ZM465.88 222.58L438.79 269.5L495.8 233.33L465.88 222.58Z" fill="#F8F8F8"></path> <path d="M572.59 284.21C572.5 284.21 572.4 284.18 572.32 284.13L496.61 233.62C496.46 233.52 496.38 233.35 496.4 233.18C496.42 233 496.52 232.85 496.69 232.78L522.02 221.55C522.22 221.46 522.45 221.52 522.59 221.69L572.96 283.43C573.11 283.62 573.1 283.88 572.94 284.06C572.85 284.16 572.72 284.21 572.59 284.21ZM497.88 233.31L570.18 281.54L522.07 222.58L497.88 233.31Z" fill="#F8F8F8"></path> <path d="M465.66 320.43C465.49 320.43 465.33 320.34 465.24 320.19L436.96 271.21C436.83 270.99 436.9 270.7 437.12 270.56L496.62 232.81C496.79 232.7 497.02 232.71 497.18 232.84C497.34 232.97 497.4 233.19 497.33 233.38L466.11 320.11C466.05 320.29 465.89 320.41 465.7 320.43C465.69 320.43 465.67 320.43 465.66 320.43ZM438.03 271.13L465.56 318.81L495.95 234.39L438.03 271.13Z" fill="#F8F8F8"></path> <path d="M287.21 331.42C287.02 331.42 286.85 331.31 286.77 331.14C286.68 330.94 286.73 330.71 286.89 330.57L350.14 276.08C350.28 275.96 350.48 275.93 350.65 276C350.82 276.07 350.93 276.24 350.94 276.42L352.83 319.92C352.84 320.16 352.67 320.38 352.43 320.42L287.29 331.41C287.27 331.42 287.24 331.42 287.21 331.42ZM350.02 277.46L288.84 330.17L351.85 319.54L350.02 277.46Z" fill="#F8F8F8"></path> <path d="M350.46 276.93C350.33 276.93 350.21 276.88 350.12 276.79L295.45 222.33C295.31 222.19 295.27 221.98 295.34 221.8C295.41 221.62 295.59 221.5 295.79 221.5H352.35C352.48 221.5 352.61 221.55 352.7 221.65C352.79 221.74 352.84 221.87 352.84 222L350.95 276.46C350.94 276.65 350.82 276.82 350.64 276.89C350.58 276.92 350.52 276.93 350.46 276.93ZM296.97 222.48L350.02 275.33L351.86 222.48H296.97Z" fill="#F8F8F8"></path> <path d="M352.35 320.43C352.31 320.43 352.27 320.43 352.23 320.42C352.02 320.37 351.87 320.19 351.86 319.97L349.97 276.47C349.96 276.23 350.13 276.02 350.37 275.97L380.54 270.49C380.72 270.46 380.91 270.53 381.02 270.69C381.13 270.84 381.14 271.05 381.04 271.21L352.76 320.19C352.68 320.34 352.52 320.43 352.35 320.43ZM350.96 276.84L352.76 318.26L379.69 271.62L350.96 276.84Z" fill="#F8F8F8"></path> <path d="M350.46 276.93C350.4 276.93 350.34 276.92 350.29 276.9L289.97 253.54C289.75 253.46 289.63 253.23 289.67 253L295.32 221.91C295.35 221.73 295.48 221.59 295.65 221.53C295.82 221.48 296.01 221.52 296.14 221.65L350.81 276.11C350.97 276.27 351 276.52 350.87 276.72C350.78 276.85 350.62 276.93 350.46 276.93ZM290.69 252.78L348.49 275.17L296.11 222.99L290.69 252.78Z" fill="#F8F8F8"></path> <path d="M350.46 276.93C350.34 276.93 350.23 276.89 350.14 276.81C350.03 276.71 349.97 276.57 349.97 276.43L351.86 221.97C351.87 221.75 352.02 221.57 352.23 221.52C352.44 221.47 352.66 221.56 352.77 221.75L381.05 270.73C381.13 270.87 381.14 271.03 381.07 271.18C381 271.32 380.87 271.42 380.72 271.45L350.55 276.93C350.52 276.93 350.49 276.93 350.46 276.93ZM352.77 223.69L350.96 275.86L379.86 270.61L352.77 223.69Z" fill="#F8F8F8"></path> <path d="M287.22 331.42C287.15 331.42 287.08 331.4 287.01 331.37C286.84 331.29 286.73 331.11 286.74 330.92L289.67 253.06C289.68 252.9 289.76 252.76 289.89 252.67C290.02 252.59 290.18 252.56 290.33 252.62L350.65 275.98C350.81 276.04 350.92 276.18 350.95 276.35C350.98 276.52 350.92 276.69 350.79 276.8L287.54 331.29C287.44 331.38 287.33 331.42 287.22 331.42ZM290.6 253.78L287.74 329.85L349.54 276.61L290.6 253.78Z" fill="#F8F8F8"></path> <path d="M572.58 284.21C572.53 284.21 572.48 284.2 572.43 284.19C572.21 284.12 572.07 283.89 572.1 283.66L585.24 193.29C585.27 193.09 585.42 192.93 585.62 192.89C585.82 192.84 586.02 192.94 586.13 193.11L605.11 224C605.2 224.15 605.21 224.33 605.12 224.48L573 283.96C572.92 284.12 572.75 284.21 572.58 284.21ZM586.01 194.75L573.45 281.1L604.14 224.27L586.01 194.75Z" fill="#F8F8F8"></path> <path d="M585.72 193.85C585.71 193.85 585.69 193.85 585.68 193.85L538.08 189.98C537.84 189.96 537.65 189.77 537.64 189.54C537.62 189.3 537.78 189.09 538.01 189.03L606.93 172.55C607.14 172.5 607.36 172.6 607.47 172.79C607.57 172.98 607.54 173.22 607.38 173.37L586.06 193.72C585.97 193.8 585.85 193.85 585.72 193.85ZM541.19 189.26L585.54 192.87L605.41 173.91L541.19 189.26Z" fill="#F8F8F8"></path> <path d="M604.7 224.73C604.53 224.73 604.38 224.64 604.29 224.5L585.31 193.61C585.19 193.42 585.22 193.18 585.38 193.02C585.53 192.86 585.78 192.83 585.97 192.94L635.57 221.57C635.75 221.68 635.85 221.89 635.8 222.1C635.75 222.31 635.58 222.46 635.36 222.48L604.74 224.74C604.72 224.73 604.71 224.73 604.7 224.73ZM587.13 194.73L604.95 223.74L633.71 221.62L587.13 194.73Z" fill="#F8F8F8"></path> <path d="M522.21 222.48C522.08 222.48 521.96 222.43 521.86 222.33C521.72 222.18 521.68 221.96 521.77 221.78L537.69 189.28C537.78 189.1 537.97 189 538.16 189.01L585.76 192.88C585.98 192.9 586.16 193.06 586.2 193.28C586.24 193.5 586.12 193.71 585.92 193.8L522.4 222.43C522.34 222.46 522.28 222.48 522.21 222.48ZM538.42 190L523.24 221L583.82 193.69L538.42 190Z" fill="#F8F8F8"></path> <path d="M635.32 222.48C635.24 222.48 635.15 222.46 635.08 222.41L585.48 193.78C585.35 193.7 585.26 193.57 585.24 193.42C585.22 193.27 585.28 193.12 585.39 193.01L606.71 172.66C606.82 172.56 606.96 172.51 607.11 172.53C607.26 172.55 607.39 172.64 607.46 172.77L635.74 221.75C635.85 221.94 635.82 222.18 635.66 222.33C635.57 222.43 635.44 222.48 635.32 222.48ZM586.52 193.26L634 220.67L606.93 173.79L586.52 193.26Z" fill="#F8F8F8"></path> <path d="M572.58 284.21C572.44 284.21 572.3 284.15 572.2 284.03L521.83 222.29C521.74 222.17 521.7 222.02 521.73 221.87C521.76 221.72 521.87 221.6 522 221.54L585.52 192.91C585.68 192.84 585.87 192.86 586.01 192.96C586.15 193.07 586.22 193.24 586.2 193.42L573.06 283.79C573.03 283.98 572.89 284.13 572.71 284.19C572.67 284.2 572.63 284.21 572.58 284.21ZM522.98 222.17L572.26 282.57L585.12 194.16L522.98 222.17Z" fill="#F8F8F8"></path> <path d="M522.21 222.19H465.65C465.48 222.19 465.32 222.1 465.23 221.95C465.14 221.8 465.14 221.62 465.23 221.47L493.51 172.49C493.68 172.19 494.18 172.19 494.35 172.49L522.63 221.47C522.72 221.62 522.72 221.8 522.63 221.95C522.54 222.09 522.38 222.19 522.21 222.19ZM466.49 221.22H521.37L493.93 173.69L466.49 221.22Z" fill="#F8F8F8"></path> <path d="M493.93 173.21C493.87 173.21 493.81 173.2 493.76 173.18C493.59 173.12 493.47 172.97 493.45 172.79L487.46 124.1C487.44 123.96 487.49 123.81 487.59 123.71C487.69 123.61 487.83 123.55 487.98 123.56L544.45 128.19C544.64 128.21 544.81 128.34 544.87 128.52C544.93 128.7 544.88 128.91 544.73 129.04L494.24 173.1C494.16 173.17 494.05 173.21 493.93 173.21ZM488.5 124.57L494.3 171.76L543.24 129.05L488.5 124.57Z" fill="#F8F8F8"></path> <path d="M522.21 222.19C522.04 222.19 521.88 222.1 521.79 221.95L493.51 172.97C493.41 172.79 493.43 172.57 493.56 172.42C493.69 172.26 493.91 172.21 494.1 172.28L538.3 188.76C538.43 188.81 538.53 188.91 538.58 189.03C538.63 189.16 538.62 189.3 538.56 189.42L522.64 221.92C522.56 222.08 522.4 222.18 522.22 222.19C522.22 222.19 522.21 222.19 522.21 222.19ZM495.02 173.65L522.17 220.68L537.46 189.47L495.02 173.65Z" fill="#F8F8F8"></path> <path d="M493.94 173.21C493.9 173.21 493.86 173.2 493.82 173.19L445.26 160.6C445.08 160.55 444.95 160.42 444.91 160.24C444.87 160.06 444.93 159.88 445.07 159.76L487.64 123.66C487.78 123.54 487.96 123.51 488.13 123.58C488.3 123.64 488.41 123.79 488.43 123.97L494.42 172.66C494.44 172.82 494.38 172.98 494.26 173.08C494.17 173.17 494.05 173.21 493.94 173.21ZM446.4 159.91L493.36 172.08L487.57 124.99L446.4 159.91Z" fill="#F8F8F8"></path> <path d="M538.13 189.69C538.07 189.69 538.02 189.68 537.96 189.66L493.76 173.18C493.6 173.12 493.48 172.98 493.45 172.81C493.42 172.64 493.48 172.47 493.61 172.36L544.1 128.3C544.25 128.17 544.46 128.14 544.64 128.24C544.82 128.33 544.92 128.52 544.9 128.72L538.61 189.26C538.59 189.41 538.51 189.54 538.38 189.62C538.31 189.66 538.22 189.69 538.13 189.69ZM494.86 172.56L537.71 188.54L543.81 129.85L494.86 172.56Z" fill="#F8F8F8"></path> <path d="M465.66 222.19C465.64 222.19 465.63 222.19 465.61 222.19C465.42 222.17 465.26 222.04 465.2 221.86L444.92 160.29C444.86 160.12 444.9 159.94 445.03 159.81C445.15 159.68 445.33 159.63 445.5 159.67L494.06 172.26C494.21 172.3 494.33 172.4 494.38 172.54C494.44 172.68 494.43 172.84 494.35 172.97L466.07 221.95C465.99 222.09 465.83 222.19 465.66 222.19ZM446.12 160.83L465.78 220.53L493.2 173.04L446.12 160.83Z" fill="#F8F8F8"></path> <path d="M544.42 129.15C544.41 129.15 544.39 129.15 544.38 129.15L487.91 124.52C487.7 124.5 487.53 124.36 487.48 124.15L471.52 60.21C471.47 60 471.56 59.78 471.75 59.68C471.93 59.57 472.17 59.6 472.33 59.75L544.77 128.31C544.92 128.45 544.96 128.67 544.88 128.86C544.79 129.04 544.61 129.15 544.42 129.15ZM488.33 123.59L543.09 128.08L472.86 61.6L488.33 123.59Z" fill="#F8F8F8"></path> <path d="M471.99 60.59C471.93 60.59 471.86 60.58 471.8 60.55C471.65 60.49 471.54 60.35 471.51 60.19L465.18 25.87C465.15 25.73 465.19 25.58 465.28 25.47C465.37 25.36 465.51 25.3 465.65 25.3H522.21C522.42 25.3 522.61 25.44 522.67 25.64C522.73 25.84 522.66 26.06 522.48 26.18L472.25 60.5C472.18 60.57 472.08 60.59 471.99 60.59ZM466.24 26.28L472.33 59.3L520.65 26.28H466.24V26.28Z" fill="#F8F8F8"></path> <path d="M544.42 129.15C544.3 129.15 544.18 129.1 544.09 129.02L471.65 60.46C471.49 60.31 471.45 60.06 471.56 59.87C471.67 59.68 471.9 59.58 472.11 59.64L555.67 82.88C555.92 82.95 556.07 83.21 556.01 83.46L544.88 128.79C544.84 128.96 544.71 129.09 544.55 129.14C544.51 129.15 544.46 129.15 544.42 129.15ZM473.73 61.09L544.15 127.74L554.96 83.67L473.73 61.09Z" fill="#F8F8F8"></path> <path d="M437.38 75.25C437.24 75.25 437.11 75.19 437.02 75.09C436.88 74.93 436.86 74.71 436.96 74.53L465.24 25.55C465.34 25.37 465.54 25.28 465.74 25.32C465.94 25.35 466.1 25.51 466.13 25.71L472.46 60.03C472.5 60.25 472.38 60.47 472.17 60.56L437.56 75.22C437.51 75.24 437.44 75.25 437.38 75.25ZM465.42 27.17L438.52 73.76L471.44 59.81L465.42 27.17Z" fill="#F8F8F8"></path> <path d="M555.54 83.83C555.5 83.83 555.45 83.82 555.41 83.81L471.85 60.57C471.67 60.52 471.53 60.37 471.5 60.18C471.47 59.99 471.55 59.81 471.7 59.7L521.93 25.38C522.04 25.3 522.18 25.28 522.31 25.31C522.44 25.34 522.55 25.42 522.62 25.54L555.95 83.09C556.05 83.26 556.03 83.47 555.91 83.63C555.83 83.76 555.69 83.83 555.54 83.83ZM473.11 59.92L554.53 82.56L522.05 26.48L473.11 59.92Z" fill="#F8F8F8"></path> <path d="M487.95 124.52C487.83 124.52 487.71 124.47 487.61 124.38L437.04 75.11C436.92 75 436.87 74.83 436.9 74.67C436.93 74.51 437.04 74.38 437.19 74.31L471.8 59.65C471.93 59.6 472.08 59.6 472.21 59.66C472.34 59.72 472.43 59.84 472.46 59.98L488.42 123.92C488.47 124.13 488.38 124.35 488.19 124.46C488.12 124.5 488.03 124.52 487.95 124.52ZM438.24 74.93L487.07 122.51L471.66 60.77L438.24 74.93Z" fill="#F8F8F8"></path> <path d="M538.25 189.97C538.08 189.97 537.93 189.88 537.84 189.74C537.73 189.56 537.75 189.33 537.89 189.17L573.58 147.8C573.75 147.61 574.03 147.58 574.24 147.73L607.46 172.63C607.61 172.74 607.68 172.93 607.64 173.12C607.6 173.3 607.46 173.45 607.28 173.49L538.36 189.97C538.33 189.97 538.29 189.97 538.25 189.97ZM574.02 148.78L539.6 188.68L606.06 172.79L574.02 148.78Z" fill="#F8F8F8"></path> <path d="M573.95 148.61C573.94 148.61 573.93 148.61 573.91 148.61C573.71 148.59 573.54 148.46 573.48 148.26L555.2 83.76C555.16 83.63 555.18 83.49 555.26 83.37C555.33 83.25 555.45 83.17 555.59 83.15L607.09 74.58C607.26 74.55 607.44 74.62 607.55 74.76C607.66 74.9 607.68 75.09 607.61 75.25L574.39 148.32C574.31 148.5 574.14 148.61 573.95 148.61ZM556.28 84.02L574.05 146.72L606.35 75.68L556.28 84.02Z" fill="#F8F8F8"></path> <path d="M607.17 173.5C607.07 173.5 606.96 173.47 606.88 173.4L573.66 148.51C573.52 148.41 573.45 148.23 573.47 148.06C573.49 147.89 573.61 147.74 573.77 147.68L635.27 123.59C635.46 123.51 635.68 123.57 635.81 123.72C635.94 123.88 635.96 124.1 635.86 124.28L607.58 173.26C607.51 173.38 607.39 173.46 607.26 173.49C607.23 173.49 607.2 173.5 607.17 173.5ZM574.93 148.25L607.02 172.3L634.34 124.99L574.93 148.25Z" fill="#F8F8F8"></path> <path d="M573.95 148.61C573.86 148.61 573.77 148.58 573.69 148.53L544.29 129.37C544.12 129.26 544.04 129.05 544.08 128.85L555.21 83.52C555.26 83.31 555.45 83.16 555.67 83.15C555.93 83.16 556.08 83.29 556.14 83.5L574.42 147.99C574.47 148.18 574.4 148.39 574.24 148.51C574.15 148.57 574.05 148.61 573.95 148.61ZM545.1 128.74L573.14 147.01L555.71 85.52L545.1 128.74Z" fill="#F8F8F8"></path> <path d="M573.95 148.61C573.82 148.61 573.69 148.56 573.6 148.46C573.46 148.32 573.43 148.11 573.51 147.93L606.73 74.87C606.8 74.71 606.97 74.6 607.15 74.59C607.35 74.57 607.5 74.67 607.59 74.83L635.87 123.81C635.94 123.93 635.96 124.08 635.91 124.21C635.86 124.34 635.76 124.45 635.63 124.5L574.13 148.58C574.06 148.6 574 148.61 573.95 148.61ZM607.22 76.11L574.88 147.23L634.75 123.79L607.22 76.11Z" fill="#F8F8F8"></path> <path d="M538.26 189.98C538.2 189.98 538.13 189.97 538.07 189.94C537.88 189.86 537.76 189.66 537.78 189.45L544.07 128.91C544.09 128.74 544.19 128.6 544.34 128.52C544.49 128.45 544.67 128.46 544.81 128.55L574.21 147.71C574.33 147.79 574.4 147.91 574.42 148.05C574.44 148.19 574.4 148.33 574.31 148.43L538.62 189.8C538.53 189.92 538.4 189.98 538.26 189.98ZM544.95 129.79L538.9 188L573.23 148.21L544.95 129.79Z" fill="#F8F8F8"></path> <path d="M714.07 284.21C713.96 284.21 713.86 284.17 713.77 284.11L635.1 222.09C634.99 222 634.92 221.87 634.92 221.72C634.92 221.58 634.98 221.44 635.08 221.34L670.15 190.56C670.27 190.46 670.42 190.42 670.57 190.45C670.72 190.48 670.84 190.58 670.91 190.72L714.51 283.53C714.61 283.73 714.55 283.97 714.37 284.11C714.28 284.17 714.17 284.21 714.07 284.21ZM636.15 221.68L712.76 282.08L670.3 191.71L636.15 221.68Z" fill="#F8F8F8"></path> <path d="M670.47 191.41C670.46 191.41 670.45 191.41 670.44 191.41C670.27 191.4 670.12 191.3 670.05 191.15L634.98 123.97C634.9 123.83 634.91 123.65 634.99 123.51C635.07 123.37 635.21 123.27 635.38 123.26L723.14 116.74C723.33 116.72 723.51 116.82 723.6 116.99C723.69 117.15 723.68 117.36 723.57 117.51L670.88 191.2C670.77 191.33 670.62 191.41 670.47 191.41ZM636.16 124.17L670.53 190L722.16 117.79L636.16 124.17Z" fill="#F8F8F8"></path> <path d="M714.06 284.21C713.87 284.21 713.7 284.1 713.62 283.93L670.02 191.12C669.91 190.9 670 190.63 670.21 190.5L770.96 130.26C771.14 130.16 771.36 130.17 771.52 130.3C771.68 130.43 771.74 130.65 771.66 130.84L714.51 283.88C714.44 284.06 714.27 284.19 714.08 284.19C714.08 284.21 714.07 284.21 714.06 284.21ZM671.09 191.11L714.02 282.48L770.28 131.81L671.09 191.11Z" fill="#F8F8F8"></path> <path d="M670.47 191.41C670.43 191.41 670.38 191.4 670.34 191.39L606.99 173.19C606.85 173.15 606.73 173.04 606.67 172.91C606.61 172.77 606.63 172.62 606.7 172.49L634.98 123.51C635.07 123.36 635.24 123.28 635.41 123.27C635.59 123.27 635.75 123.37 635.83 123.53L670.9 190.71C670.99 190.88 670.97 191.09 670.85 191.24C670.75 191.34 670.61 191.41 670.47 191.41ZM607.85 172.43L669.52 190.15L635.38 124.75L607.85 172.43Z" fill="#F8F8F8"></path> <path d="M670.46 191.41C670.33 191.41 670.2 191.36 670.1 191.25C669.95 191.08 669.93 190.83 670.06 190.64L722.75 116.95C722.87 116.78 723.08 116.71 723.27 116.77L771.33 130.23C771.52 130.28 771.65 130.44 771.68 130.63C771.71 130.82 771.61 131.01 771.45 131.11L670.7 191.35C670.63 191.38 670.55 191.41 670.46 191.41ZM723.34 117.78L672.2 189.31L770 130.85L723.34 117.78Z" fill="#F8F8F8"></path> <path d="M635.4 222.19C635.37 222.19 635.35 222.19 635.32 222.18C635.18 222.16 635.05 222.07 634.98 221.94L606.7 172.96C606.6 172.79 606.62 172.58 606.74 172.42C606.86 172.27 607.07 172.2 607.25 172.25L670.6 190.45C670.77 190.5 670.9 190.64 670.94 190.81C670.98 190.98 670.92 191.16 670.79 191.28L635.72 222.06C635.63 222.14 635.51 222.19 635.4 222.19ZM608.14 173.52L635.52 220.95L669.48 191.14L608.14 173.52Z" fill="#F8F8F8"></path> <path d="M126.21 320.43C126.09 320.43 125.97 320.39 125.88 320.3C125.71 320.14 125.68 319.88 125.81 319.68L176.51 242.28C176.61 242.13 176.79 242.04 176.97 242.07C177.15 242.09 177.31 242.22 177.37 242.39L188.11 272.77C188.18 272.97 188.11 273.19 187.95 273.32L126.51 320.34C126.42 320.4 126.32 320.43 126.21 320.43ZM176.78 243.63L128.17 317.84L187.08 272.76L176.78 243.63Z" fill="#F8F8F8"></path> <path d="M176.91 243.04C176.78 243.04 176.65 242.99 176.56 242.89L130.92 194.93C130.77 194.78 130.74 194.54 130.85 194.36C130.96 194.17 131.17 194.08 131.38 194.13L171.29 203.06C171.49 203.1 171.63 203.26 171.66 203.46L177.39 242.49C177.42 242.7 177.31 242.9 177.12 242.99C177.06 243.02 176.99 243.04 176.91 243.04ZM132.72 195.41L176.22 241.11L170.76 203.92L132.72 195.41Z" fill="#F8F8F8"></path> <path d="M229.32 287.94C229.27 287.94 229.21 287.93 229.16 287.91L187.49 273.38C187.35 273.33 187.24 273.22 187.19 273.09L176.45 242.71C176.38 242.5 176.45 242.27 176.63 242.15C176.81 242.03 177.05 242.04 177.22 242.18L229.63 287.09C229.81 287.24 229.85 287.5 229.73 287.7C229.65 287.86 229.49 287.94 229.32 287.94ZM188.03 272.55L227.06 286.16L177.97 244.09L188.03 272.55Z" fill="#F8F8F8"></path> <path d="M107.76 255.21C107.62 255.21 107.48 255.15 107.39 255.03C107.28 254.89 107.25 254.71 107.31 254.55L130.83 194.42C130.89 194.27 131.03 194.15 131.19 194.12C131.35 194.09 131.52 194.14 131.63 194.26L177.27 242.22C177.39 242.35 177.43 242.54 177.38 242.7C177.32 242.87 177.18 242.99 177 243.02L107.84 255.19C107.81 255.21 107.78 255.21 107.76 255.21ZM131.45 195.48L108.52 254.1L175.94 242.23L131.45 195.48Z" fill="#F8F8F8"></path> <path d="M229.32 287.95C229.21 287.95 229.1 287.91 229.01 287.83L176.6 242.92C176.51 242.84 176.45 242.74 176.44 242.62L170.71 203.59C170.68 203.37 170.8 203.15 171.01 203.07C171.22 202.99 171.46 203.06 171.59 203.24L229.73 287.18C229.87 287.38 229.84 287.65 229.66 287.81C229.55 287.91 229.44 287.95 229.32 287.95ZM177.36 242.3L226.78 284.65L171.95 205.49L177.36 242.3Z" fill="#F8F8F8"></path> <path d="M126.22 320.43C126.2 320.43 126.17 320.43 126.15 320.42C125.96 320.39 125.81 320.26 125.76 320.07L107.3 254.84C107.26 254.71 107.28 254.57 107.36 254.45C107.43 254.33 107.55 254.25 107.69 254.23L176.85 242.06C177.05 242.03 177.23 242.11 177.34 242.27C177.45 242.43 177.45 242.64 177.34 242.8L126.64 320.2C126.53 320.35 126.38 320.43 126.22 320.43ZM108.37 255.11L126.4 318.8L175.91 243.22L108.37 255.11Z" fill="#F8F8F8"></path> <path d="M61.12 202.95C61.08 202.95 61.04 202.95 61 202.93L0.360003 187.58C0.180003 187.54 0.0500026 187.39 0.0100026 187.21C-0.0299974 187.03 0.0400026 186.85 0.180003 186.73L89.06 114.87C89.23 114.73 89.46 114.73 89.64 114.85C89.82 114.97 89.89 115.19 89.83 115.4L61.58 202.61C61.51 202.81 61.32 202.95 61.12 202.95ZM1.54 186.88L60.8 201.88L88.41 116.65L1.54 186.88Z" fill="#F8F8F8"></path> <path d="M89.37 115.74C89.26 115.74 89.15 115.7 89.06 115.63L40.94 75.4201C40.78 75.2901 40.73 75.0801 40.8 74.8801C40.87 74.6901 41.05 74.5601 41.25 74.5601H97.81C97.96 74.5601 98.09 74.6301 98.19 74.7401C98.28 74.8501 98.32 75.0001 98.29 75.1401L89.85 115.35C89.82 115.52 89.7 115.65 89.54 115.71C89.47 115.73 89.42 115.74 89.37 115.74ZM42.59 75.5301L89.06 114.37L97.22 75.5301H42.59Z" fill="#F8F8F8"></path> <path d="M61.11 202.95C61.03 202.95 60.94 202.93 60.86 202.88C60.67 202.76 60.58 202.53 60.65 202.32L88.9 115.11C88.94 114.97 89.05 114.86 89.18 114.81C89.31 114.76 89.46 114.76 89.59 114.83L126.38 134.18C126.52 134.25 126.61 134.38 126.63 134.53C126.65 134.68 126.61 134.83 126.5 134.94L61.46 202.8C61.37 202.9 61.24 202.95 61.11 202.95ZM89.65 115.95L62.23 200.61L125.36 134.74L89.65 115.95Z" fill="#F8F8F8"></path> <path d="M12.98 124.51C12.82 124.51 12.67 124.43 12.58 124.29C12.48 124.14 12.47 123.94 12.57 123.78L40.85 74.8C40.92 74.68 41.04 74.59 41.18 74.57C41.32 74.54 41.47 74.58 41.57 74.67L89.68 114.88C89.83 115 89.89 115.2 89.83 115.39C89.78 115.58 89.61 115.71 89.42 115.73L13.03 124.5C13.01 124.51 13 124.51 12.98 124.51ZM41.39 75.79L13.88 123.44L88.2 114.91L41.39 75.79Z" fill="#F8F8F8"></path> <path d="M126.15 135.09C126.07 135.09 126 135.07 125.93 135.03L89.14 115.68C88.95 115.58 88.85 115.36 88.89 115.15L97.33 74.94C97.37 74.74 97.54 74.58 97.75 74.56C97.96 74.54 98.16 74.64 98.24 74.83L126.58 134.39C126.67 134.58 126.63 134.8 126.48 134.95C126.39 135.04 126.27 135.09 126.15 135.09ZM89.91 115L125.09 133.5L97.99 76.55L89.91 115Z" fill="#F8F8F8"></path> <path d="M0.490011 187.6C0.400011 187.6 0.320011 187.58 0.240011 187.53C0.070011 187.42 -0.019989 187.22 0.020011 187.02L12.51 123.93C12.55 123.72 12.72 123.57 12.93 123.54L89.32 114.77C89.53 114.74 89.74 114.87 89.82 115.06C89.9 115.26 89.85 115.49 89.68 115.62L0.790011 187.49C0.700011 187.56 0.600011 187.6 0.490011 187.6ZM13.38 124.47L1.22001 185.9L87.77 115.93L13.38 124.47Z" fill="#F8F8F8"></path> <path d="M635.39 124.45C635.21 124.45 635.04 124.35 634.96 124.18C634.87 124 634.9 123.79 635.03 123.64L688.27 64.08C688.37 63.97 688.52 63.91 688.67 63.92C688.82 63.93 688.96 64.01 689.04 64.14L723.56 117.18C723.65 117.32 723.66 117.51 723.59 117.66C723.51 117.81 723.36 117.91 723.19 117.93L635.43 124.45C635.42 124.45 635.4 124.45 635.39 124.45ZM688.57 65.2L636.55 123.4L722.3 117.03L688.57 65.2Z" fill="#F8F8F8"></path> <path d="M688.63 64.9C688.49 64.9 688.37 64.84 688.27 64.74L652.82 26.12C652.71 26 652.67 25.82 652.71 25.66C652.76 25.5 652.88 25.37 653.05 25.33L743.48 0.600032C743.69 0.550032 743.9 0.630032 744.02 0.810032C744.13 0.990032 744.12 1.22003 743.98 1.38003L689 64.73C688.9 64.83 688.77 64.89 688.63 64.9ZM654.08 26.05L688.62 63.69L742.2 1.95003L654.08 26.05Z" fill="#F8F8F8"></path> <path d="M723.15 117.94C723.12 117.94 723.09 117.94 723.06 117.93C722.93 117.91 722.81 117.83 722.74 117.72L688.22 64.68C688.1 64.5 688.12 64.27 688.25 64.11C688.38 63.95 688.61 63.89 688.8 63.97L757.84 91.5C758 91.56 758.12 91.71 758.14 91.89C758.16 92.06 758.09 92.24 757.95 92.34L723.43 117.85C723.35 117.9 723.25 117.94 723.15 117.94ZM689.86 65.42L723.27 116.76L756.68 92.07L689.86 65.42Z" fill="#F8F8F8"></path> <path d="M607.12 75.48C606.94 75.48 606.77 75.38 606.69 75.22C606.6 75.04 606.63 74.82 606.77 74.67L652.84 25.47C652.93 25.37 653.04 25.3 653.2 25.32C653.33 25.32 653.46 25.38 653.55 25.48L689 64.1C689.12 64.23 689.16 64.42 689.1 64.59C689.04 64.76 688.89 64.88 688.71 64.9L607.19 75.48C607.16 75.48 607.14 75.48 607.12 75.48ZM653.18 26.5L608.39 74.34L687.65 64.05L653.18 26.5Z" fill="#F8F8F8"></path> <path d="M757.67 92.43C757.61 92.43 757.55 92.42 757.49 92.4L688.45 64.87C688.3 64.81 688.2 64.69 688.16 64.54C688.12 64.39 688.16 64.23 688.26 64.11L743.24 0.760036C743.36 0.620036 743.56 0.560036 743.74 0.610036C743.92 0.660036 744.05 0.810036 744.08 1.00004L758.14 91.88C758.17 92.05 758.1 92.22 757.96 92.33C757.88 92.39 757.78 92.43 757.67 92.43ZM689.44 64.21L757.06 91.18L743.29 2.17004L689.44 64.21Z" fill="#F8F8F8"></path> <path d="M635.39 124.45C635.37 124.45 635.36 124.45 635.34 124.45C635.19 124.43 635.05 124.34 634.97 124.21L606.7 75.23C606.62 75.09 606.61 74.9201 606.68 74.7701C606.75 74.6201 606.89 74.53 607.05 74.51L688.57 63.93C688.77 63.9 688.97 64 689.06 64.18C689.15 64.36 689.13 64.58 688.99 64.73L635.75 124.29C635.66 124.4 635.53 124.45 635.39 124.45ZM607.9 75.3801L635.48 123.15L687.41 65.0601L607.9 75.3801Z" fill="#F8F8F8"></path> <path d="M380.83 173.21C380.63 173.21 380.45 173.09 380.38 172.9C380.3 172.68 380.39 172.43 380.59 172.31L430.07 143.74C430.26 143.63 430.51 143.66 430.66 143.83L445.73 159.82C445.85 159.95 445.89 160.13 445.84 160.3C445.79 160.47 445.65 160.59 445.47 160.63L380.91 173.22C380.89 173.2 380.86 173.21 380.83 173.21ZM430.22 144.76L383.58 171.69L444.44 159.83L430.22 144.76Z" fill="#F8F8F8"></path> <path d="M430.31 144.64C430.2 144.64 430.09 144.6 430 144.53L355.99 83.8601C355.84 83.7401 355.78 83.53 355.83 83.35C355.89 83.16 356.05 83.0301 356.24 83.0101L437.32 74.2901C437.47 74.2701 437.61 74.3201 437.71 74.4301C437.81 74.5301 437.86 74.6801 437.85 74.8201L430.78 144.21C430.76 144.39 430.65 144.54 430.48 144.61C430.44 144.63 430.37 144.64 430.31 144.64ZM357.5 83.85L429.92 143.22L436.84 75.3201L357.5 83.85Z" fill="#F8F8F8"></path> <path d="M445.38 160.62C445.25 160.62 445.12 160.57 445.03 160.47L429.96 144.48C429.85 144.36 429.8 144.19 429.84 144.03C429.88 143.87 430 143.74 430.15 143.69L487.79 123.58C488.01 123.5 488.25 123.59 488.37 123.8C488.49 124 488.44 124.26 488.26 124.41L445.69 160.51C445.61 160.59 445.49 160.62 445.38 160.62ZM431.17 144.36L445.42 159.47L485.65 125.35L431.17 144.36Z" fill="#F8F8F8"></path> <path d="M430.31 144.64C430.27 144.64 430.23 144.63 430.19 144.62L352.43 124.21C352.2 124.15 352.05 123.93 352.07 123.7L355.82 83.44C355.84 83.26 355.95 83.11 356.12 83.04C356.28 82.97 356.47 83 356.61 83.11L430.62 143.78C430.8 143.92 430.85 144.17 430.74 144.37C430.66 144.54 430.49 144.64 430.31 144.64ZM353.07 123.38L428.29 143.12L356.69 84.43L353.07 123.38Z" fill="#F8F8F8"></path> <path d="M430.31 144.64C430.2 144.64 430.1 144.6 430.01 144.54C429.88 144.44 429.81 144.28 429.83 144.11L436.9 74.72C436.92 74.54 437.04 74.3801 437.22 74.3101C437.39 74.2501 437.59 74.29 437.72 74.42L488.29 123.69C488.41 123.81 488.46 123.98 488.43 124.14C488.39 124.3 488.28 124.44 488.12 124.49L430.48 144.6C430.42 144.63 430.36 144.64 430.31 144.64ZM437.76 75.8101L430.87 143.44L487.06 123.83L437.76 75.8101Z" fill="#F8F8F8"></path> <path d="M380.83 173.21C380.79 173.21 380.75 173.2 380.71 173.19C380.59 173.16 380.48 173.08 380.42 172.96L352.14 123.98C352.04 123.81 352.06 123.6 352.17 123.44C352.29 123.28 352.49 123.21 352.68 123.27L430.44 143.68C430.63 143.73 430.77 143.89 430.8 144.08C430.83 144.27 430.73 144.47 430.56 144.56L381.08 173.13C381 173.19 380.91 173.21 380.83 173.21ZM353.55 124.51L381.01 172.07L429.06 144.33L353.55 124.51Z" fill="#F8F8F8"></path> <path d="M399.66 189.03C399.3 190.88 397.51 192.08 395.66 191.72C393.81 191.36 392.61 189.57 392.97 187.72C393.33 185.87 395.12 184.67 396.97 185.03C398.82 185.39 400.02 187.18 399.66 189.03Z" fill="#F8F8F8"></path> <path d="M291.453 255.711C293.061 254.73 293.568 252.631 292.587 251.024C291.606 249.416 289.507 248.909 287.9 249.89C286.292 250.871 285.785 252.97 286.766 254.577C287.747 256.185 289.846 256.692 291.453 255.711Z" fill="#F8F8F8"></path> <path d="M382.5 172.41C382.3 173.44 381.3 174.12 380.27 173.92C379.24 173.72 378.56 172.72 378.76 171.69C378.96 170.66 379.96 169.98 380.99 170.18C382.02 170.38 382.7 171.38 382.5 172.41Z" fill="#F8F8F8"></path> <path d="M432.18 143.55C431.98 144.58 430.98 145.26 429.95 145.06C428.92 144.86 428.24 143.86 428.44 142.83C428.64 141.8 429.64 141.12 430.67 141.32C431.71 141.52 432.38 142.52 432.18 143.55Z" fill="#F8F8F8"></path> <path d="M490.67 123.6C490.38 125.1 488.92 126.09 487.42 125.79C485.92 125.5 484.93 124.04 485.23 122.54C485.52 121.04 486.98 120.05 488.48 120.35C489.98 120.64 490.96 122.1 490.67 123.6Z" fill="#F8F8F8"></path> <path d="M546.88 128.15C546.63 129.44 545.38 130.28 544.1 130.03C542.81 129.78 541.97 128.53 542.22 127.25C542.47 125.96 543.72 125.12 545 125.37C546.29 125.62 547.13 126.87 546.88 128.15Z" fill="#F8F8F8"></path> <path d="M576.28 147.6C576.03 148.89 574.78 149.73 573.5 149.48C572.21 149.23 571.37 147.98 571.62 146.7C571.87 145.41 573.12 144.57 574.4 144.82C575.69 145.07 576.53 146.32 576.28 147.6Z" fill="#F8F8F8"></path> <path d="M726.77 118.35C726.39 120.32 724.48 121.6 722.51 121.22C720.54 120.84 719.26 118.93 719.64 116.96C720.02 114.99 721.93 113.71 723.9 114.09C725.87 114.47 727.15 116.38 726.77 118.35Z" fill="#F8F8F8"></path> <path d="M638.23 124.81C637.94 126.29 636.51 127.25 635.03 126.97C633.55 126.68 632.59 125.25 632.87 123.77C633.16 122.29 634.59 121.33 636.07 121.61C637.55 121.89 638.52 123.33 638.23 124.81Z" fill="#F8F8F8"></path> <path d="M672.24 191.13C672 192.37 670.8 193.18 669.56 192.94C668.32 192.7 667.51 191.5 667.75 190.26C667.99 189.02 669.19 188.21 670.43 188.45C671.67 188.69 672.48 189.89 672.24 191.13Z" fill="#F8F8F8"></path> <path d="M716.42 284.33C716.18 285.57 714.98 286.38 713.74 286.14C712.5 285.9 711.69 284.7 711.93 283.46C712.17 282.22 713.37 281.41 714.61 281.65C715.85 281.89 716.66 283.09 716.42 284.33Z" fill="#F8F8F8"></path> <path d="M689.95 64.44C689.71 65.68 688.51 66.49 687.27 66.25C686.03 66.01 685.22 64.81 685.46 63.57C685.7 62.33 686.9 61.52 688.14 61.76C689.38 62 690.19 63.2 689.95 64.44Z" fill="#F8F8F8"></path> <path d="M655.43 26.27C655.19 27.51 653.99 28.32 652.75 28.08C651.51 27.84 650.7 26.64 650.94 25.4C651.18 24.16 652.38 23.35 653.62 23.59C654.87 23.83 655.68 25.03 655.43 26.27Z" fill="#F8F8F8"></path> <path d="M468.21 221.23C467.94 222.64 466.57 223.56 465.16 223.29C463.75 223.02 462.83 221.65 463.1 220.24C463.37 218.83 464.74 217.91 466.15 218.18C467.56 218.45 468.49 219.82 468.21 221.23Z" fill="#F8F8F8"></path> <path d="M298.33 123.31C298.06 124.71 296.7 125.62 295.31 125.35C293.91 125.08 293 123.72 293.27 122.33C293.54 120.93 294.9 120.02 296.29 120.29C297.69 120.55 298.6 121.91 298.33 123.31Z" fill="#F8F8F8"></path> <path d="M185.45 124.16C185.11 125.91 183.41 127.05 181.66 126.71C179.91 126.37 178.77 124.67 179.11 122.92C179.45 121.17 181.15 120.03 182.9 120.37C184.65 120.71 185.79 122.41 185.45 124.16Z" fill="#F8F8F8"></path> <path d="M127.97 133.6C127.73 134.84 126.53 135.64 125.3 135.4C124.06 135.16 123.26 133.96 123.5 132.73C123.74 131.49 124.94 130.69 126.17 130.93C127.4 131.16 128.21 132.36 127.97 133.6Z" fill="#F8F8F8"></path> <path d="M133.51 194.14C133.27 195.38 132.07 196.18 130.84 195.94C129.6 195.7 128.8 194.5 129.04 193.27C129.28 192.03 130.48 191.23 131.71 191.47C132.94 191.71 133.75 192.91 133.51 194.14Z" fill="#F8F8F8"></path> <path d="M262.31 185.39C262.06 186.68 260.8 187.53 259.51 187.28C258.22 187.03 257.37 185.77 257.62 184.48C257.87 183.19 259.13 182.34 260.42 182.59C261.72 182.84 262.57 184.09 262.31 185.39Z" fill="#F8F8F8"></path> <g opacity="0.25"> <path opacity="0.25" d="M608.69 180.27C608.99 180.27 609.27 180.25 609.56 180.21H607.8C608.1 180.25 608.39 180.27 608.69 180.27Z" fill="#F8F8F8"></path> </g> <path d="M351.82 124.67C350.93 124.34 350.48 123.36 350.8 122.47C351.13 121.58 352.11 121.13 353 121.45C353.89 121.78 354.34 122.76 354.02 123.65C353.69 124.55 352.71 125 351.82 124.67Z" fill="#F8F8F8"></path> <path d="M340.99 153.21C340.1 152.88 339.65 151.9 339.97 151.01C340.3 150.12 341.28 149.67 342.17 149.99C343.06 150.32 343.51 151.3 343.19 152.19C342.86 153.08 341.88 153.54 340.99 153.21Z" fill="#F8F8F8"></path> </svg> 