<?xml version="1.0" encoding="UTF-8"?> <svg xmlns="http://www.w3.org/2000/svg" width="200" height="201" viewBox="0 0 200 201" fill="none"> <g clip-path="url(#clip0)"> <path d="M53.3388 161.251L53.3359 162.751H53.3388V161.251ZM94.4538 108.204L92.9538 108.202L92.9538 108.202L94.4538 108.204ZM12.2237 108.204L13.7237 108.208L13.7237 108.206L12.2237 108.204ZM34.1484 108.204L32.6484 108.201L32.6484 108.201L34.1484 108.204ZM72.4794 108.204L70.9794 108.204L70.9794 108.207L72.4794 108.204ZM53.3388 162.751C66.5609 162.751 77.2807 157.697 84.6618 148.234C92.0054 138.819 95.9287 125.192 95.9538 108.206L92.9538 108.202C92.9293 124.774 89.0969 137.67 82.2963 146.389C75.5333 155.06 65.7204 159.751 53.3388 159.751V162.751ZM95.9538 108.206C95.979 91.3375 92.0287 77.866 84.6537 68.5795C77.2437 59.2489 66.5007 54.3032 53.3388 54.3032V57.3032C65.6811 57.3032 75.5205 61.9029 82.3044 70.4452C89.1233 79.0316 92.9784 91.7603 92.9538 108.202L95.9538 108.206ZM53.3388 54.3032C40.1532 54.3032 29.4338 59.2358 22.0416 68.562C14.6859 77.8422 10.7489 91.3127 10.7237 108.202L13.7237 108.206C13.7483 91.7355 17.5918 79.0056 24.3927 70.4255C31.1571 61.8912 40.9704 57.3032 53.3388 57.3032V54.3032ZM10.7237 108.199C10.6734 125.14 14.5846 138.757 21.9417 148.179C29.3348 157.647 40.0905 162.725 53.3359 162.751L53.3417 159.751C40.9337 159.727 31.0821 155.01 24.3062 146.332C17.4942 137.608 13.6746 124.727 13.7237 108.208L10.7237 108.199ZM53.3388 141.903C48.1068 141.903 43.7605 139.323 40.647 133.86C37.4873 128.316 35.6238 119.816 35.6484 108.207L32.6484 108.201C32.6233 120.058 34.5134 129.157 38.0405 135.346C41.6138 141.615 46.8875 144.903 53.3388 144.903V141.903ZM35.6484 108.207C35.673 96.7729 37.5475 88.3839 40.6997 82.9071C43.8058 77.5104 48.1282 74.9523 53.3388 74.9523V71.9523C46.9158 71.9523 41.6679 75.211 38.0996 81.4106C34.5775 87.53 32.6736 96.5168 32.6484 108.201L35.6484 108.207ZM53.3388 74.9523C58.5232 74.9523 62.8461 77.5092 65.953 82.9071C69.1049 88.3834 70.9794 96.7717 70.9794 108.204H73.9794C73.9794 96.5179 72.0755 87.5305 68.5531 81.4106C64.9855 75.2123 59.7382 71.9523 53.3388 71.9523V74.9523ZM70.9794 108.207C71.004 119.815 69.1406 128.317 65.9865 133.861C62.8779 139.326 58.5434 141.903 53.3388 141.903V144.903C59.7677 144.903 65.0283 141.613 68.5941 135.345C72.1144 129.156 74.0045 120.058 73.9794 108.201L70.9794 108.207ZM186.615 130.427L185.115 130.421L185.115 130.431L186.615 130.427ZM163.646 106.812H162.146V108.134L163.458 108.3L163.646 106.812ZM163.646 106.016L163.382 104.54L162.146 104.761V106.016H163.646ZM182.836 84.4893L181.336 84.4846L181.336 84.4958L182.836 84.4893ZM110.848 85.6327L109.348 85.6073L109.322 87.1327H110.848V85.6327ZM131.48 85.6327V87.1327H132.932L132.979 85.6808L131.48 85.6327ZM162.105 85.7819L160.605 85.7722L160.605 85.7817L160.605 85.7912L162.105 85.7819ZM136.054 99.2052V97.7052H134.554V99.2052H136.054ZM136.054 115.015H134.554V116.515H136.054V115.015ZM164.243 128.985L162.743 128.976L162.743 128.985L162.743 128.994L164.243 128.985ZM130.485 130.228L131.983 130.148L131.908 128.728H130.485V130.228ZM108.809 130.228V128.728H107.28L107.31 130.257L108.809 130.228ZM147.439 161.905C170.738 161.905 188.168 149.004 188.115 130.422L185.115 130.431C185.161 146.651 169.878 158.905 147.439 158.905V161.905ZM188.115 130.433C188.141 123.761 186.027 117.941 181.848 113.541C177.679 109.151 171.575 106.301 163.834 105.324L163.458 108.3C170.681 109.212 176.086 111.83 179.673 115.607C183.25 119.372 185.138 124.415 185.115 130.421L188.115 130.433ZM165.146 106.812V106.016H162.146V106.812H165.146ZM163.91 107.493C175.891 105.348 184.39 96.7632 184.336 84.4828L181.336 84.4958C181.382 95.0847 174.171 102.608 163.382 104.54L163.91 107.493ZM184.336 84.4939C184.389 67.367 169.386 54.3032 147.737 54.3032V57.3032C168.247 57.3032 181.383 69.495 181.336 84.4846L184.336 84.4939ZM147.737 54.3032C126.339 54.3032 109.665 66.9177 109.348 85.6073L112.347 85.6582C112.627 69.1489 127.373 57.3032 147.737 57.3032V54.3032ZM110.848 87.1327H131.48V84.1327H110.848V87.1327ZM132.979 85.6808C133.192 79.0381 139.305 74.3558 147.637 74.3558V71.3558C138.371 71.3558 130.265 76.716 129.981 85.5847L132.979 85.6808ZM147.637 74.3558C151.688 74.3558 154.939 75.5799 157.151 77.5643C159.349 79.536 160.627 82.3489 160.605 85.7722L163.605 85.7916C163.632 81.5586 162.027 77.9085 159.154 75.3312C156.295 72.7666 152.287 71.3558 147.637 71.3558V74.3558ZM160.605 85.7912C160.627 89.3259 159.15 92.2523 156.577 94.3275C153.978 96.4236 150.181 97.7052 145.549 97.7052V100.705C150.711 100.705 155.218 99.2773 158.46 96.6628C161.728 94.0274 163.632 90.2421 163.605 85.7726L160.605 85.7912ZM145.549 97.7052H136.054V100.705H145.549V97.7052ZM134.554 99.2052V115.015H137.554V99.2052H134.554ZM136.054 116.515H145.549V113.515H136.054V116.515ZM145.549 116.515C151.083 116.515 155.421 117.899 158.331 120.117C161.208 122.309 162.764 125.363 162.743 128.976L165.743 128.994C165.77 124.404 163.748 120.473 160.149 117.731C156.584 115.014 151.55 113.515 145.549 113.515V116.515ZM162.743 128.994C162.765 132.576 161.253 135.567 158.63 137.695C155.984 139.842 152.138 141.157 147.488 141.157V144.157C152.682 144.157 157.238 142.688 160.521 140.025C163.826 137.342 165.77 133.498 165.743 128.976L162.743 128.994ZM147.488 141.157C138.397 141.157 132.32 136.468 131.983 130.148L128.988 130.308C129.446 138.902 137.588 144.157 147.488 144.157V141.157ZM130.485 128.728H108.809V131.728H130.485V128.728ZM107.31 130.257C107.679 149.17 124.583 161.905 147.439 161.905V158.905C125.549 158.905 110.635 146.882 110.309 130.199L107.31 130.257Z" fill="#FF760C"></path> </g> <defs> <clipPath id="clip0"> <rect width="200" height="200" fill="white" transform="translate(0 0.556885)"></rect> </clipPath> </defs> </svg> 