<?xml version="1.0" encoding="UTF-8"?> <svg xmlns="http://www.w3.org/2000/svg" id="Capa_1" height="512px" viewBox="0 0 512 512" width="512px"> <g> <path d="m437.02 74.98c-48.353-48.351-112.64-74.98-181.02-74.98s-132.667 26.629-181.02 74.98c-48.351 48.353-74.98 112.64-74.98 181.02s26.629 132.667 74.98 181.02c48.353 48.351 112.64 74.98 181.02 74.98s132.667-26.629 181.02-74.98c48.351-48.353 74.98-112.64 74.98-181.02s-26.629-132.667-74.98-181.02zm-298.8 249.02c-4.142-7.174-13.315-9.632-20.49-5.49l-12.278 7.089c-7.971-17.141-13.004-35.601-14.75-54.599h14.298c8.284 0 15-6.716 15-15s-6.716-15-15-15h-14.315c1.743-19.362 6.821-37.775 14.66-54.66l12.385 7.15c2.362 1.364 4.941 2.012 7.486 2.012 5.184 0 10.226-2.69 13.004-7.502 4.142-7.174 1.684-16.348-5.49-20.49l-12.349-7.13c10.958-15.497 24.502-29.04 39.999-39.999l7.13 12.349c2.778 4.813 7.82 7.502 13.004 7.502 2.544 0 5.124-.648 7.486-2.012 7.174-4.142 9.632-13.316 5.49-20.49l-7.15-12.385c16.885-7.839 35.298-12.917 54.66-14.66v14.315c0 8.284 6.716 15 15 15s15-6.716 15-15v-14.315c19.362 1.743 37.775 6.821 54.66 14.66l-7.15 12.385c-4.142 7.174-1.684 16.348 5.49 20.49 2.362 1.364 4.941 2.012 7.486 2.012 5.184 0 10.226-2.69 13.004-7.502l7.13-12.349c15.497 10.958 29.04 24.502 39.999 39.999l-12.349 7.13c-7.174 4.142-9.632 13.316-5.49 20.49 2.778 4.813 7.82 7.502 13.004 7.502 2.544 0 5.124-.648 7.486-2.012l12.385-7.15c7.839 16.885 12.917 35.298 14.66 54.66h-14.315c-8.284 0-15 6.716-15 15s6.716 15 15 15h14.298c-1.745 18.998-6.779 37.458-14.75 54.599l-12.278-7.089c-7.174-4.144-16.348-1.684-20.49 5.49s-1.684 16.348 5.49 20.49l12.233 7.063c-4.475 6.329-9.404 12.37-14.768 18.067-31.949-30.29-74.869-48.286-120.734-48.286s-88.786 17.996-120.734 48.286c-5.365-5.697-10.293-11.738-14.768-18.067l12.233-7.063c7.172-4.142 9.63-13.316 5.488-20.49zm-15.439 114.441c23.083-52.518 75.325-87.107 133.219-87.107s110.135 34.589 133.219 87.107c-37.383 27.371-83.442 43.559-133.219 43.559s-95.836-16.188-133.219-43.559zm290.175-20c-4.662-9.314-10.105-18.11-16.229-26.322 35.281-36.466 55.273-85.31 55.273-136.119 0-108.075-87.925-196-196-196s-196 87.925-196 196c0 50.809 19.992 99.653 55.273 136.119-6.124 8.212-11.567 17.008-16.229 26.322-42.544-41.121-69.044-98.741-69.044-162.441 0-124.617 101.383-226 226-226s226 101.383 226 226c0 63.7-26.5 121.32-69.044 162.441z" fill="#FF760C"></path> <path d="m258.315 301.982c3.163 0 6.351-.311 9.521-.944 15.882-3.177 29.046-14.015 35.214-28.992l30.46-73.975c2.306-5.6 1.019-12.036-3.264-16.318-4.281-4.282-10.717-5.569-16.318-3.264l-73.974 30.46c-14.977 6.167-25.815 19.331-28.992 35.213-3.177 15.883 1.765 32.203 13.218 43.656 9.167 9.169 21.452 14.164 34.135 14.164zm-17.935-51.935c1.223-6.114 5.231-10.983 10.997-13.357l40.686-16.753-16.753 40.686c-2.374 5.766-7.243 9.774-13.357 10.997-6.11 1.224-12.149-.604-16.559-5.014-4.41-4.409-6.237-10.444-5.014-16.559z" fill="#FF760C"></path> </g> </svg> 