<?xml version="1.0" encoding="UTF-8"?> <svg xmlns="http://www.w3.org/2000/svg" width="888" height="477" viewBox="0 0 888 477" fill="none"> <g clip-path="url(#clip0)"> <path d="M552.642 164.076C551.636 146.296 544.349 129.452 532.08 116.546C519.81 103.64 503.356 95.5112 485.65 93.6086C467.944 91.706 450.138 96.1534 435.407 106.158C420.675 116.163 409.976 131.074 405.216 148.233C404.306 148.201 403.396 148.164 402.478 148.164C386.244 148.167 370.447 153.426 357.452 163.155C344.456 172.883 334.959 186.558 330.382 202.133C319.625 197.407 307.604 196.381 296.202 199.217C284.799 202.054 274.66 208.591 267.371 217.807H501.758C530.554 217.807 553.869 193.956 552.695 165.184C552.68 164.815 552.662 164.446 552.642 164.076Z" fill="#E6E6E6"></path> <path d="M0.0956723 70.8924C1.10119 53.1132 8.38836 36.2691 20.6579 23.363C32.9275 10.457 49.382 2.32797 67.0876 0.425355C84.7932 -1.47726 102.599 2.97017 117.331 12.9747C132.062 22.9793 142.762 37.8906 147.522 55.0502C148.432 55.0176 149.342 54.981 150.26 54.981C166.494 54.984 182.29 60.2431 195.286 69.9715C208.282 79.6999 217.779 93.3747 222.355 108.95C233.113 104.223 245.133 103.198 256.536 106.034C267.938 108.87 278.078 115.408 285.367 124.624H50.9794C22.1834 124.624 -1.13177 100.773 0.0424954 72.0006C0.0575421 71.6318 0.0752723 71.2624 0.0956723 70.8924Z" fill="#E6E6E6"></path> <path d="M336.372 145.025H151.746L59.4331 304.916L151.746 464.807H336.372L428.685 304.916L336.372 145.025Z" fill="#FF760C"></path> <path d="M167.2 438.039H320.918L397.777 304.916L320.918 171.792H167.2L90.3413 304.916L167.2 438.039Z" fill="white"></path> <path d="M888 463.687H0V465.927H888V463.687Z" fill="#3F3D56"></path> <path d="M697.681 58.277L705.704 81.008L692.332 107.751L669.601 68.974L697.681 58.277Z" fill="#A0616A"></path> <path d="M765.207 333.061C760.808 339.225 726.884 374.9 704.193 398.594C697.895 405.16 692.466 410.816 688.775 414.653C685.539 418.01 683.641 419.975 683.641 419.975L673.385 398.527L668.932 389.221L668.999 389.141L671.794 385.57L698.443 351.473L726.43 315.678L703.698 270.215L731.778 266.203L750.445 267.3L754.51 267.54C754.51 267.54 771.893 323.701 765.207 333.061Z" fill="#2F2E41"></path> <path d="M686.315 442.707C684.577 444.445 681.555 442.226 678.279 438.428C671.5 430.566 663.584 415.964 663.584 415.964L654.224 395.907C655.226 389.916 664.399 389.154 668.999 389.141C670.564 389.141 671.607 389.221 671.607 389.221L672.382 390.371L688.776 414.653C688.776 414.653 691.664 437.358 686.315 442.707Z" fill="#2F2E41"></path> <path opacity="0.2" d="M688.776 414.653C688.776 414.653 691.664 437.358 686.315 442.707C684.577 444.445 681.555 442.226 678.279 438.428L673.385 398.527L672.382 390.371L671.794 385.57L698.443 351.473L704.193 398.594C697.895 405.16 692.466 410.816 688.776 414.653Z" fill="black"></path> <path opacity="0.2" d="M707.295 277.409L703.698 270.215L731.778 266.203L750.445 267.3L750.498 267.54L707.295 277.409Z" fill="black"></path> <path d="M671.607 208.706H662.246L664.921 296.958L683.641 449.393H714.395L701.024 339.746L707.71 278.238L754.51 267.54L741.138 206.032L671.607 208.706Z" fill="#2F2E41"></path> <path d="M686.315 445.381C686.315 445.381 683.641 464.101 684.978 465.438C686.315 466.776 687.652 468.113 687.652 470.787C687.652 473.461 703.698 480.147 711.721 474.798C719.744 469.45 714.395 461.427 714.395 461.427L706.372 445.381H686.315Z" fill="#2F2E41"></path> <path d="M680.966 74.9911C693.521 74.9911 703.698 64.8139 703.698 52.2596C703.698 39.7053 693.521 29.5281 680.966 29.5281C668.412 29.5281 658.235 39.7053 658.235 52.2596C658.235 64.8139 668.412 74.9911 680.966 74.9911Z" fill="#A0616A"></path> <path d="M694.338 88.363L676.849 81.338L666.258 212.717L739.801 218.066L714.395 83.014L703.03 72.343L694.338 88.363Z" fill="#E6E6E6"></path> <path d="M674.522 77.3695L660.909 88.3626L635.503 101.734L644.863 185.974L646.201 234.112C646.201 234.112 628.818 276.9 642.189 287.598C655.561 298.295 670.269 294.283 667.595 271.552C664.921 248.82 659.572 232.775 684.978 208.706C710.384 184.637 688.135 71.7251 674.522 77.3695Z" fill="#2F2E41"></path> <path d="M701.648 69.5161L718.407 80.3397L741.138 92.3741L758.521 284.923L719.744 296.958C719.744 296.958 698.26 74.7383 701.648 69.5161Z" fill="#2F2E41"></path> <path d="M745.15 228.763C745.15 228.763 725.092 259.518 739.801 259.518C754.51 259.518 758.521 234.112 758.521 234.112L745.15 228.763Z" fill="#A0616A"></path> <path d="M662.246 228.763C662.246 228.763 682.304 259.518 667.595 259.518C652.886 259.518 648.875 234.112 648.875 234.112L662.246 228.763Z" fill="#A0616A"></path> <path d="M682.303 18.8309L675.618 14.8194L676.955 17.4937L671.606 16.1566L672.943 17.4937L666.258 16.1566L668.932 18.8309C668.932 18.8309 658.235 18.8309 656.898 29.5281L650.212 30.8652L652.886 34.8767V38.8881L655.56 41.5624V45.5739L658.235 52.2596L660.909 42.8996C660.909 42.8996 672.943 45.5739 678.292 34.8767C678.292 34.8767 679.629 38.8882 686.315 37.551L697.012 56.2711C697.012 56.2711 698.349 47.9721 703.029 46.773C707.709 45.5739 705.035 34.8767 705.035 34.8767C705.035 34.8767 701.024 30.8653 701.024 28.191C701.024 25.5167 697.012 22.8424 694.338 22.8424C691.664 22.8424 684.978 17.4938 684.978 17.4938L682.303 18.8309Z" fill="#2F2E41"></path> <path d="M646.201 103.071L639.976 99.38L635.504 101.734C635.504 101.734 630.155 104.408 628.818 113.768C627.481 123.128 614.109 180.626 614.109 180.626C614.109 180.626 612.772 189.986 619.458 206.032C626.144 222.077 651.549 250.158 651.549 250.158L675.618 230.1L639.515 185.974L648.875 149.871L646.201 103.071Z" fill="#2F2E41"></path> <path d="M730.441 92.374H741.138L758.521 157.894L763.87 239.46L738.464 230.1V171.266L730.441 92.374Z" fill="#2F2E41"></path> <path d="M186.701 171.594H184.701V254.15H186.701V171.594Z" fill="#3F3D56"></path> <path d="M185.701 264.587C188.846 264.587 191.395 262.038 191.395 258.894C191.395 255.75 188.846 253.201 185.701 253.201C182.557 253.201 180.008 255.75 180.008 258.894C180.008 262.038 182.557 264.587 185.701 264.587Z" fill="#FF760C"></path> <path d="M229.402 171.594H227.402V254.15H229.402V171.594Z" fill="#3F3D56"></path> <path d="M228.402 264.587C231.546 264.587 234.095 262.038 234.095 258.894C234.095 255.75 231.546 253.201 228.402 253.201C225.258 253.201 222.708 255.75 222.708 258.894C222.708 262.038 225.258 264.587 228.402 264.587Z" fill="#3F3D56"></path> <path d="M304.366 171.594H302.366V254.15H304.366V171.594Z" fill="#3F3D56"></path> <path d="M303.366 264.587C306.51 264.587 309.059 262.038 309.059 258.894C309.059 255.75 306.51 253.201 303.366 253.201C300.221 253.201 297.672 255.75 297.672 258.894C297.672 262.038 300.221 264.587 303.366 264.587Z" fill="#3F3D56"></path> <path d="M272.052 346.193C275.196 346.193 277.745 343.644 277.745 340.5C277.745 337.356 275.196 334.807 272.052 334.807C268.907 334.807 266.358 337.356 266.358 340.5C266.358 343.644 268.907 346.193 272.052 346.193Z" fill="#3F3D56"></path> <path d="M156.285 294.004C159.43 294.004 161.979 291.455 161.979 288.31C161.979 285.166 159.43 282.617 156.285 282.617C153.141 282.617 150.592 285.166 150.592 288.31C150.592 291.455 153.141 294.004 156.285 294.004Z" fill="#3F3D56"></path> <path d="M273.052 335.755H271.052V236.276H228.402V234.276H273.052V335.755Z" fill="#3F3D56"></path> <path d="M198.986 382.252C202.13 382.252 204.679 379.703 204.679 376.558C204.679 373.414 202.13 370.865 198.986 370.865C195.842 370.865 193.292 373.414 193.292 376.558C193.292 379.703 195.842 382.252 198.986 382.252Z" fill="#FF760C"></path> <path d="M199.986 371.814H197.986V272.334H155.336V270.334H199.986V371.814Z" fill="#3F3D56"></path> <path d="M330.884 337.653C334.028 337.653 336.577 335.104 336.577 331.96C336.577 328.815 334.028 326.266 330.884 326.266C327.739 326.266 325.19 328.815 325.19 331.96C325.19 335.104 327.739 337.653 330.884 337.653Z" fill="#FF760C"></path> <path d="M331.884 327.215H329.884V227.736H302.417V225.736H331.884V327.215Z" fill="#3F3D56"></path> <path d="M157.285 282.616H155.285V233.155H185.701V235.155H157.285V282.616Z" fill="#3F3D56"></path> <path d="M228.877 404.551C232.021 404.551 234.57 402.002 234.57 398.858C234.57 395.713 232.021 393.164 228.877 393.164C225.732 393.164 223.183 395.713 223.183 398.858C223.183 402.002 225.732 404.551 228.877 404.551Z" fill="#3F3D56"></path> <path d="M229.876 393.164H227.876V345.703H199.46V343.703H229.876V393.164Z" fill="#3F3D56"></path> <path d="M301.468 362.325C304.612 362.325 307.161 359.776 307.161 356.631C307.161 353.487 304.612 350.938 301.468 350.938C298.323 350.938 295.774 353.487 295.774 356.631C295.774 359.776 298.323 362.325 301.468 362.325Z" fill="#3F3D56"></path> <path d="M302.468 350.938H300.468V301.477H330.884V303.477H302.468V350.938Z" fill="#3F3D56"></path> </g> <defs> <clipPath id="clip0"> <rect width="888" height="476.815" fill="white"></rect> </clipPath> </defs> </svg> 