<?xml version="1.0" encoding="UTF-8"?> <svg xmlns="http://www.w3.org/2000/svg" width="400" height="400" viewBox="0 0 400 400" fill="none"> <circle cx="200" cy="200" r="200" fill="#FF760C"></circle> <path d="M309.915 164.706C309.916 142.166 301.082 120.919 285.04 104.877C268.998 88.8348 247.75 80 225.208 80H175.019C175.017 80 175.017 80 175.017 80C152.479 80 131.229 88.8348 115.189 104.875C99.1473 120.919 90.3125 142.166 90.3125 164.706V204.158C90.3125 221.616 95.6372 238.406 105.712 252.72C114.6 265.347 126.553 275.211 140.489 281.464V304.125C140.489 315.842 147.05 320 152.667 320C156.681 320 160.695 318.019 164.602 314.113L189.849 288.867L225.21 288.865C247.75 288.865 268.998 280.03 285.04 263.99C301.082 247.948 309.916 226.699 309.916 204.158L309.915 164.706ZM225.21 274.802L186.937 274.804C185.071 274.804 183.284 275.544 181.966 276.862L154.659 304.169C154.625 304.205 154.588 304.24 154.551 304.275C154.551 304.225 154.551 304.174 154.551 304.125V276.771C154.551 273.854 152.751 271.241 150.027 270.201C122.722 259.782 104.377 233.241 104.377 204.158V164.706C104.377 145.922 111.749 128.204 125.134 114.818C138.519 101.434 156.234 94.0625 175.019 94.0625H225.208C243.993 94.0625 261.71 101.434 275.095 114.819C288.482 128.206 295.854 145.923 295.852 164.706L295.854 204.158C295.852 243.112 264.162 274.802 225.21 274.802Z" fill="white"></path> <path d="M218.812 195.001C216.068 192.255 211.616 192.255 208.87 195.001L203.19 200.679L181.18 178.672L186.86 172.994C188.179 171.676 188.92 169.887 188.92 168.021C188.92 166.157 188.179 164.368 186.86 163.049L160.233 136.422C158.915 135.104 157.128 134.362 155.262 134.362C153.398 134.362 151.609 135.104 150.291 136.422L131.65 155.062C121.57 165.142 121.57 181.547 131.652 191.632L190.23 250.213C195.1 255.082 201.595 257.763 208.514 257.763C215.436 257.763 221.931 255.082 226.801 250.213L245.441 231.575C246.76 230.255 247.501 228.468 247.501 226.602C247.501 224.738 246.76 222.949 245.441 221.63L218.812 195.001ZM216.857 240.267C214.643 242.481 211.68 243.7 208.514 243.7C205.349 243.7 202.386 242.481 200.172 240.267L141.597 181.688C136.997 177.088 136.995 169.603 141.595 165.005L155.262 151.336L171.945 168.021L166.265 173.699C164.946 175.017 164.205 176.806 164.205 178.67C164.205 180.536 164.946 182.323 166.265 183.643L198.217 215.595C200.963 218.34 205.414 218.342 208.161 215.595L213.841 209.917L230.524 226.6L216.857 240.267Z" fill="white"></path> <path d="M201.82 111.104C197.936 111.104 194.789 114.252 194.789 118.135C194.789 122.017 197.936 125.167 201.82 125.167C217.911 125.167 233.041 131.433 244.42 142.813C255.8 154.191 262.065 169.319 262.065 185.412C262.065 189.294 265.213 192.443 269.097 192.443C272.979 192.443 276.128 189.296 276.128 185.412C276.128 165.563 268.399 146.903 254.364 132.868C240.329 118.833 221.669 111.104 201.82 111.104Z" fill="white"></path> <path d="M231.941 185.41C231.941 189.292 235.09 192.441 238.972 192.441C242.856 192.441 246.003 189.292 246.003 185.41C246.003 161.048 226.182 141.229 201.82 141.229C197.936 141.229 194.789 144.376 194.789 148.26C194.789 152.143 197.936 155.291 201.82 155.291C218.43 155.291 231.941 168.802 231.941 185.41Z" fill="white"></path> </svg> 